<svg width="28" height="28" viewBox="0 0 28 28" fill="none" xmlns="http://www.w3.org/2000/svg">
<path d="M28 14C28 6.26801 21.732 0 14 0C6.26801 0 0 6.26801 0 14C0 21.732 6.26801 28 14 28C21.732 28 28 21.732 28 14Z" fill="#7E7E7E"/>
<path d="M21.0217 9.2048C19.7373 8.17726 18.1961 7.66351 16.5691 7.57788L16.3122 7.83478C17.7679 8.17726 19.0523 8.86226 20.2511 9.80417C18.7954 9.03353 17.1685 8.51979 15.456 8.34852C14.9422 8.26289 14.5141 8.26289 14.0003 8.26289C13.4866 8.26289 13.0584 8.26289 12.5447 8.34852C10.8321 8.51979 9.20521 9.03353 7.74956 9.80417C8.94831 8.86226 10.2327 8.17726 11.6884 7.83478L11.4315 7.57788C9.80458 7.66351 8.2633 8.17726 6.97892 9.2048C5.52326 11.9449 4.75262 15.0275 4.66699 18.1956C5.95138 19.5657 7.74956 20.4219 9.63337 20.4219C9.63337 20.4219 10.2327 19.7369 10.6609 19.1375C9.54774 18.8807 8.5202 18.2812 7.83519 17.3394C8.43457 17.6819 9.03394 18.0244 9.63337 18.2812C10.404 18.6238 11.1747 18.795 11.9453 18.9663C12.6303 19.0519 13.3153 19.1375 14.0003 19.1375C14.6853 19.1375 15.3703 19.0519 16.0553 18.9663C16.826 18.795 17.5966 18.6238 18.3673 18.2812C18.9667 18.0244 19.5661 17.6819 20.1655 17.3394C19.4804 18.2812 18.4529 18.8807 17.3398 19.1375C17.7679 19.7369 18.3673 20.4219 18.3673 20.4219C20.2511 20.4219 22.0493 19.5657 23.3337 18.1956C23.248 15.0275 22.4774 11.9449 21.0217 9.2048ZM11.1747 16.6543C10.3184 16.6543 9.54774 15.8837 9.54774 14.9418C9.54774 13.9999 10.3184 13.2293 11.1747 13.2293C12.0309 13.2293 12.8016 13.9999 12.8016 14.9418C12.8016 15.8837 12.0309 16.6543 11.1747 16.6543ZM16.826 16.6543C15.9697 16.6543 15.1991 15.8837 15.1991 14.9418C15.1991 13.9999 15.9697 13.2293 16.826 13.2293C17.6823 13.2293 18.4529 13.9999 18.4529 14.9418C18.4529 15.8837 17.6823 16.6543 16.826 16.6543Z" fill="white"/>
</svg>
