<svg width="63" height="63" viewBox="0 0 63 63" fill="none" xmlns="http://www.w3.org/2000/svg">
<path d="M56.9089 30.9648C57.8349 34.446 56.3992 38.7308 53.1818 43.0189C49.6348 47.7514 43.9206 52.488 36.8207 56.1602C34.5444 57.3377 32.262 58.3343 30.0168 59.1501C17.9243 63.5517 6.88866 62.7401 3.72014 56.6184C1.7996 52.9092 3.14029 47.9672 6.85177 43.0189C9.40355 39.6159 13.0779 36.2068 17.5831 33.1984C18.5618 34.8115 19.8428 36.2212 21.35 37.3472C21.3521 37.3472 21.3521 37.3493 21.3541 37.3513C22.303 38.2524 23.0816 39.0726 23.7205 39.8119" stroke="#0B4870" stroke-width="1.65" stroke-miterlimit="10" stroke-linecap="round" stroke-linejoin="round"/>
<path d="M26.0488 43.1303C26.6429 44.2991 26.6429 44.8833 26.6429 44.8833V45.8101H33.8437V44.8833C33.8437 44.8772 33.8478 41.7927 41.0384 35.6321C41.6861 34.9437 42.2516 34.1916 42.7348 33.3881C44.0836 31.1339 44.7765 28.4685 44.7765 25.6102C44.7765 25.1067 44.7518 24.6074 44.7004 24.1162C47.5195 24.1652 50.0088 24.6438 52.01 25.5534" stroke="#0B4870" stroke-width="1.65" stroke-miterlimit="10" stroke-linecap="round" stroke-linejoin="round"/>
<path d="M32.4341 54.8198H27.8057" stroke="#0B4870" stroke-width="1.65" stroke-miterlimit="10" stroke-linecap="round" stroke-linejoin="round"/>
<path d="M36.077 51.9775H24.5059" stroke="#0B4870" stroke-width="1.65" stroke-miterlimit="10" stroke-linecap="round" stroke-linejoin="round"/>
<path d="M36.077 48.8936H24.5059" stroke="#0B4870" stroke-width="1.65" stroke-miterlimit="10" stroke-linecap="round" stroke-linejoin="round"/>
<path d="M26.6423 45.8096H24.5059" stroke="#0B4870" stroke-width="1.65" stroke-miterlimit="10" stroke-linecap="round" stroke-linejoin="round"/>
<path d="M36.0767 45.8096H33.8438" stroke="#0B4870" stroke-width="1.65" stroke-miterlimit="10" stroke-linecap="round" stroke-linejoin="round"/>
<path d="M22.7142 38.7064C22.3049 38.2772 21.8529 37.8256 21.3539 37.3516C21.3518 37.3496 21.3518 37.3476 21.3498 37.3476C19.8426 36.2215 18.5616 34.8118 17.5829 33.1987C16.236 30.9877 15.4629 28.3882 15.4629 25.6099C15.4629 25.1044 15.4876 24.6071 15.539 24.1139C16.2874 16.7265 22.53 10.9624 30.1195 10.9624C37.7109 10.9624 43.9515 16.7286 44.7 24.116C44.7514 24.6071 44.7761 25.1065 44.7761 25.6099C44.7761 28.4683 44.0831 31.1335 42.7343 33.3879C42.2511 34.1914 41.6856 34.9435 41.0379 35.6318C33.8474 41.7925 33.8433 44.8769 33.8433 44.8831V45.8098H26.6425V44.8831C26.6425 44.8831 26.6425 44.2989 26.0484 43.1301" stroke="#0B4870" stroke-width="1.65" stroke-miterlimit="10" stroke-linecap="round" stroke-linejoin="round"/>
<path d="M33.8434 45.8096V51.9065L28.014 51.9764L26.6426 51.9928V45.8096H33.8434Z" stroke="#0B4870" stroke-width="1.65" stroke-miterlimit="10" stroke-linecap="round" stroke-linejoin="round"/>
<path d="M56.0174 56.7987C52.8487 62.9203 42.1091 63.5521 30.0167 59.1504C27.7713 58.3347 25.4889 57.338 23.2128 56.1606C16.1127 52.4884 10.3986 47.7518 6.85171 43.0193C3.14023 38.0731 1.79967 33.1309 3.72008 29.4219" stroke="#0B4870" stroke-width="1.65" stroke-miterlimit="10" stroke-linecap="round" stroke-linejoin="round"/>
<path d="M26.0488 43.1299C26.6429 44.2988 26.6429 44.8829 26.6429 44.8829V45.8097H33.8437V44.8829C33.8437 44.8768 33.8478 41.7923 41.0384 35.6317C41.6861 34.9433 42.2516 34.1912 42.7348 33.3877C47.1103 36.3509 50.684 39.6881 53.1823 43.0191C53.9179 43.9999 54.5605 44.9805 55.1028 45.9512" stroke="#0B4870" stroke-width="1.65" stroke-miterlimit="10" stroke-linecap="round" stroke-linejoin="round"/>
<path d="M15.539 24.1143C15.4876 24.6075 15.4629 25.1048 15.4629 25.6103C15.4629 28.3886 16.236 30.988 17.5829 33.1991C18.5616 34.8122 19.8426 36.2219 21.3498 37.348C21.3519 37.348 21.3519 37.35 21.3539 37.352C22.3028 38.2531 23.0814 39.0733 23.7203 39.8126" stroke="#0B4870" stroke-width="1.65" stroke-miterlimit="10" stroke-linecap="round" stroke-linejoin="round"/>
<path d="M5.11696 29.7214C7.41658 29.7214 9.28079 27.8584 9.28079 25.5602C9.28079 23.262 7.41658 21.3989 5.11696 21.3989C2.81734 21.3989 0.953125 23.262 0.953125 25.5602C0.953125 27.8584 2.81734 29.7214 5.11696 29.7214Z" stroke="#0B4870" stroke-width="1.65" stroke-miterlimit="10" stroke-linecap="round" stroke-linejoin="round"/>
<path d="M57.8357 57.2161C60.1353 57.2161 61.9995 55.353 61.9995 53.0548C61.9995 50.7566 60.1353 48.8936 57.8357 48.8936C55.5361 48.8936 53.6719 50.7566 53.6719 53.0548C53.6719 55.353 55.5361 57.2161 57.8357 57.2161Z" stroke="#0B4870" stroke-width="1.65" stroke-miterlimit="10" stroke-linecap="round" stroke-linejoin="round"/>
<path d="M29.877 6.63546V1.10596" stroke="#0B4870" stroke-width="1.65" stroke-miterlimit="10" stroke-linecap="round" stroke-linejoin="round"/>
<path d="M43.1572 12.1649L46.477 8.84717" stroke="#0B4870" stroke-width="1.65" stroke-miterlimit="10" stroke-linecap="round" stroke-linejoin="round"/>
<path d="M16.5981 12.1649L13.2783 8.84717" stroke="#0B4870" stroke-width="1.65" stroke-miterlimit="10" stroke-linecap="round" stroke-linejoin="round"/>
</svg>
