<svg width="100%" height="100%" viewBox="0 0 618 441" fill="none" xmlns="http://www.w3.org/2000/svg">
<path d="M314.535 0H302.321C298.649 0 295.673 2.97661 295.673 6.64844V18.8626C295.673 22.5344 298.649 25.511 302.321 25.511H314.535C318.207 25.511 321.184 22.5344 321.184 18.8626V6.64844C321.184 2.97661 318.207 0 314.535 0Z" fill="#DC8758"/>
<path d="M239.148 440.572H228.816L270.692 252.347L291.788 258.026L239.148 440.572Z" fill="#DC8758"/>
<path d="M378.969 440.572H389.301L347.425 252.347L326.329 258.026L378.969 440.572Z" fill="#DC8758"/>
<path d="M469.074 15.0596H148.925C146.519 15.0596 144.569 17.0097 144.569 19.4152V273.846C144.569 276.251 146.519 278.202 148.925 278.202H469.074C471.479 278.202 473.429 276.251 473.429 273.846V19.4152C473.429 17.0097 471.479 15.0596 469.074 15.0596Z" fill="#FFE3CB"/>
<path d="M365.079 267.032H252.923C251.026 267.032 249.488 268.57 249.488 270.467V279.845C249.488 281.742 251.026 283.28 252.923 283.28H365.079C366.976 283.28 368.514 281.742 368.514 279.845V270.467C368.514 268.57 366.976 267.032 365.079 267.032Z" fill="#DC8758"/>
<path d="M550.4 153.03C550.4 153.03 545.972 150.035 543.132 138.591C540.292 127.148 539.276 117.84 543.067 125.237L545.862 130.921C545.862 130.921 547.622 121.606 548.185 115.965C548.311 114.467 548.914 113.048 549.907 111.919C550.899 110.789 552.228 110.008 553.698 109.69C556.466 109.155 558.353 110.398 558.964 117.005C559.879 126.886 560.08 132.131 559.592 134.637C559.423 135.505 556.834 144.747 556.834 144.747L550.4 153.03Z" fill="#F9977A"/>
<path d="M545.251 136.629C545.417 136.171 545.544 135.699 545.632 135.22C545.727 134.752 545.799 134.279 545.846 133.804C545.887 133.329 545.928 132.855 545.924 132.376C545.937 131.89 545.916 131.404 545.863 130.921C545.646 131.362 545.482 131.826 545.373 132.305C545.257 132.774 545.175 133.251 545.128 133.731C545.079 134.211 545.064 134.693 545.081 135.174C545.088 135.664 545.145 136.151 545.251 136.629ZM550.312 125.399C550.584 124.248 550.787 123.081 550.921 121.906C551.074 120.733 551.153 119.553 551.197 118.371C551.239 117.187 551.212 116.001 551.114 114.82C551.034 113.634 550.825 112.461 550.489 111.321C550.613 113.683 550.551 116.005 550.475 118.349L550.369 121.864C550.338 123.038 550.302 124.213 550.312 125.399ZM553.782 124.975C554.147 123.731 554.427 122.463 554.621 121.181C554.83 119.9 554.961 118.607 555.016 117.31C555.081 116.007 555.03 114.701 554.864 113.407C554.746 112.099 554.348 110.831 553.698 109.69C554.083 110.91 554.289 112.179 554.31 113.458C554.357 114.729 554.362 116.004 554.294 117.281C554.2 119.837 553.958 122.39 553.782 124.975ZM556.914 123.806C557.247 122.773 557.499 121.716 557.668 120.644C557.849 119.574 557.966 118.494 558.021 117.411C558.074 116.325 558.053 115.236 557.959 114.153C557.867 113.069 557.665 111.996 557.354 110.953C557.38 112.04 557.417 113.107 557.404 114.176C557.373 115.244 557.361 116.309 557.3 117.376L557.119 120.58L556.914 123.806Z" fill="#DD765E"/>
<path d="M569.645 406.172L574.115 429.424C574.115 429.424 559.64 434.976 551.042 420.77L548.991 407.866L569.645 406.172Z" fill="#F9977A"/>
<path d="M571.71 417.116C571.71 417.116 582.259 430.293 576.412 438.059C576.106 438.461 575.71 438.786 575.255 439.007C574.801 439.229 574.302 439.342 573.797 439.337L521.496 439.053C521.257 439.051 521.02 438.998 520.802 438.899C520.584 438.799 520.39 438.655 520.231 438.475C520.073 438.295 519.954 438.084 519.883 437.855C519.812 437.626 519.789 437.385 519.818 437.147C520.118 434.438 521.382 429.538 526.499 427.288C533.773 424.089 538.934 429.853 551.064 419.421C551.064 419.421 566.787 423.939 571.71 417.116Z" fill="#935B50"/>
<path d="M505.838 405.359L502.651 431.208C502.651 431.208 489.112 433.628 483.013 418.183L486.308 404.847L505.838 405.359Z" fill="#F9977A"/>
<path d="M504.547 417.116C504.547 417.116 515.096 430.293 509.249 438.059C508.943 438.461 508.546 438.786 508.092 439.007C507.638 439.229 507.139 439.342 506.634 439.337L454.333 439.053C454.094 439.051 453.857 438.998 453.639 438.899C453.421 438.799 453.227 438.655 453.068 438.475C452.91 438.295 452.791 438.084 452.72 437.855C452.649 437.626 452.626 437.385 452.654 437.147C452.955 434.438 454.219 429.538 459.336 427.288C466.61 424.089 470.882 428.615 483.012 418.182C483.012 418.182 499.624 423.939 504.547 417.116Z" fill="#935B50"/>
<path d="M550.854 144.093L558.106 142.445L567.735 176.964C570.923 188.391 556.134 195.945 548.731 186.675C545.786 182.988 543.716 179.895 543.272 178.046L541.624 197.494L545.909 227.49H483.609V165.849L468.827 185.277C461.853 193.538 448.998 193.538 442.735 179.034L432.846 157.279L446.69 148.708L456.579 164.531L476.594 134.271C478.953 130.704 482.159 127.777 485.926 125.752C489.693 123.727 493.903 122.667 498.18 122.667H528.355C531.107 122.667 533.813 123.364 536.222 124.693C538.631 126.022 540.664 127.939 542.132 130.266L550.854 144.093Z" fill="#FFA62B"/>
<path d="M565.65 169.486C564.58 167.274 563.423 165.114 562.254 162.961C561.093 160.803 559.87 158.681 558.647 156.559C557.406 154.448 556.162 152.338 554.857 150.264C553.561 148.185 552.252 146.114 550.854 144.093C551.923 146.305 553.08 148.465 554.249 150.619C555.41 152.776 556.633 154.899 557.857 157.02C559.1 159.13 560.343 161.24 561.648 163.314C562.944 165.393 564.254 167.464 565.65 169.486ZM543.273 178.045C543.462 175.216 543.55 172.387 543.623 169.557C543.699 166.728 543.692 163.899 543.73 161.069C543.694 158.24 543.698 155.411 543.625 152.581C543.551 149.752 543.463 146.923 543.273 144.093C543.082 146.923 542.994 149.752 542.921 152.581C542.848 155.411 542.851 158.24 542.815 161.069C542.854 163.899 542.847 166.728 542.922 169.557C542.995 172.387 543.084 175.216 543.273 178.045ZM483.609 165.849C485.582 162.923 487.471 159.947 489.346 156.963C491.227 153.982 493.031 150.955 494.877 147.953L494.9 147.917L494.912 147.882C495.511 146.135 495.918 144.327 496.123 142.49C496.352 140.66 496.346 138.808 496.105 136.979C495.838 135.151 495.263 133.381 494.406 131.745C493.505 130.149 492.301 128.745 490.861 127.612C492.16 128.858 493.223 130.328 494.001 131.951C494.751 133.566 495.224 135.295 495.399 137.067C495.559 138.839 495.523 140.623 495.293 142.387C495.063 144.148 494.651 145.88 494.063 147.556L494.097 147.485C492.317 150.527 490.495 153.543 488.751 156.606C487 159.664 485.263 162.732 483.609 165.849ZM539.317 218.26C537.428 218.92 535.518 219.499 533.579 219.968C532.616 220.222 531.64 220.427 530.672 220.659L527.74 221.222C523.825 221.916 519.858 222.28 515.882 222.31C513.896 222.396 511.915 222.254 509.931 222.167C508.943 222.079 507.959 221.944 506.972 221.836L505.493 221.658L504.027 221.396C503.052 221.212 502.067 221.063 501.095 220.852L498.21 220.09C497.729 219.962 497.237 219.864 496.764 219.71L495.351 219.222L492.509 218.26C496.136 219.993 499.959 221.278 503.896 222.087L505.37 222.416C505.866 222.498 506.367 222.551 506.865 222.62C507.864 222.744 508.86 222.895 509.861 222.997C511.87 223.114 513.879 223.287 515.894 223.225C519.919 223.16 523.929 222.72 527.872 221.911C531.808 221.114 535.646 219.89 539.317 218.26ZM448.339 169.486C449.258 167.811 450.412 166.276 451.766 164.928C452.397 164.31 453.207 163.907 454.081 163.778C454.497 163.788 454.906 163.888 455.28 164.07C455.654 164.252 455.984 164.512 456.249 164.832L456.275 164.202C455.4 165.111 454.677 166.154 454.132 167.291C453.585 168.4 453.163 169.567 452.871 170.769C452.61 171.967 452.453 173.186 452.403 174.411C452.371 175.627 452.445 176.843 452.624 178.045L452.697 176.237C452.761 175.639 452.789 175.041 452.881 174.45C453.022 173.27 453.264 172.104 453.606 170.965C453.944 169.837 454.385 168.743 454.922 167.695C455.444 166.665 456.104 165.711 456.884 164.859L457.201 164.527L456.91 164.228C456.556 163.811 456.111 163.48 455.609 163.26C455.107 163.04 454.562 162.937 454.015 162.959C452.968 163.129 452.013 163.662 451.318 164.464C450.006 165.927 448.994 167.633 448.339 169.486Z" fill="#C68021"/>
<path d="M543.601 227.49L572.127 408.999C572.178 409.331 572.161 409.671 572.076 409.996C571.991 410.322 571.841 410.627 571.634 410.892C571.428 411.157 571.169 411.378 570.874 411.54C570.579 411.702 570.255 411.802 569.92 411.834L550.683 413.679C550.074 413.737 549.464 413.568 548.973 413.202C548.481 412.837 548.143 412.303 548.023 411.703L516.572 257.486L507.421 410.089C507.383 410.718 507.107 411.309 506.648 411.741C506.19 412.172 505.583 412.413 504.953 412.413H484.092C483.763 412.413 483.438 412.347 483.135 412.22C482.832 412.093 482.557 411.906 482.327 411.671C482.097 411.437 481.916 411.158 481.794 410.853C481.673 410.547 481.614 410.22 481.621 409.892L485.257 227.49H543.601Z" fill="#0E538C"/>
<path d="M550.195 321.105C548.785 321.457 547.353 321.708 545.907 321.858C544.474 322.02 543.029 322.046 541.592 321.937C540.161 321.824 538.752 321.518 537.403 321.027C536.06 320.49 534.814 319.737 533.714 318.798C534.699 319.9 535.904 320.785 537.251 321.396C538.623 321.961 540.072 322.318 541.549 322.452C544.495 322.644 547.447 322.184 550.195 321.105ZM552.503 329.346C550.83 329.296 549.165 329.157 547.51 328.987C545.855 328.827 544.212 328.568 542.588 328.213C540.961 327.902 539.371 327.42 537.845 326.775C536.301 326.159 534.896 325.24 533.714 324.072C534.775 325.393 536.135 326.443 537.681 327.138C539.212 327.852 540.823 328.383 542.48 328.719C545.775 329.393 549.149 329.604 552.503 329.346ZM507.013 322.256C505.784 322.457 504.545 322.586 503.301 322.643C502.066 322.706 500.827 322.678 499.596 322.559C497.122 322.363 494.712 321.672 492.51 320.527C493.526 321.277 494.65 321.869 495.843 322.282C497.044 322.689 498.287 322.955 499.549 323.075C502.067 323.303 504.605 323.025 507.013 322.256ZM507.013 329.36C505.595 329.759 504.146 330.039 502.681 330.197C501.224 330.372 499.757 330.447 498.29 330.421C496.822 330.412 495.357 330.309 493.902 330.113C492.44 329.947 490.999 329.646 489.543 329.36C490.941 329.863 492.379 330.247 493.842 330.507C495.309 330.767 496.795 330.911 498.285 330.939C499.776 330.945 501.265 330.828 502.737 330.59C504.209 330.363 505.646 329.95 507.013 329.36ZM523.495 252.212C521.796 253.543 520.025 254.771 518.232 255.956C516.444 257.146 514.594 258.24 512.688 259.231C510.797 260.241 508.829 261.1 506.803 261.8C504.769 262.494 502.656 262.928 500.513 263.09C502.684 263.12 504.847 262.813 506.924 262.18C508.995 261.529 511.004 260.695 512.928 259.69C514.841 258.672 516.687 257.535 518.455 256.284C520.226 255.043 521.91 253.683 523.495 252.212ZM535.691 263.09C533.225 262.693 530.765 262.346 528.347 261.8C527.137 261.555 525.942 261.236 524.77 260.845C523.579 260.505 522.472 259.922 521.517 259.134C522.358 260.085 523.43 260.803 524.629 261.218C525.802 261.673 527.008 262.037 528.237 262.306C530.688 262.826 533.186 263.089 535.691 263.09ZM512.004 261.112C511.776 262.626 511.088 264.032 510.033 265.142C509.027 266.28 507.859 267.264 506.567 268.063C505.941 268.493 505.265 268.852 504.607 269.236C503.919 269.568 503.24 269.921 502.544 270.239C501.151 270.879 499.714 271.416 498.278 271.99C499.026 271.804 499.767 271.585 500.514 271.382C501.252 271.155 501.97 270.863 502.701 270.606C503.43 270.341 504.115 269.969 504.824 269.654C505.502 269.277 506.199 268.926 506.85 268.496C508.172 267.655 509.35 266.608 510.34 265.393C511.376 264.204 511.965 262.69 512.004 261.112Z" fill="#061F34"/>
<path d="M444.947 149.788L437.681 131.238L426.224 115.962C426.084 115.775 425.908 115.618 425.707 115.5C425.506 115.381 425.284 115.303 425.052 115.271C424.821 115.239 424.586 115.252 424.36 115.311C424.134 115.37 423.922 115.474 423.736 115.615C423.377 115.888 423.135 116.288 423.061 116.733C422.987 117.178 423.085 117.635 423.337 118.01L429.77 127.612C429.77 127.612 420.831 121.308 420.194 132.297C420.15 133.039 420.378 133.772 420.834 134.36C421.29 134.948 421.944 135.35 422.674 135.492C423.743 135.686 424.769 136.069 425.704 136.622C425.704 136.622 424.606 147.06 431.418 147.39L434.272 156.396L444.947 149.788Z" fill="#F9977A"/>
<path d="M439.337 135.466C439.337 135.466 438.292 127.89 439.001 125.954C439.176 125.425 439.138 124.848 438.897 124.345C438.152 122.678 436.599 120.602 435.294 128.055L437.68 131.237L439.337 135.466ZM524.086 123.203L524.91 79.5269H492.441V105.487C492.441 108.219 493.526 110.84 495.459 112.772C497.391 114.704 500.011 115.789 502.744 115.789H503.484L503.319 123.203H524.086Z" fill="#F9977A"/>
<path d="M503.483 115.79H508.675L503.318 123.204L503.483 115.79Z" fill="#DD765E"/>
<path d="M524.226 115.789C524.226 115.789 507.934 118.423 502.66 99.4696C502.66 99.4696 509.912 95.514 502.66 91.064C502.66 91.064 498.705 90.24 498.54 92.7122L492.442 79.5269C492.442 79.5269 486.179 81.0103 486.508 73.5936C486.508 73.5936 480.08 69.8027 487.992 66.5065C487.992 66.5065 487.662 57.2768 496.397 64.0342C496.397 64.0342 502.33 50.3545 517.494 69.8028C517.494 69.8028 542.216 71.9454 530.514 92.5474L524.226 115.789Z" fill="#1E1D22"/>
<path d="M57.0013 406.898C55.8443 400.082 55.1777 393.192 55.0067 386.28C54.8069 379.362 55.0798 372.438 55.8235 365.556C56.5967 358.669 58.0154 351.871 60.061 345.249C61.134 341.957 62.3969 338.73 63.8433 335.583C65.3562 332.474 67.0858 329.475 69.0192 326.608C65.4054 332.483 62.5896 338.813 60.646 345.431C59.695 348.737 58.8375 352.069 58.1705 355.445C57.5203 358.824 57.0013 362.224 56.6137 365.646C55.8444 372.492 55.5113 379.38 55.6163 386.268C55.6483 389.713 55.7814 393.157 56.0156 396.599C56.234 400.039 56.5261 403.479 57.0013 406.898Z" fill="#50661A"/>
<path d="M57.0004 355.188C57.0004 355.188 20.684 359.762 4.87913 344.179C-6.84952 332.614 4.30638 312.71 20.3802 316.306C31.1412 318.713 44.414 328.279 57.0004 355.188Z" fill="#0B4870"/>
<path d="M57.0016 355.189C51.9037 353.637 46.886 351.82 41.9466 349.809C37.0096 347.791 32.1692 345.549 27.4255 343.082C25.0663 341.832 22.7516 340.5 20.4813 339.086C18.1975 337.693 15.9956 336.171 13.8863 334.526C11.7652 332.892 9.78081 331.087 7.95302 329.129C6.13466 327.161 4.66065 324.9 3.59277 322.442C4.76949 324.828 6.33971 326.999 8.23751 328.863C10.1021 330.747 12.1153 332.478 14.2575 334.039C18.5459 337.169 23.0731 339.957 27.7975 342.379C32.4755 344.896 37.3117 347.115 42.1831 349.247C44.6204 350.311 47.076 351.333 49.5501 352.314C52.0145 353.319 54.4948 354.289 57.0016 355.189Z" fill="#CBCBCB"/>
<path d="M17.6206 336.825L17.6562 331.467C17.6462 329.687 17.6566 327.909 17.5554 326.137C17.4989 324.368 17.3417 322.604 17.0846 320.854L16.8382 319.556C16.7507 319.124 16.5987 318.714 16.4852 318.287C16.3546 317.868 16.1945 317.458 16.0063 317.061C15.792 316.673 15.5537 316.299 15.293 315.94C16.5581 317.26 17.3926 318.932 17.6859 320.737C18.0415 322.506 18.2636 324.3 18.3501 326.103C18.3858 327.901 18.3872 329.698 18.2656 331.488C18.157 333.278 17.9417 335.06 17.6206 336.825ZM0.529297 336.825C2.66401 336.454 4.7696 336.147 6.82766 335.673C7.84752 335.443 8.84654 335.128 9.81446 334.733C10.8058 334.383 11.6355 333.684 12.148 332.767C12.0173 333.313 11.7652 333.824 11.4103 334.26C11.0555 334.696 10.607 335.047 10.0982 335.286C9.12606 335.812 8.08687 336.203 7.00924 336.448C4.88514 336.933 2.69523 337.06 0.529297 336.825ZM7.09479 346.13C9.94159 345.766 12.7589 345.2 15.5252 344.436C16.8826 344.057 18.1833 343.499 19.3929 342.776C20.6308 342.078 21.5523 340.93 21.9661 339.571C21.8977 340.317 21.6629 341.038 21.279 341.681C20.8951 342.324 20.3719 342.872 19.7478 343.286C18.5373 344.149 17.1866 344.795 15.7556 345.197C12.9454 346.012 10.0141 346.328 7.09479 346.13ZM27.4014 342.626C28.0066 340.851 28.5625 339.07 29.069 337.282C29.5608 335.489 30.0459 333.695 30.3668 331.869C31.1713 328.241 31.3395 324.501 30.8638 320.815C31.428 322.619 31.7142 324.499 31.7125 326.389C31.6842 328.279 31.4952 330.163 31.1476 332.021C30.7655 333.866 30.2654 335.684 29.6505 337.465C29.0417 339.243 28.2895 340.969 27.4014 342.626ZM21.9661 353.134C23.1239 352.83 24.244 352.451 25.3413 352.045C26.4322 351.645 27.4839 351.146 28.4829 350.552C29.4695 349.97 30.3641 349.244 31.1373 348.399C31.8749 347.496 32.4373 346.463 32.7959 345.354C32.7263 346.581 32.3225 347.766 31.628 348.78C30.8861 349.77 29.9565 350.604 28.8921 351.235C27.8425 351.855 26.7116 352.326 25.5322 352.634C24.3711 352.959 23.1718 353.127 21.9661 353.134ZM40.3678 328.991C41.1613 330.484 41.7364 332.083 42.0753 333.74C42.4194 335.407 42.5534 337.11 42.4742 338.811C42.3787 340.516 42.0195 342.197 41.4094 343.792C40.8038 345.376 39.9331 346.845 38.8345 348.137C39.6642 346.699 40.3335 345.175 40.8305 343.592C41.3311 342.029 41.6169 340.405 41.6802 338.765C41.7855 337.123 41.7167 335.474 41.4749 333.847C41.2418 332.2 40.8715 330.576 40.3678 328.991ZM38.0196 355.189C39.3396 354.527 40.6369 353.96 41.8814 353.293C43.1483 352.655 44.3209 351.845 45.3658 350.886C44.7191 352.251 43.6199 353.349 42.2549 353.996C40.9474 354.698 39.5016 355.106 38.0196 355.189ZM49.5157 341.245C50.2367 343.046 50.6581 344.953 50.7632 346.89C50.8293 347.866 50.7823 348.846 50.6232 349.812C50.498 350.793 50.116 351.723 49.5157 352.509C49.8247 351.619 49.9901 350.684 50.0058 349.742C50.0466 348.806 50.0342 347.869 49.9687 346.934C49.8712 345.053 49.6444 343.175 49.5157 341.245Z" fill="#CBCBCB"/>
<path d="M55.6821 355.006C55.6821 355.006 27.3868 331.786 27.8314 309.595C28.1612 293.127 50.2833 287.538 58.7268 301.68C64.3794 311.148 66.5629 327.362 55.6821 355.006Z" fill="#2A94F4"/>
<path d="M55.6806 355.006C53.23 350.266 51.0254 345.402 49.0756 340.435C47.1096 335.472 45.3907 330.416 43.919 325.267C43.2086 322.689 42.589 320.086 42.0602 317.459C41.5014 314.837 41.1015 312.183 40.8628 309.513C40.6098 306.839 40.5757 304.149 40.7608 301.469C40.9569 298.788 41.6217 296.163 42.725 293.711C41.8552 296.219 41.3962 298.851 41.3656 301.506C41.3013 304.148 41.4492 306.792 41.8081 309.411C42.5095 314.663 43.6129 319.853 45.1083 324.936C46.4779 330.061 48.1945 335.091 49.9614 340.102C50.8452 342.609 51.7721 345.101 52.7423 347.578C53.6728 350.072 54.6779 352.536 55.6806 355.006Z" fill="#CBCBCB"/>
<path d="M41.9315 313.787C44.4418 311.205 47.0251 308.774 49.4885 306.236C50.7172 304.968 51.9024 303.668 53.0149 302.312C53.5547 301.627 54.0545 300.911 54.5118 300.168C54.7397 299.796 54.941 299.408 55.1142 299.007C55.2631 298.59 55.3896 298.166 55.4931 297.735C55.4904 299.584 54.8971 301.385 53.7997 302.873C52.7879 304.381 51.6417 305.795 50.3754 307.096C47.8635 309.684 45.0249 311.934 41.9315 313.787ZM30.1778 301.379C32.0373 302.549 33.7191 303.826 35.4662 304.976C36.3218 305.55 37.2147 306.065 38.139 306.52C39.0458 307.018 40.0942 307.195 41.1144 307.023C40.6369 307.348 40.0889 307.554 39.5158 307.625C38.9427 307.695 38.361 307.628 37.8189 307.429C36.743 307.109 35.721 306.63 34.7869 306.008C32.9508 304.796 31.3823 303.22 30.1778 301.379ZM27.9375 312.545C30.3414 314.204 32.6273 315.915 35.0743 317.309C36.2646 318.024 37.5374 318.591 38.8647 318.999C40.194 319.439 41.6382 319.379 42.9266 318.83C42.3533 319.336 41.6695 319.7 40.93 319.893C40.1904 320.087 39.4159 320.104 38.6685 319.943C37.1828 319.684 35.7571 319.155 34.4618 318.382C33.1874 317.639 31.9923 316.768 30.8949 315.782C29.7904 314.818 28.7984 313.732 27.9375 312.545ZM44.4466 324.877C46.1262 324.026 47.7637 323.135 49.3964 322.255C51.0167 321.352 52.6285 320.447 54.1771 319.447C55.7305 318.462 57.2311 317.396 58.6726 316.254C60.1071 315.079 61.4415 313.787 62.6621 312.392C61.811 314.095 60.6801 315.643 59.3165 316.972C57.9447 318.29 56.445 319.469 54.8397 320.49C51.6453 322.524 48.1321 324.007 44.4466 324.877ZM33.0796 328.158C34.1594 328.709 35.2138 329.23 36.2734 329.709C37.314 330.191 38.3911 330.59 39.4946 330.902C40.5722 331.212 41.6865 331.375 42.8076 331.389C43.9618 331.333 45.0993 331.09 46.1758 330.67C45.2778 331.546 44.1368 332.131 42.9016 332.349C41.6509 332.525 40.3772 332.437 39.1624 332.092C37.9747 331.751 36.8456 331.232 35.8136 330.553C34.7804 329.905 33.8574 329.097 33.0796 328.158ZM63.2627 324.914C62.29 328.215 60.363 331.155 57.7238 333.364C57.0605 333.916 56.361 334.423 55.6301 334.882C55.2602 335.103 54.8668 335.287 54.4874 335.49C54.1117 335.702 53.7159 335.876 53.3058 336.009C51.7145 336.639 50.0193 336.964 48.3082 336.968C49.8951 336.5 51.435 335.885 52.9077 335.131C54.3501 334.39 55.6993 333.48 56.927 332.42C58.1714 331.369 59.3194 330.208 60.3574 328.953C61.4151 327.673 62.3857 326.324 63.2627 324.914ZM42.6281 341.226C44.107 341.58 45.4065 342.086 46.7301 342.517C48.0564 342.988 49.4188 343.35 50.8039 343.6C50.1156 343.952 49.3481 344.122 48.5754 344.092C47.8136 344.067 47.0595 343.931 46.337 343.688C45.6269 343.445 44.9489 343.116 44.3178 342.71C43.6751 342.314 43.1039 341.812 42.6281 341.226ZM60.6571 339.983C60.3382 340.909 59.9049 341.791 59.3671 342.61C58.8432 343.434 58.2438 344.208 57.5766 344.921C56.9045 345.649 56.1399 346.286 55.3025 346.815C54.4721 347.391 53.4897 347.71 52.479 347.729C53.2955 347.266 54.0494 346.699 54.7223 346.045C55.3933 345.415 56.0499 344.763 56.6781 344.073C57.9715 342.726 59.1998 341.306 60.6571 339.983Z" fill="#CBCBCB"/>
<path d="M54.8305 393.897C54.8305 393.897 18.2509 395.213 3.89953 378.281C-6.75048 365.716 6.13691 346.887 21.8257 351.903C32.3291 355.261 44.6955 365.972 54.8305 393.897Z" fill="#2A94F4"/>
<path d="M54.8305 393.897C49.8566 391.965 44.9855 389.778 40.2368 387.344C35.4786 384.924 30.844 382.257 26.3331 379.384C24.0946 377.921 21.9078 376.38 19.7729 374.761C17.6187 373.164 15.5629 371.44 13.6168 369.595C11.6577 367.758 9.85195 365.764 8.21758 363.632C6.5906 361.492 5.35152 359.084 4.55664 356.516C5.56408 358.972 6.96156 361.249 8.69511 363.259C10.3957 365.283 12.256 367.167 14.2582 368.894C18.2593 372.367 22.5209 375.528 27.0055 378.349C31.4238 381.285 36.0395 383.92 40.6803 386.508C43.0015 387.803 45.3455 389.058 47.7123 390.273C50.0602 391.527 52.4442 392.709 54.8305 393.897Z" fill="#CBCBCB"/>
<path d="M17.2458 372.094C17.4192 368.497 17.7469 364.964 17.9148 361.432C17.9966 359.668 18.0249 357.909 17.9619 356.156C17.9133 355.285 17.8143 354.418 17.6655 353.558C17.5899 353.128 17.4841 352.704 17.3488 352.289C17.1845 351.878 16.9983 351.476 16.791 351.084C18.0128 352.473 18.7591 354.215 18.9214 356.057C19.1607 357.857 19.2368 359.676 19.1488 361.489C18.978 365.092 18.3383 368.657 17.2458 372.094ZM0.222656 370.569C2.39079 370.215 4.4966 370.06 6.56786 369.766C7.58872 369.63 8.59935 369.425 9.59299 369.154C10.6025 368.928 11.506 368.367 12.1572 367.563C12.014 368.122 11.7395 368.64 11.3566 369.072C10.9737 369.504 10.4933 369.839 9.95518 370.048C8.93675 370.52 7.85345 370.837 6.74123 370.989C4.56246 371.295 2.34409 371.152 0.222656 370.569ZM5.93175 380.422C8.83188 380.076 11.6776 379.845 14.4351 379.272C15.8006 379.02 17.1303 378.603 18.395 378.03C19.683 377.481 20.7261 376.48 21.329 375.216C21.2338 375.975 20.962 376.7 20.5354 377.334C20.1089 377.969 19.5395 378.494 18.8729 378.868C17.5873 379.657 16.1682 380.204 14.6858 380.481C13.2387 380.768 11.7662 380.905 10.2911 380.892C8.82494 380.9 7.36256 380.743 5.93175 380.422ZM26.4699 378.744C27.1659 376.994 27.8039 375.243 28.4458 373.502C29.0629 371.753 29.6723 370.008 30.172 368.234C30.685 366.467 31.1047 364.675 31.4295 362.865C31.7276 361.035 31.8732 359.183 31.8647 357.329C32.3537 359.169 32.5304 361.078 32.3874 362.977C32.2312 364.873 31.8866 366.749 31.3587 368.577C30.3096 372.216 28.6571 375.652 26.4699 378.744ZM20.1187 388.726C21.2931 388.424 22.428 388.117 23.5397 387.775C24.6388 387.448 25.7102 387.034 26.7441 386.538C27.7568 386.057 28.7007 385.442 29.5504 384.711C30.3785 383.905 31.0705 382.97 31.5996 381.942C31.5059 383.193 31.0377 384.387 30.2561 385.368C29.4347 386.328 28.4217 387.105 27.2823 387.65C26.1664 388.18 24.9765 388.538 23.7532 388.712C22.5502 388.91 21.3232 388.915 20.1187 388.726ZM40.6013 366.32C42.0567 369.439 42.5575 372.918 42.0407 376.321C41.9085 377.174 41.7195 378.017 41.4748 378.844C41.3445 379.255 41.1708 379.653 41.0208 380.056C40.8793 380.464 40.6977 380.856 40.4787 381.228C39.7021 382.752 38.6462 384.118 37.3658 385.253C38.2459 383.852 38.9935 382.372 39.5988 380.832C40.1899 379.322 40.5993 377.747 40.8187 376.141C41.0558 374.529 41.1485 372.899 41.0958 371.271C41.0419 369.611 40.8767 367.957 40.6013 366.32ZM35.9249 392.204C37.2682 391.491 38.5771 391.01 39.855 390.458C41.161 389.933 42.4221 389.303 43.6258 388.574C43.3428 389.294 42.8794 389.928 42.2802 390.417C41.6928 390.903 41.0375 391.3 40.3353 391.596C39.6417 391.883 38.9159 392.086 38.1737 392.199C37.4297 392.327 36.6695 392.329 35.9249 392.204ZM48.6193 379.342C48.993 380.247 49.2521 381.195 49.3905 382.165C49.5432 383.13 49.6058 384.106 49.5777 385.083C49.5553 386.073 49.4035 387.056 49.126 388.008C48.885 388.989 48.3589 389.878 47.6141 390.561C47.9195 389.674 48.11 388.75 48.1811 387.814C48.2676 386.898 48.3288 385.975 48.3431 385.042C48.4212 383.176 48.4024 381.298 48.6193 379.342Z" fill="#CBCBCB"/>
<path d="M56.9902 357.646C56.9902 357.646 93.4975 360.294 108.457 343.898C119.558 331.73 107.367 312.443 91.5052 316.883C80.8864 319.855 68.1373 330.108 56.9902 357.646Z" fill="#0B4870"/>
<path d="M56.9902 357.646C59.446 356.614 61.8715 355.515 64.2794 354.382C66.6959 353.268 69.0941 352.117 71.4741 350.929C76.226 348.543 80.9383 346.072 85.4767 343.311C90.0666 340.643 94.4402 337.619 98.5573 334.268C100.614 332.596 102.533 330.761 104.295 328.781C106.092 326.819 107.545 324.568 108.594 322.124C107.658 324.634 106.305 326.97 104.594 329.032C102.872 331.083 100.986 332.99 98.9537 334.735C96.9343 336.489 94.8158 338.125 92.6088 339.636C90.4182 341.166 88.1771 342.619 85.8854 343.994C81.2887 346.712 76.5736 349.207 71.7399 351.478C66.9137 353.747 61.9991 355.827 56.9902 357.646Z" fill="#CBCBCB"/>
<path d="M95.3462 337.228C94.9324 335.482 94.6232 333.714 94.4202 331.932C94.2043 330.151 94.1107 328.357 94.0514 326.559C94.0425 324.754 94.1695 322.951 94.4312 321.165C94.6287 319.348 95.3736 317.633 96.5672 316.249C96.3258 316.621 96.1077 317.007 95.9141 317.406C95.7472 317.812 95.609 318.23 95.5007 318.656C95.4099 319.088 95.2798 319.505 95.2152 319.941L95.0377 321.25C94.8734 323.012 94.8096 324.782 94.8467 326.551C94.8391 328.326 94.9435 330.1 95.0277 331.879L95.3462 337.228ZM112.414 336.325C110.263 336.674 108.07 336.662 105.923 336.291C104.834 336.103 103.775 335.767 102.777 335.293C102.256 335.081 101.79 334.755 101.412 334.338C101.035 333.921 100.756 333.425 100.597 332.886C101.157 333.775 102.023 334.429 103.031 334.726C104.018 335.07 105.033 335.331 106.063 335.507C108.144 335.872 110.262 336.067 112.414 336.325ZM106.349 345.964C103.444 346.315 100.5 346.155 97.6509 345.49C96.2007 345.164 94.8178 344.59 93.5634 343.792C92.9183 343.412 92.3668 342.892 91.9495 342.27C91.5322 341.648 91.2596 340.94 91.1519 340.199C91.6369 341.535 92.6177 342.633 93.8908 343.264C95.1369 343.922 96.4653 344.411 97.8407 344.717C100.644 345.334 103.487 345.751 106.349 345.964ZM85.8856 343.537C84.9112 341.93 84.0689 340.246 83.367 338.502C82.6588 336.757 82.0634 334.967 81.5844 333.145C81.1391 331.308 80.8508 329.436 80.7227 327.551C80.6212 325.663 80.8076 323.771 81.2757 321.94C80.9955 325.645 81.361 329.371 82.356 332.952C82.7729 334.758 83.3521 336.524 83.9378 338.288C84.5344 340.05 85.1837 341.8 85.8856 343.537ZM91.8684 353.744C90.664 353.8 89.4574 353.695 88.2808 353.432C87.0867 353.187 85.9326 352.776 84.8517 352.213C83.7555 351.639 82.7831 350.856 81.99 349.906C81.2429 348.93 80.777 347.768 80.6427 346.546C81.0594 347.635 81.6756 348.637 82.4598 349.5C83.2766 350.303 84.2083 350.98 85.2244 351.51C86.2533 352.049 87.3299 352.493 88.4404 352.834C89.5575 353.181 90.6961 353.501 91.8684 353.744ZM72.2169 330.606C71.7976 332.215 71.5136 333.857 71.3679 335.514C71.2124 337.152 71.2308 338.802 71.4228 340.436C71.5726 342.07 71.9438 343.677 72.5262 345.211C73.1061 346.766 73.855 348.253 74.7595 349.644C73.5942 348.412 72.6471 346.991 71.9587 345.442C71.2652 343.881 70.8178 342.221 70.6322 340.523C70.4634 338.83 70.5072 337.122 70.7628 335.439C71.0137 333.767 71.5034 332.139 72.2169 330.606ZM75.9458 356.643C74.4614 356.639 72.9962 356.308 71.6533 355.676C70.2562 355.102 69.1005 354.063 68.3825 352.735C69.4767 353.637 70.6905 354.384 71.9893 354.954C73.2673 355.554 74.5928 356.052 75.9458 356.643ZM63.7292 343.326C63.7026 345.26 63.5753 347.148 63.5775 349.032C63.5614 349.968 63.5986 350.905 63.6887 351.837C63.7542 352.778 63.9687 353.702 64.3243 354.575C63.6833 353.822 63.2526 352.913 63.0758 351.939C62.8659 350.984 62.7672 350.007 62.7817 349.029C62.7843 347.089 63.1044 345.163 63.7292 343.326Z" fill="#CBCBCB"/>
<path d="M55.6025 393.482C55.6025 393.482 92.1098 396.131 107.069 379.734C118.171 367.566 105.979 348.279 90.1175 352.719C79.4987 355.692 66.7497 365.945 55.6025 393.482Z" fill="#0E538C"/>
<path d="M55.6025 393.482C58.0306 392.381 60.4563 391.287 62.8483 390.119C65.255 388.986 67.6432 387.818 70.013 386.614C74.7451 384.197 79.4538 381.732 83.9763 378.959C88.5609 376.303 92.935 373.299 97.0601 369.975C99.124 368.323 101.052 366.508 102.825 364.547C104.631 362.602 106.11 360.377 107.207 357.959C106.319 360.497 104.993 362.858 103.289 364.937C101.578 367.008 99.7003 368.935 97.6755 370.7C95.6634 372.471 93.5461 374.12 91.3351 375.637C89.1439 377.175 86.9024 378.636 84.6106 380.018C79.9979 382.724 75.2691 385.221 70.4257 387.465C65.5913 389.724 60.6437 391.732 55.6025 393.482Z" fill="#CBCBCB"/>
<path d="M93.9573 373.064C92.991 369.589 92.4818 366.003 92.4426 362.397C92.4207 360.581 92.5631 358.767 92.868 356.977C93.0973 355.142 93.9068 353.428 95.1783 352.085C94.9569 352.468 94.7561 352.864 94.5769 353.268C94.4266 353.678 94.3054 354.098 94.2143 354.525C94.0342 355.379 93.9036 356.242 93.8231 357.111C93.6963 358.859 93.6603 360.619 93.6777 362.384C93.7167 365.921 93.9152 369.463 93.9573 373.064ZM111.025 372.161C108.883 372.666 106.661 372.728 104.495 372.343C103.389 372.151 102.318 371.795 101.318 371.286C100.788 371.057 100.32 370.705 99.9528 370.259C99.5859 369.813 99.3306 369.286 99.2079 368.722C99.8292 369.549 100.712 370.142 101.712 370.406C102.695 370.713 103.698 370.954 104.713 371.127C106.772 371.496 108.871 371.728 111.025 372.161ZM104.96 381.8C103.518 382.067 102.051 382.172 100.586 382.11C99.1118 382.069 97.6453 381.878 96.2096 381.539C94.7383 381.207 93.3401 380.609 92.0841 379.774C91.4317 379.376 90.8818 378.83 90.4787 378.181C90.0755 377.531 89.8304 376.796 89.763 376.035C90.3193 377.32 91.3252 378.358 92.5923 378.954C93.8352 379.573 95.1489 380.038 96.5042 380.339C99.239 381.013 102.074 381.347 104.96 381.8ZM84.4967 379.373C82.4238 376.204 80.8977 372.709 79.9822 369.034C79.5213 367.188 79.2453 365.301 79.1584 363.401C79.0848 361.498 79.331 359.597 79.8868 357.776C79.8107 359.628 79.8886 361.484 80.1198 363.323C80.3783 365.144 80.7324 366.951 81.1805 368.735C81.6152 370.526 82.1606 372.292 82.7134 374.063C83.2913 375.825 83.8651 377.599 84.4967 379.373ZM90.4795 389.58C89.2689 389.725 88.0429 389.675 86.8479 389.433C85.6318 389.215 84.4557 388.814 83.3599 388.243C82.2411 387.657 81.2572 386.843 80.4714 385.854C79.726 384.846 79.3017 383.636 79.2538 382.382C79.745 383.428 80.4025 384.387 81.2005 385.223C82.023 385.985 82.9438 386.634 83.9384 387.151C84.9534 387.685 86.0091 388.138 87.0954 388.505C88.194 388.887 89.3168 389.236 90.4795 389.58ZM70.828 366.442C70.4931 368.068 70.2676 369.715 70.1532 371.371C70.0411 372.996 70.0743 374.628 70.2525 376.248C70.413 377.861 70.7648 379.45 71.3004 380.981C71.8491 382.542 72.5422 384.048 73.3706 385.48C72.1325 384.299 71.1271 382.896 70.4066 381.344C70.2013 380.965 70.0341 380.566 69.9076 380.153C69.7724 379.745 69.6135 379.341 69.4981 378.925C69.2837 378.09 69.1256 377.24 69.0247 376.384C68.6323 372.964 69.2597 369.505 70.828 366.442ZM74.5569 392.479C73.8082 392.577 73.0486 392.547 72.3098 392.392C71.5723 392.252 70.8543 392.023 70.1717 391.711C69.4807 391.389 68.8404 390.968 68.271 390.462C67.69 389.951 67.2501 389.3 66.9936 388.57C68.1699 389.343 69.4071 390.019 70.6931 390.591C71.9501 391.189 73.2405 391.718 74.5569 392.479ZM62.3403 379.162C62.4856 381.125 62.3983 383.001 62.4083 384.869C62.3886 385.801 62.416 386.726 62.469 387.645C62.5059 388.583 62.6626 389.513 62.9354 390.411C62.216 389.701 61.7228 388.794 61.5177 387.804C61.2751 386.843 61.1592 385.855 61.173 384.864C61.1805 383.888 61.2788 382.914 61.4665 381.955C61.6402 380.992 61.9337 380.053 62.3403 379.162Z" fill="#CBCBCB"/>
<path d="M67.8018 328.578C67.8018 328.578 57.6799 293.402 70.6386 275.382C80.2551 262.01 101.642 269.962 100.569 286.398C99.8506 297.401 92.4477 311.991 67.8018 328.578Z" fill="#0E538C"/>
<path d="M67.8018 328.578C68.4737 323.285 69.4182 318.029 70.6314 312.833C71.8289 307.631 73.2961 302.489 74.993 297.417C75.8711 294.891 76.8377 292.397 77.893 289.933C78.9209 287.457 80.0974 285.045 81.4162 282.711C82.7254 280.366 84.2239 278.131 85.8968 276.03C87.5796 273.934 89.617 272.149 91.9164 270.757C89.7771 272.328 87.9056 274.235 86.3742 276.403C84.8216 278.543 83.4432 280.803 82.2524 283.164C79.8499 287.886 77.8132 292.785 76.1602 297.819C74.3797 302.816 72.9388 307.932 71.5499 313.061C70.8552 315.626 70.2043 318.204 69.5973 320.795C68.9484 323.376 68.3778 325.975 67.8018 328.578Z" fill="#CBCBCB"/>
<path d="M79.8703 286.837C83.4026 286.135 86.9093 285.599 90.3776 284.908C92.109 284.561 93.8228 284.163 95.508 283.678C96.3414 283.42 97.1591 283.114 97.9572 282.762C98.3561 282.585 98.742 282.379 99.112 282.148C99.4713 281.889 99.8164 281.611 100.146 281.315C99.0943 282.836 97.5843 283.982 95.836 284.585C94.1471 285.252 92.4013 285.766 90.62 286.119C87.0832 286.824 83.4695 287.066 79.8703 286.837ZM77.2335 269.95C78.1009 271.968 78.761 273.974 79.5468 275.913C79.9259 276.871 80.3686 277.802 80.8718 278.7C81.3358 279.625 82.0983 280.366 83.036 280.804C82.4585 280.8 81.8903 280.659 81.3783 280.392C80.8663 280.125 80.4254 279.739 80.0919 279.268C79.3877 278.394 78.818 277.419 78.402 276.377C77.5781 274.337 77.1805 272.15 77.2335 269.95ZM69.0527 277.873C70.0906 280.603 71.0021 283.308 72.2257 285.845C72.8 287.11 73.526 288.299 74.3878 289.388C75.2326 290.504 76.4558 291.275 77.8279 291.554C77.069 291.645 76.2993 291.557 75.5807 291.296C74.8621 291.036 74.2146 290.61 73.6903 290.054C72.6142 288.997 71.7406 287.752 71.1126 286.381C70.4848 285.046 69.9951 283.651 69.6509 282.216C69.2887 280.795 69.088 279.338 69.0527 277.873ZM75.6481 297.395C77.5142 297.648 79.368 297.843 81.2118 298.045C83.0585 298.221 84.8993 298.39 86.7415 298.446C88.5795 298.517 90.4199 298.49 92.2551 298.368C94.1029 298.215 95.9347 297.908 97.7318 297.452C96.0645 298.371 94.2547 299.004 92.3779 299.325C90.5002 299.631 88.5967 299.751 86.6955 299.68C82.9111 299.542 79.1767 298.77 75.6481 297.395ZM64.4268 293.646C65.003 294.713 65.576 295.74 66.1764 296.736C66.7598 297.723 67.4204 298.663 68.1518 299.546C68.8636 300.413 69.6881 301.18 70.6034 301.827C71.5857 302.436 72.6601 302.881 73.7848 303.146C72.5484 303.358 71.2769 303.192 70.1359 302.671C69.0063 302.106 68.0073 301.311 67.2031 300.337C66.4186 299.383 65.7834 298.315 65.319 297.17C64.8358 296.05 64.5345 294.861 64.4268 293.646ZM91.1204 308.103C88.4461 310.269 85.191 311.597 81.7643 311.918C80.905 311.996 80.0414 312.016 79.1794 311.979C78.7491 311.952 78.321 311.88 77.8933 311.832C77.4638 311.793 77.0391 311.712 76.6256 311.589C74.9583 311.204 73.378 310.51 71.9669 309.542C73.5391 310.057 75.156 310.425 76.7964 310.64C78.4046 310.848 80.0318 310.864 81.6439 310.689C83.2652 310.529 84.869 310.225 86.4363 309.78C88.0334 309.326 89.5983 308.766 91.1204 308.103ZM64.8736 309.825C65.8903 310.956 66.6733 312.109 67.5182 313.216C68.3431 314.356 69.2595 315.428 70.2583 316.419C69.4915 316.319 68.7636 316.022 68.1444 315.559C67.5311 315.107 66.9873 314.567 66.5301 313.957C66.0836 313.354 65.7118 312.698 65.4228 312.005C65.1185 311.315 64.9328 310.577 64.8736 309.825ZM80.4241 319.032C79.6361 319.613 78.7785 320.094 77.8712 320.463C76.972 320.844 76.0394 321.141 75.0852 321.35C74.1188 321.568 73.1279 321.658 72.138 321.619C71.127 321.623 70.1377 321.327 69.2943 320.77C70.2297 320.851 71.1717 320.813 72.0974 320.656C73.0072 320.518 73.9176 320.354 74.8265 320.142C76.6561 319.767 78.4733 319.295 80.4241 319.032Z" fill="#CBCBCB"/>
<path d="M31.086 397.546V404.154C31.0801 404.761 31.3157 405.346 31.7409 405.78C32.1661 406.214 32.7461 406.461 33.3534 406.467H78.7798C79.3871 406.461 79.9671 406.214 80.3923 405.78C80.8174 405.346 81.053 404.761 81.0471 404.154V398.064C81.0529 397.462 80.8207 396.881 80.401 396.448C79.9813 396.015 79.4079 395.765 78.8051 395.752L33.3787 395.234C33.0759 395.233 32.7759 395.293 32.4963 395.409C32.2167 395.526 31.9629 395.696 31.7497 395.911C31.5364 396.126 31.368 396.382 31.2541 396.662C31.1402 396.943 31.083 397.243 31.086 397.546Z" fill="#D6694B"/>
<path d="M33.2539 406.468L34.8694 440.573H76.1938L78.8784 406.468H33.2539Z" fill="#E19974"/>
<path d="M618 438.1H0V440.572H618V438.1Z" fill="#935B50"/>
<path d="M108.608 129.891H83.6813C83.3535 129.891 83.0391 129.761 82.8073 129.529C82.5755 129.297 82.4453 128.983 82.4453 128.655V97.1667C82.4453 96.8389 82.5755 96.5245 82.8073 96.2927C83.0391 96.0609 83.3535 95.9307 83.6813 95.9307H118.236C118.564 95.9307 118.879 96.0609 119.11 96.2927C119.342 96.5245 119.472 96.8389 119.472 97.1667V120.078L108.608 129.891Z" fill="#FFA62B" fill-opacity="0.29"/>
<path d="M119.473 120.116H108.608V129.892L119.473 120.116Z" fill="#E6C495"/>
<path d="M105.889 92.7507H94.7897C94.1071 92.7507 93.5537 93.3041 93.5537 93.9867V98.1891C93.5537 98.8718 94.1071 99.4251 94.7897 99.4251H105.889C106.572 99.4251 107.125 98.8718 107.125 98.1891V93.9867C107.125 93.3041 106.572 92.7507 105.889 92.7507Z" fill="#E6C495"/>
<path d="M109.598 107.484H92.2441V108.72H109.598V107.484Z" fill="#E6C495"/>
<path d="M109.598 114.9H92.2441V116.136H109.598V114.9Z" fill="#E6C495"/>
<path d="M209.984 91.5409H181.881C181.511 91.5409 181.157 91.394 180.895 91.1327C180.634 90.8714 180.487 90.517 180.487 90.1474V54.6471C180.487 54.2776 180.634 53.9231 180.895 53.6618C181.157 53.4005 181.511 53.2537 181.881 53.2537H220.839C221.208 53.2537 221.563 53.4005 221.824 53.6618C222.085 53.9231 222.232 54.2776 222.232 54.6471V80.4772L209.984 91.5409Z" fill="#2A94F4" fill-opacity="0.31"/>
<path d="M222.232 80.5203H209.983V91.5404L222.232 80.5203Z" fill="#6BA6DD"/>
<path d="M206.918 49.6687H194.404C193.634 49.6687 193.011 50.2924 193.011 51.0617V55.8005C193.011 56.5698 193.634 57.1935 194.404 57.1935H206.918C207.688 57.1935 208.311 56.5698 208.311 55.8005V51.0617C208.311 50.2924 207.688 49.6687 206.918 49.6687Z" fill="#6BA6DD"/>
<path d="M211.1 66.2783H191.535V67.6713H211.1V66.2783Z" fill="#6BA6DD"/>
<path d="M211.1 74.6396H191.535V76.0326H211.1V74.6396Z" fill="#6BA6DD"/>
<path d="M431.481 247.988H403.378C403.008 247.988 402.654 247.841 402.393 247.58C402.131 247.318 401.984 246.964 401.984 246.594V211.094C401.984 210.725 402.131 210.37 402.393 210.109C402.654 209.848 403.008 209.701 403.378 209.701H442.336C442.705 209.701 443.06 209.848 443.321 210.109C443.582 210.37 443.729 210.725 443.729 211.094V236.924L431.481 247.988Z" fill="#6BA6DD" fill-opacity="0.58"/>
<path d="M443.729 236.967H431.48V247.987L443.729 236.967Z" fill="#536F86"/>
<path d="M428.414 206.115H415.9C415.131 206.115 414.507 206.739 414.507 207.508V212.247C414.507 213.017 415.131 213.64 415.9 213.64H428.414C429.184 213.64 429.807 213.017 429.807 212.247V207.508C429.807 206.739 429.184 206.115 428.414 206.115Z" fill="#536F86"/>
<path d="M432.596 222.726H413.031V224.119H432.596V222.726Z" fill="#536F86"/>
<path d="M432.596 231.086H413.031V232.479H432.596V231.086Z" fill="#536F86"/>
<path d="M319.764 229.105H312.622C312.348 229.105 312.076 229.051 311.822 228.946C311.569 228.841 311.338 228.687 311.144 228.493C310.95 228.298 310.796 228.068 310.691 227.814C310.586 227.561 310.532 227.289 310.532 227.014C310.532 226.74 310.586 226.468 310.691 226.214C310.796 225.961 310.95 225.73 311.144 225.536C311.338 225.342 311.569 225.188 311.822 225.083C312.076 224.978 312.348 224.924 312.622 224.924H317.674V220.222C317.674 219.667 317.894 219.135 318.286 218.743C318.678 218.351 319.21 218.131 319.764 218.131C320.319 218.131 320.851 218.351 321.243 218.743C321.635 219.135 321.855 219.667 321.855 220.222V227.014C321.855 227.569 321.635 228.1 321.242 228.492C320.85 228.884 320.319 229.105 319.764 229.105ZM298.687 229.105H284.753C284.479 229.105 284.207 229.051 283.953 228.946C283.7 228.841 283.469 228.687 283.275 228.493C283.081 228.298 282.927 228.068 282.822 227.814C282.717 227.561 282.663 227.289 282.663 227.014C282.663 226.74 282.717 226.468 282.822 226.214C282.927 225.961 283.081 225.73 283.275 225.536C283.469 225.342 283.7 225.188 283.953 225.083C284.207 224.978 284.479 224.924 284.753 224.924H298.687C299.242 224.924 299.774 225.144 300.166 225.536C300.558 225.928 300.778 226.46 300.778 227.014C300.778 227.569 300.558 228.1 300.166 228.493C299.774 228.885 299.242 229.105 298.687 229.105ZM270.818 229.105H256.883C256.608 229.105 256.337 229.051 256.083 228.946C255.829 228.841 255.599 228.687 255.405 228.493C255.211 228.298 255.057 228.068 254.952 227.814C254.846 227.561 254.792 227.289 254.792 227.014C254.792 226.74 254.846 226.468 254.952 226.214C255.057 225.961 255.211 225.73 255.405 225.536C255.599 225.342 255.829 225.188 256.083 225.083C256.337 224.978 256.608 224.924 256.883 224.924H270.818C271.093 224.924 271.365 224.978 271.618 225.083C271.872 225.188 272.102 225.342 272.296 225.536C272.491 225.73 272.645 225.961 272.75 226.214C272.855 226.468 272.909 226.74 272.909 227.014C272.909 227.289 272.855 227.561 272.75 227.814C272.645 228.068 272.491 228.298 272.296 228.493C272.102 228.687 271.872 228.841 271.618 228.946C271.365 229.051 271.093 229.105 270.818 229.105H270.818ZM242.949 229.105H229.014C228.739 229.105 228.467 229.051 228.214 228.946C227.96 228.841 227.73 228.687 227.536 228.493C227.341 228.298 227.187 228.068 227.082 227.814C226.977 227.561 226.923 227.289 226.923 227.014C226.923 226.74 226.977 226.468 227.082 226.214C227.187 225.961 227.341 225.73 227.536 225.536C227.73 225.342 227.96 225.188 228.214 225.083C228.467 224.978 228.739 224.924 229.014 224.924H242.949C243.224 224.924 243.495 224.978 243.749 225.083C244.003 225.188 244.233 225.342 244.427 225.536C244.621 225.73 244.775 225.961 244.88 226.214C244.986 226.468 245.04 226.74 245.04 227.014C245.04 227.289 244.986 227.561 244.88 227.814C244.775 228.068 244.621 228.298 244.427 228.493C244.233 228.687 244.003 228.841 243.749 228.946C243.495 229.051 243.224 229.105 242.949 229.105ZM215.079 229.105H201.145C200.59 229.105 200.059 228.885 199.666 228.493C199.274 228.1 199.054 227.569 199.054 227.014C199.054 226.46 199.274 225.928 199.666 225.536C200.059 225.144 200.59 224.924 201.145 224.924H215.079C215.353 224.924 215.625 224.978 215.879 225.083C216.132 225.188 216.363 225.342 216.557 225.536C216.751 225.73 216.905 225.961 217.01 226.214C217.115 226.468 217.169 226.74 217.169 227.014C217.169 227.289 217.115 227.561 217.01 227.814C216.905 228.068 216.751 228.298 216.557 228.493C216.363 228.687 216.132 228.841 215.879 228.946C215.625 229.051 215.353 229.105 215.079 229.105ZM200.662 215.652C200.108 215.652 199.576 215.432 199.184 215.04C198.792 214.648 198.571 214.116 198.571 213.562V199.627C198.573 199.073 198.793 198.543 199.185 198.152C199.577 197.761 200.108 197.541 200.662 197.541C201.215 197.541 201.746 197.761 202.138 198.152C202.53 198.543 202.751 199.073 202.752 199.627V213.562C202.752 214.116 202.532 214.648 202.14 215.04C201.748 215.432 201.216 215.652 200.662 215.652ZM319.764 208.377C319.21 208.377 318.678 208.157 318.286 207.765C317.894 207.373 317.674 206.841 317.674 206.287V192.352C317.674 191.797 317.894 191.266 318.286 190.874C318.678 190.482 319.21 190.261 319.764 190.261C320.319 190.261 320.851 190.482 321.243 190.874C321.635 191.266 321.855 191.797 321.855 192.352V206.287C321.855 206.841 321.635 207.373 321.243 207.765C320.851 208.157 320.319 208.377 319.764 208.377ZM422.856 199.086C422.301 199.086 421.77 198.866 421.378 198.474C420.986 198.082 420.765 197.55 420.765 196.996V192.655C420.767 192.102 420.987 191.571 421.379 191.18C421.771 190.79 422.302 190.57 422.856 190.57C423.409 190.57 423.94 190.79 424.332 191.18C424.724 191.571 424.945 192.102 424.946 192.655V196.996C424.946 197.55 424.726 198.082 424.334 198.474C423.942 198.866 423.41 199.086 422.856 199.086ZM200.662 187.782C200.108 187.782 199.576 187.562 199.184 187.17C198.792 186.778 198.571 186.246 198.571 185.692V171.758C198.573 171.204 198.793 170.674 199.185 170.283C199.577 169.892 200.108 169.672 200.662 169.672C201.215 169.672 201.746 169.892 202.138 170.283C202.53 170.674 202.751 171.204 202.752 171.758V185.692C202.752 186.246 202.532 186.778 202.14 187.17C201.748 187.562 201.216 187.782 200.662 187.782ZM422.856 180.811C422.301 180.811 421.77 180.591 421.378 180.199C420.986 179.807 420.765 179.275 420.765 178.721V164.786C420.767 164.232 420.987 163.702 421.379 163.311C421.771 162.92 422.302 162.7 422.856 162.7C423.409 162.7 423.94 162.92 424.332 163.311C424.724 163.702 424.945 164.232 424.946 164.786V178.721C424.946 179.275 424.726 179.807 424.334 180.199C423.942 180.591 423.41 180.811 422.856 180.811ZM319.764 180.507C319.21 180.507 318.678 180.287 318.286 179.895C317.894 179.503 317.674 178.972 317.674 178.417V164.483C317.674 163.928 317.894 163.397 318.286 163.005C318.678 162.612 319.21 162.392 319.764 162.392C320.319 162.392 320.851 162.612 321.243 163.005C321.635 163.397 321.855 163.928 321.855 164.483V178.417C321.855 178.972 321.635 179.503 321.243 179.895C320.851 180.287 320.319 180.507 319.764 180.507ZM200.662 159.912C200.108 159.912 199.576 159.692 199.184 159.3C198.792 158.908 198.571 158.377 198.571 157.822V157.267C198.571 156.713 198.792 156.181 199.184 155.789C199.576 155.397 200.108 155.177 200.662 155.177H214.041C214.595 155.177 215.127 155.397 215.518 155.789C215.91 156.181 216.131 156.713 216.131 157.267C216.131 157.821 215.91 158.353 215.518 158.745C215.127 159.137 214.595 159.357 214.041 159.357H202.08C201.695 159.715 201.188 159.913 200.662 159.912V159.912ZM262.901 159.357H255.845C255.291 159.357 254.759 159.137 254.367 158.745C253.975 158.353 253.755 157.821 253.755 157.267C253.755 156.713 253.975 156.181 254.367 155.789C254.759 155.397 255.291 155.177 255.845 155.177H260.811V150.388C260.811 149.834 261.031 149.302 261.423 148.91C261.815 148.518 262.347 148.298 262.901 148.298C263.456 148.298 263.987 148.518 264.379 148.91C264.772 149.302 264.992 149.834 264.992 150.388V157.267C264.992 157.821 264.771 158.353 264.379 158.745C263.987 159.137 263.456 159.357 262.901 159.357V159.357ZM241.911 159.357H227.976C227.421 159.357 226.89 159.137 226.498 158.745C226.106 158.353 225.886 157.821 225.886 157.267C225.886 156.713 226.106 156.181 226.498 155.789C226.89 155.397 227.421 155.177 227.976 155.177H241.911C242.465 155.177 242.997 155.397 243.389 155.789C243.781 156.181 244.001 156.713 244.001 157.267C244.001 157.821 243.781 158.353 243.389 158.745C242.997 159.137 242.465 159.357 241.911 159.357ZM420.233 155.563H406.299C406.024 155.564 405.752 155.511 405.498 155.406C405.243 155.301 405.012 155.147 404.818 154.953C404.623 154.759 404.469 154.528 404.364 154.274C404.258 154.021 404.204 153.748 404.204 153.473C404.204 153.199 404.258 152.926 404.364 152.672C404.469 152.419 404.623 152.188 404.818 151.994C405.012 151.8 405.243 151.646 405.498 151.541C405.752 151.436 406.024 151.383 406.299 151.383H420.233C420.508 151.383 420.78 151.436 421.034 151.541C421.288 151.646 421.519 151.8 421.714 151.994C421.909 152.188 422.063 152.419 422.168 152.672C422.274 152.926 422.328 153.199 422.328 153.473C422.328 153.748 422.274 154.021 422.168 154.274C422.063 154.528 421.909 154.759 421.714 154.953C421.519 155.147 421.288 155.301 421.034 155.406C420.78 155.511 420.508 155.564 420.233 155.563ZM392.364 155.563H378.429C378.154 155.564 377.881 155.511 377.627 155.406C377.373 155.301 377.142 155.147 376.948 154.953C376.753 154.759 376.598 154.528 376.493 154.274C376.388 154.021 376.334 153.748 376.334 153.473C376.334 153.199 376.388 152.926 376.493 152.672C376.598 152.419 376.753 152.188 376.948 151.994C377.142 151.8 377.373 151.646 377.627 151.541C377.881 151.436 378.154 151.383 378.429 151.383H392.364C392.639 151.383 392.911 151.436 393.165 151.541C393.419 151.646 393.65 151.8 393.845 151.994C394.04 152.188 394.194 152.419 394.299 152.672C394.405 152.926 394.459 153.199 394.459 153.473C394.459 153.748 394.405 154.021 394.299 154.274C394.194 154.528 394.04 154.759 393.845 154.953C393.65 155.147 393.419 155.301 393.165 155.406C392.911 155.511 392.639 155.564 392.364 155.563ZM364.495 155.563H350.559C350.285 155.564 350.012 155.511 349.758 155.406C349.504 155.301 349.273 155.147 349.078 154.953C348.884 154.759 348.729 154.528 348.624 154.274C348.519 154.021 348.464 153.748 348.464 153.473C348.464 153.199 348.519 152.926 348.624 152.672C348.729 152.419 348.884 152.188 349.078 151.994C349.273 151.8 349.504 151.646 349.758 151.541C350.012 151.436 350.285 151.383 350.559 151.383H364.495C364.77 151.383 365.042 151.436 365.296 151.541C365.55 151.646 365.781 151.8 365.976 151.994C366.17 152.188 366.325 152.419 366.43 152.672C366.535 152.926 366.59 153.199 366.59 153.473C366.59 153.748 366.535 154.021 366.43 154.274C366.325 154.528 366.17 154.759 365.976 154.953C365.781 155.147 365.55 155.301 365.296 155.406C365.042 155.511 364.77 155.564 364.495 155.563H364.495ZM336.624 155.563H322.69C322.415 155.564 322.143 155.511 321.889 155.406C321.635 155.301 321.404 155.147 321.209 154.953C321.015 154.759 320.86 154.528 320.755 154.274C320.65 154.021 320.595 153.748 320.595 153.473C320.595 153.199 320.65 152.926 320.755 152.672C320.86 152.419 321.015 152.188 321.209 151.994C321.404 151.8 321.635 151.646 321.889 151.541C322.143 151.436 322.415 151.383 322.69 151.383H336.624C336.899 151.383 337.172 151.436 337.426 151.541C337.68 151.646 337.911 151.8 338.105 151.994C338.3 152.188 338.454 152.419 338.56 152.672C338.665 152.926 338.719 153.199 338.719 153.473C338.719 153.748 338.665 154.021 338.56 154.274C338.454 154.528 338.3 154.759 338.105 154.953C337.911 155.147 337.68 155.301 337.426 155.406C337.172 155.511 336.899 155.564 336.624 155.563ZM262.901 138.543C262.347 138.543 261.815 138.323 261.423 137.931C261.031 137.539 260.811 137.007 260.811 136.453V122.519C260.811 121.964 261.031 121.432 261.423 121.04C261.815 120.648 262.347 120.428 262.901 120.428C263.456 120.428 263.987 120.648 264.38 121.04C264.772 121.432 264.992 121.964 264.992 122.519V136.453C264.992 137.007 264.771 137.539 264.379 137.931C263.987 138.323 263.456 138.543 262.901 138.543ZM415.905 112.973H404.549C403.994 112.973 403.463 112.753 403.071 112.361C402.679 111.969 402.459 111.438 402.459 110.883C402.459 110.329 402.679 109.797 403.071 109.406C403.463 109.014 403.994 108.793 404.549 108.793H413.814V108.305C413.815 107.751 414.036 107.22 414.428 106.83C414.82 106.439 415.351 106.219 415.905 106.219C416.458 106.219 416.989 106.439 417.381 106.83C417.773 107.22 417.994 107.751 417.995 108.305V110.883C417.995 111.438 417.775 111.969 417.383 112.361C416.991 112.753 416.459 112.973 415.905 112.973ZM390.614 112.973H376.678C376.124 112.973 375.593 112.753 375.201 112.361C374.809 111.969 374.588 111.438 374.588 110.883C374.588 110.329 374.809 109.797 375.201 109.406C375.593 109.014 376.124 108.793 376.678 108.793H390.614C391.168 108.793 391.7 109.014 392.091 109.406C392.483 109.797 392.704 110.329 392.704 110.883C392.704 111.438 392.483 111.969 392.091 112.361C391.7 112.753 391.168 112.973 390.614 112.973ZM362.744 112.973H348.809C348.255 112.973 347.723 112.753 347.331 112.361C346.94 111.969 346.719 111.438 346.719 110.883C346.719 110.329 346.94 109.797 347.331 109.406C347.723 109.014 348.255 108.793 348.809 108.793H362.744C363.299 108.793 363.83 109.014 364.222 109.406C364.614 109.797 364.834 110.329 364.834 110.883C364.834 111.438 364.614 111.969 364.222 112.361C363.83 112.753 363.299 112.973 362.744 112.973ZM334.874 112.973H320.94C320.386 112.973 319.854 112.753 319.462 112.361C319.07 111.969 318.85 111.438 318.85 110.883C318.85 110.329 319.07 109.797 319.462 109.406C319.854 109.014 320.386 108.793 320.94 108.793H334.874C335.428 108.793 335.96 109.014 336.352 109.406C336.744 109.797 336.964 110.329 336.964 110.883C336.964 111.438 336.744 111.969 336.352 112.361C335.96 112.753 335.428 112.973 334.874 112.973ZM307.005 112.973H293.07C292.515 112.973 291.984 112.753 291.592 112.361C291.2 111.969 290.98 111.438 290.98 110.883C290.98 110.329 291.2 109.797 291.592 109.406C291.984 109.014 292.515 108.793 293.07 108.793H307.005C307.559 108.793 308.091 109.014 308.483 109.406C308.875 109.797 309.095 110.329 309.095 110.883C309.095 111.438 308.875 111.969 308.483 112.361C308.091 112.753 307.559 112.973 307.005 112.973ZM279.136 112.973H265.201C264.646 112.973 264.115 112.753 263.723 112.361C263.331 111.969 263.111 111.438 263.111 110.883C263.111 110.329 263.331 109.797 263.723 109.406C264.115 109.014 264.646 108.793 265.201 108.793H279.136C279.69 108.793 280.222 109.014 280.614 109.406C281.006 109.797 281.226 110.329 281.226 110.883C281.226 111.438 281.006 111.969 280.614 112.361C280.222 112.753 279.69 112.973 279.136 112.973ZM415.905 96.4599C415.35 96.4599 414.819 96.2397 414.426 95.8478C414.034 95.4559 413.814 94.9243 413.814 94.37V80.4354C413.815 79.8818 414.036 79.3514 414.428 78.9604C414.82 78.5694 415.351 78.3499 415.905 78.3499C416.458 78.3499 416.989 78.5694 417.381 78.9604C417.773 79.3514 417.994 79.8818 417.995 80.4354V94.37C417.995 94.9243 417.775 95.4559 417.383 95.8479C416.991 96.2398 416.459 96.4599 415.905 96.4599V96.4599ZM415.905 68.5902C415.579 68.5906 415.258 68.5148 414.967 68.3687H402.191C401.637 68.3687 401.106 68.1485 400.714 67.7565C400.322 67.3646 400.101 66.833 400.101 66.2787C400.101 65.7244 400.322 65.1928 400.714 64.8009C401.106 64.4089 401.637 64.1887 402.191 64.1887H415.905C416.459 64.1887 416.991 64.4089 417.383 64.8008C417.775 65.1927 417.995 65.7244 417.995 66.2787V66.5002C417.995 67.0546 417.775 67.5862 417.383 67.9781C416.991 68.37 416.459 68.5902 415.905 68.5902V68.5902ZM388.256 68.3687H374.322C373.768 68.3687 373.236 68.1485 372.844 67.7565C372.453 67.3646 372.232 66.833 372.232 66.2787C372.232 65.7244 372.453 65.1928 372.844 64.8009C373.236 64.4089 373.768 64.1887 374.322 64.1887H388.256C388.811 64.1887 389.342 64.4089 389.734 64.8009C390.126 65.1928 390.346 65.7244 390.346 66.2787C390.346 66.833 390.126 67.3646 389.734 67.7565C389.342 68.1485 388.811 68.3687 388.256 68.3687ZM360.387 68.3687H346.452C345.898 68.3687 345.366 68.1485 344.974 67.7565C344.582 67.3646 344.362 66.833 344.362 66.2787C344.362 65.7244 344.582 65.1928 344.974 64.8009C345.366 64.4089 345.898 64.1887 346.452 64.1887H360.387C360.941 64.1887 361.473 64.4089 361.865 64.8009C362.257 65.1928 362.477 65.7244 362.477 66.2787C362.477 66.833 362.257 67.3646 361.865 67.7565C361.473 68.1485 360.941 68.3687 360.387 68.3687ZM332.518 68.3687H318.583C318.029 68.3687 317.497 68.1485 317.105 67.7565C316.713 67.3646 316.493 66.833 316.493 66.2787C316.493 65.7244 316.713 65.1928 317.105 64.8009C317.497 64.4089 318.029 64.1887 318.583 64.1887H332.518C333.072 64.1887 333.604 64.4089 333.996 64.8009C334.388 65.1928 334.608 65.7244 334.608 66.2787C334.608 66.833 334.388 67.3646 333.996 67.7565C333.604 68.1485 333.072 68.3687 332.518 68.3687ZM304.648 68.3687H290.714C290.159 68.3687 289.628 68.1485 289.236 67.7565C288.844 67.3646 288.624 66.833 288.624 66.2787C288.624 65.7244 288.844 65.1928 289.236 64.8009C289.628 64.4089 290.159 64.1887 290.714 64.1887H304.648C305.202 64.1887 305.734 64.4089 306.125 64.8009C306.517 65.1928 306.738 65.7244 306.738 66.2787C306.738 66.833 306.517 67.3646 306.125 67.7565C305.734 68.1485 305.202 68.3687 304.648 68.3687ZM276.778 68.3687H262.843C262.289 68.3687 261.757 68.1485 261.365 67.7565C260.974 67.3646 260.753 66.833 260.753 66.2787C260.753 65.7244 260.974 65.1928 261.365 64.8009C261.757 64.4089 262.289 64.1887 262.843 64.1887H276.778C277.333 64.1887 277.864 64.4089 278.256 64.8009C278.648 65.1928 278.868 65.7244 278.868 66.2787C278.868 66.833 278.648 67.3646 278.256 67.7565C277.864 68.1485 277.333 68.3687 276.778 68.3687ZM248.909 68.3687H234.974C234.42 68.3687 233.888 68.1485 233.496 67.7565C233.104 67.3646 232.884 66.833 232.884 66.2787C232.884 65.7244 233.104 65.1928 233.496 64.8009C233.888 64.4089 234.42 64.1887 234.974 64.1887H248.909C249.464 64.1887 249.995 64.4089 250.387 64.8009C250.779 65.1928 250.999 65.7244 250.999 66.2787C250.999 66.833 250.779 67.3646 250.387 67.7565C249.995 68.1485 249.464 68.3687 248.909 68.3687Z" fill="#0E538C" fill-opacity="0.48"/>
<path d="M279.097 183.472H250.994C250.624 183.472 250.27 183.325 250.009 183.064C249.747 182.803 249.601 182.448 249.601 182.079V146.578C249.601 146.209 249.747 145.854 250.009 145.593C250.27 145.332 250.624 145.185 250.994 145.185H289.952C290.321 145.185 290.676 145.332 290.937 145.593C291.199 145.854 291.345 146.209 291.345 146.578V172.408L279.097 183.472Z" fill="#FFA62B"/>
<path d="M291.343 172.452H279.096V183.472L291.343 172.452Z" fill="#C68021"/>
<path d="M276.031 141.6H263.517C262.748 141.6 262.124 142.224 262.124 142.993V147.732C262.124 148.501 262.748 149.125 263.517 149.125H276.031C276.801 149.125 277.424 148.501 277.424 147.732V142.993C277.424 142.224 276.801 141.6 276.031 141.6Z" fill="#C68021"/>
<path d="M280.211 158.211H260.646V159.604H280.211V158.211Z" fill="#C68021"/>
<path d="M280.586 165.216H261.021V166.609H280.586V165.216Z" fill="#C68021"/>
<path d="M318.188 237.034C315.633 237.034 313.136 236.276 311.013 234.857C308.889 233.438 307.233 231.421 306.256 229.061C305.278 226.701 305.023 224.104 305.521 221.599C306.019 219.094 307.249 216.793 309.056 214.986C310.862 213.18 313.163 211.95 315.668 211.452C318.173 210.954 320.77 211.209 323.13 212.187C325.49 213.164 327.507 214.82 328.926 216.943C330.345 219.067 331.103 221.564 331.103 224.118C331.099 227.543 329.737 230.825 327.316 233.246C324.894 235.668 321.612 237.03 318.188 237.034ZM318.188 212.597C315.909 212.597 313.681 213.273 311.786 214.539C309.892 215.805 308.415 217.604 307.543 219.71C306.671 221.815 306.443 224.132 306.887 226.367C307.332 228.602 308.429 230.655 310.041 232.266C311.652 233.878 313.705 234.975 315.94 235.419C318.175 235.864 320.492 235.636 322.597 234.763C324.703 233.891 326.502 232.415 327.768 230.52C329.034 228.625 329.71 226.397 329.71 224.118C329.706 221.064 328.491 218.135 326.331 215.975C324.171 213.815 321.242 212.6 318.188 212.597ZM200.661 170.182C198.107 170.182 195.61 169.425 193.486 168.006C191.362 166.586 189.707 164.569 188.729 162.209C187.752 159.849 187.496 157.253 187.994 154.747C188.493 152.242 189.723 149.941 191.529 148.135C193.335 146.328 195.636 145.098 198.142 144.6C200.647 144.102 203.244 144.357 205.604 145.335C207.964 146.312 209.981 147.968 211.4 150.092C212.819 152.216 213.577 154.713 213.577 157.267C213.573 160.691 212.211 163.974 209.79 166.395C207.368 168.816 204.085 170.178 200.661 170.182ZM200.661 145.745C198.382 145.745 196.155 146.42 194.26 147.687C192.365 148.953 190.888 150.752 190.016 152.858C189.144 154.963 188.916 157.28 189.36 159.515C189.805 161.75 190.902 163.803 192.514 165.414C194.125 167.026 196.178 168.123 198.413 168.568C200.649 169.012 202.965 168.784 205.071 167.912C207.176 167.04 208.976 165.563 210.242 163.668C211.508 161.774 212.184 159.546 212.184 157.267C212.18 154.212 210.965 151.283 208.805 149.123C206.645 146.963 203.716 145.748 200.661 145.745ZM424.604 95.776C424.467 95.7762 424.331 95.7493 424.204 95.6966C424.077 95.644 423.962 95.5668 423.866 95.4694L406.465 78.0694C406.27 77.8734 406.16 77.6078 406.16 77.331C406.16 77.0542 406.27 76.7888 406.466 76.5931C406.662 76.3973 406.927 76.2872 407.204 76.2869C407.481 76.2866 407.746 76.3961 407.942 76.5914L425.343 93.9914C425.489 94.1376 425.589 94.3238 425.629 94.5265C425.669 94.7292 425.648 94.9393 425.569 95.1303C425.49 95.3212 425.357 95.4845 425.185 95.5994C425.013 95.7143 424.811 95.7758 424.604 95.776V95.776Z" fill="#F73C4F"/>
<path d="M407.205 95.7763C406.998 95.7761 406.796 95.7146 406.625 95.5997C406.453 95.4848 406.319 95.3216 406.24 95.1306C406.161 94.9396 406.14 94.7295 406.181 94.5268C406.221 94.3241 406.32 94.1379 406.466 93.9917L423.867 76.5917C424.063 76.3969 424.329 76.2878 424.605 76.2884C424.882 76.2889 425.147 76.399 425.342 76.5946C425.538 76.7901 425.648 77.0552 425.648 77.3317C425.648 77.6082 425.539 77.8736 425.344 78.0697L407.944 95.4697C407.847 95.5671 407.732 95.6443 407.605 95.697C407.478 95.7496 407.342 95.7765 407.205 95.7763ZM320.461 76.0244C320.323 76.0247 320.187 75.9977 320.061 75.9452C319.934 75.8927 319.819 75.8156 319.722 75.7184L302.32 58.3179C302.223 58.2209 302.146 58.1057 302.093 57.9789C302.041 57.8521 302.014 57.7162 302.014 57.579C302.014 57.4417 302.041 57.3058 302.093 57.179C302.146 57.0522 302.222 56.937 302.319 56.8399C302.416 56.7428 302.532 56.6657 302.658 56.6132C302.785 56.5606 302.921 56.5335 303.058 56.5334C303.196 56.5334 303.332 56.5604 303.458 56.6128C303.585 56.6653 303.7 56.7423 303.797 56.8393L321.199 74.2398C321.345 74.386 321.445 74.5722 321.485 74.775C321.525 74.9777 321.505 75.1878 321.426 75.3787C321.347 75.5697 321.213 75.733 321.041 75.8479C320.869 75.9628 320.667 76.0242 320.461 76.0244Z" fill="#F73C4F"/>
<path d="M303.058 76.0244C302.852 76.0242 302.65 75.9628 302.478 75.8479C302.306 75.733 302.172 75.5697 302.093 75.3787C302.014 75.1878 301.993 74.9777 302.034 74.775C302.074 74.5722 302.174 74.386 302.32 74.2398L319.721 56.8393C319.917 56.6433 320.183 56.5333 320.46 56.5334C320.738 56.5336 321.003 56.6438 321.199 56.8399C321.395 57.0359 321.505 57.3018 321.505 57.579C321.505 57.8562 321.395 58.122 321.199 58.3179L303.797 75.7184C303.7 75.8156 303.585 75.8927 303.458 75.9452C303.331 75.9977 303.196 76.0247 303.058 76.0244Z" fill="#F73C4F"/>
</svg>
