<svg width="347" height="154" viewBox="0 0 347 154" fill="none" xmlns="http://www.w3.org/2000/svg">
<ellipse cx="173.5" cy="133.5" rx="173.5" ry="20.5" fill="#DDEEFD"/>
<path d="M229.088 52.3429C229.088 52.3429 244.239 51.2331 244.043 69.4391C243.866 85.6689 231.964 86.5505 229.383 86.5505C229.068 86.5505 228.891 86.5387 228.891 86.5387H113.382V80.8085H116.341H228.694C228.694 80.8085 236.852 79.1477 237.155 70.088C237.549 58.2577 227.907 58.2577 227.907 58.2577H116.341H113.382V56.6721V52.3429H190.519H229.088Z" fill="#0E538C"/>
<path d="M243.404 118.724C243.621 118.724 243.798 118.901 243.798 119.118C243.798 119.334 243.621 119.511 243.404 119.511V119.118V118.724ZM243.404 122.79C243.621 122.79 243.798 122.967 243.798 123.183C243.798 123.4 243.621 123.577 243.404 123.577V123.183V122.79ZM243.404 127.383C243.621 127.383 243.798 127.56 243.798 127.776C243.798 127.993 243.621 128.17 243.404 128.17V127.776V127.383Z" fill="black"/>
<path d="M243.404 128.17V133.857H118.363C118.363 133.857 109.28 132.33 108.946 124.006C108.509 113.132 119.237 113.132 119.237 113.132H243.404V118.724H117.643C117.427 118.724 117.25 118.901 117.25 119.118C117.25 119.334 117.427 119.511 117.643 119.511H243.404V122.79H125.121C124.904 122.79 124.727 122.967 124.727 123.183C124.727 123.4 124.904 123.577 125.121 123.577H243.404V127.383H144.012C143.795 127.383 143.618 127.56 143.618 127.776C143.618 127.993 143.795 128.17 144.012 128.17H243.404Z" fill="#DDEEFD"/>
<path d="M243.404 127.776V128.17H144.011C143.794 128.17 143.617 127.993 143.617 127.776C143.617 127.56 143.794 127.383 144.011 127.383H243.404V127.776ZM243.404 123.183V123.577H125.12C124.904 123.577 124.727 123.4 124.727 123.183C124.727 122.967 124.904 122.79 125.12 122.79H243.404V123.183ZM243.404 119.511H117.643C117.426 119.511 117.249 119.334 117.249 119.118C117.249 118.901 117.426 118.724 117.643 118.724H243.404V119.118V119.511Z" fill="black"/>
<path d="M227.906 58.2581C227.906 58.2581 237.548 58.2581 237.155 70.0884C236.852 79.1484 228.693 80.8089 228.693 80.8089H116.341V75.2991H223.51C223.727 75.2991 223.904 75.122 223.904 74.9055C223.904 74.689 223.727 74.5119 223.51 74.5119H116.341V69.8326H211.574C211.79 69.8326 211.967 69.6555 211.967 69.439C211.967 69.2221 211.79 69.0454 211.574 69.0454H116.341V64.0197H215.116C215.332 64.0197 215.509 63.8426 215.509 63.6262C215.509 63.4097 215.332 63.2326 215.116 63.2326H116.341V58.2581H227.906Z" fill="#DDEEFD"/>
<path d="M230.661 86.551C230.661 86.551 234.203 97.2597 230.661 107.24L195.438 107.445V86.551H229.382H230.661Z" fill="#2A94F4"/>
<path d="M223.51 74.5123C223.727 74.5123 223.904 74.6894 223.904 74.9058C223.904 75.1223 223.727 75.2994 223.51 75.2994H116.341V74.9058V74.5123H223.51ZM215.116 63.2329C215.332 63.2329 215.509 63.41 215.509 63.6265C215.509 63.8429 215.332 64.02 215.116 64.02H116.341V63.6265V63.2329H215.116ZM211.574 69.0458C211.79 69.0458 211.967 69.2225 211.967 69.4393C211.967 69.6558 211.79 69.8329 211.574 69.8329H116.341V69.4393V69.0458H211.574Z" fill="black"/>
<path d="M195.438 86.551V107.445L151.619 107.697H138.242V107.685V86.551H195.438Z" fill="white"/>
<path d="M190.518 52.3273V52.3431H113.381V56.6722H100V0H190.518V52.3273ZM169.069 30.8273V18.8907H153.063V30.8273H169.069ZM134.83 37.8247V14.6915H108.265V37.8247H134.83Z" fill="#2A94F4"/>
<path d="M169.069 18.8906H153.063V30.8272H169.069V18.8906Z" fill="white"/>
<path d="M138.242 107.685V107.697H117.923C117.923 107.697 116.463 107.61 114.409 107.913L102.559 107.98C102.559 107.98 99.0166 97.6297 102.559 86.551H138.242V107.685Z" fill="#2A94F4"/>
<path d="M134.83 14.6914H108.265V37.8247H134.83V14.6914Z" fill="white"/>
<path d="M116.34 74.9058V75.2994C116.123 75.2994 115.946 75.1223 115.946 74.9058C115.946 74.6894 116.123 74.5123 116.34 74.5123V74.9058ZM116.34 69.4393V69.8329C116.123 69.8329 115.946 69.6558 115.946 69.4393C115.946 69.2225 116.123 69.0458 116.34 69.0458V69.4393ZM116.34 63.6265V64.02C116.123 64.02 115.946 63.8429 115.946 63.6265C115.946 63.41 116.123 63.2329 116.34 63.2329V63.6265Z" fill="black"/>
<path d="M108.946 124.006C109.28 132.33 118.364 133.856 118.364 133.856H243.405H246.699V139.122H118.143C118.143 139.122 101.5 140.142 101.279 123.411C101.126 111.601 109.481 108.633 114.408 107.913L151.619 107.697H195.438H246.699V113.132H243.405H119.237C119.237 113.132 108.509 113.132 108.946 124.006Z" fill="#0B4870"/>
</svg>
