<svg width="107" height="43" viewBox="0 0 107 43" fill="none" xmlns="http://www.w3.org/2000/svg">
<path d="M42.7381 5.60886C42.7381 2.54735 45.2286 0.0499664 48.3083 0.000745661C51.3871 -0.0489117 53.9689 2.3879 54.0621 5.43642C54.0939 6.47486 53.8375 7.45262 53.3686 8.29887C53.1947 8.61209 53.2493 9.00302 53.5101 9.24989C54.9264 10.5873 55.8101 12.4721 55.8101 14.559C55.8101 18.2665 53.0181 21.3408 49.4078 21.8285L47.2528 21.8078C43.7112 21.2599 40.9932 18.2184 40.9932 14.559C40.9932 12.4726 41.8766 10.5877 43.2926 9.24989C43.5546 9.00237 43.6069 8.61013 43.4326 8.29538C42.9906 7.49715 42.7381 6.58203 42.7381 5.60886Z" fill="#0E538C"/>
<path d="M45.4788 15.2664L47.3151 17.1067V17.9411C47.3151 17.9538 47.3151 17.9649 47.3172 17.9777V37.0704H49.4704V16.7654L49.4778 16.7598V10.2376C49.4778 9.63863 49.0023 9.16748 48.3975 9.16748C47.7928 9.16748 47.3151 9.63852 47.3151 10.2376V14.0685L46.9926 13.769C46.5815 13.3399 45.8919 13.3399 45.4788 13.769C45.0474 14.1741 45.0474 14.8591 45.4788 15.2664Z" fill="#0B4870"/>
<path d="M60.6177 18.0085C60.4436 18.3233 60.4958 18.7155 60.7576 18.9628C62.1738 20.3007 63.0574 22.1854 63.0574 24.2719C63.0574 27.9314 60.3389 30.9728 56.7975 31.5207L54.6427 31.5415C51.0322 31.0536 48.2402 27.9794 48.2402 24.2719C48.2402 22.1851 49.1241 20.3003 50.5402 18.9628C50.801 18.7162 50.8555 18.325 50.6816 18.012C50.2127 17.1659 49.9563 16.188 49.9879 15.1495C50.0814 12.1011 52.663 9.66412 55.7421 9.71388C58.8213 9.76321 61.3122 12.2603 61.3122 15.3218C61.3122 16.2951 61.0599 17.2104 60.6177 18.0085Z" fill="#2A94F4"/>
<path d="M58.6358 25.2782L56.7994 27.1186V27.9533C56.7994 27.966 56.7994 27.9769 56.7973 27.9896V37.1019H54.6442V26.7772L54.6367 26.7716V20.2495C54.6367 19.6506 55.1122 19.1794 55.7171 19.1794C56.3219 19.1794 56.7994 19.6505 56.7994 20.2495V24.0802L57.1221 23.7809C57.5332 23.3518 58.2226 23.3518 58.6358 23.7809C59.067 24.1865 59.067 24.8712 58.6358 25.2782Z" fill="#0B4870"/>
<path d="M52.756 25.2782L54.5924 27.1186V27.9533C54.5924 27.966 54.5924 27.9769 54.5945 27.9896V37.1019H56.7476V26.7772L56.7551 26.7716V20.2495C56.7551 19.6506 56.2796 19.1794 55.6748 19.1794C55.0699 19.1794 54.5924 19.6505 54.5924 20.2495V24.0802L54.2698 23.7809C53.8586 23.3518 53.1692 23.3518 52.756 23.7809C52.3248 24.1865 52.3248 24.8712 52.756 25.2782Z" fill="#0B4870"/>
<path d="M8.61133 37.1067H15.2716C19.6278 37.1067 21.4278 35.0029 21.4278 32.2575C21.4278 29.3694 19.4118 27.8005 17.7196 27.6936V27.5153C19.3037 27.0874 20.7078 26.0535 20.7078 23.7002C20.7078 21.026 18.9078 18.851 15.0555 18.851H8.61133V37.1067ZM10.8434 35.1456V28.7989H15.3796C17.7917 28.7989 19.3037 30.4035 19.3037 32.2575C19.3037 33.862 18.1878 35.1456 15.2716 35.1456H10.8434ZM10.8434 26.8735V20.8121H15.0555C17.5037 20.8121 18.5837 22.0956 18.5837 23.7002C18.5837 25.6256 16.9996 26.8735 14.9836 26.8735H10.8434ZM33.5198 31.5087C33.5198 34.0759 31.5397 35.2525 29.9557 35.2525C28.1916 35.2525 26.9316 33.969 26.9316 31.9723V23.4149H24.8074V32.1148C24.8074 35.6091 26.6795 37.285 29.2717 37.285C31.3598 37.285 32.7277 36.1797 33.3758 34.789H33.5198V37.1067H35.6438V23.4149H33.5198V31.5087ZM39.5343 37.1067H41.6584V23.4149H39.5343V37.1067ZM40.6143 21.1329C41.4423 21.1329 42.1264 20.4912 42.1264 19.7067C42.1264 18.9224 41.4423 18.2805 40.6143 18.2805C39.7863 18.2805 39.1023 18.9224 39.1023 19.7067C39.1023 20.4912 39.7863 21.1329 40.6143 21.1329ZM64.0513 37.1067H66.1754V28.4424C66.1754 26.5882 67.6515 25.2333 69.6675 25.2333C70.2346 25.2333 70.8196 25.3404 70.9636 25.376V23.2367C70.7206 23.2189 70.1625 23.201 69.8476 23.201C68.1915 23.201 66.7514 24.1281 66.2474 25.4829H66.1034V23.4149H64.0513V37.1067ZM78.857 37.3919C81.6651 37.3919 83.7172 36.0013 84.3651 33.9333L82.313 33.3628C81.7731 34.789 80.522 35.5021 78.857 35.5021C76.3638 35.5021 74.6447 33.9065 74.5458 30.9739H84.5812V30.0825C84.5812 24.9837 81.5211 23.2367 78.6409 23.2367C74.8968 23.2367 72.4126 26.1604 72.4126 30.3678C72.4126 34.5751 74.8607 37.3919 78.857 37.3919ZM74.5458 29.1555C74.6898 27.025 76.2108 25.1264 78.6409 25.1264C80.945 25.1264 82.421 26.8378 82.421 29.1555H74.5458ZM93.6085 37.3919C96.4166 37.3919 98.4687 36.0013 99.1168 33.9333L97.0646 33.3628C96.5246 34.789 95.2736 35.5021 93.6085 35.5021C91.1154 35.5021 89.3963 33.9065 89.2973 30.9739H99.3328V30.0825C99.3328 24.9837 96.2726 23.2367 93.3926 23.2367C89.6483 23.2367 87.1643 26.1604 87.1643 30.3678C87.1643 34.5751 89.6124 37.3919 93.6085 37.3919ZM89.2973 29.1555C89.4414 27.025 90.9624 25.1264 93.3926 25.1264C95.6966 25.1264 97.1727 26.8378 97.1727 29.1555H89.2973Z" fill="#0B4870"/>
</svg>
