<svg width="64" height="64" viewBox="0 0 64 64" fill="none" xmlns="http://www.w3.org/2000/svg">
<mask id="path-1-outside-1_234_532" maskUnits="userSpaceOnUse" x="21.0391" y="0" width="22" height="48" fill="black">
<rect fill="white" x="21.0391" width="22" height="48"/>
<path d="M24.2495 12.0226V22.0182C24.2495 22.2833 24.3662 22.5375 24.5738 22.725C24.7814 22.9124 25.063 23.0177 25.3567 23.0177H38.6424C38.936 23.0177 39.2176 22.9124 39.4253 22.725C39.6329 22.5375 39.7495 22.2833 39.7495 22.0182V12.0226C39.7495 11.2273 39.3996 10.4646 38.7767 9.90225C38.1538 9.33989 37.309 9.02397 36.4281 9.02397H35.0929C35.9038 8.4441 36.4947 7.65074 36.7835 6.75396C37.0724 5.85719 37.0449 4.90148 36.7048 4.01946C36.3648 3.13743 35.7291 2.37284 34.8859 1.83177C34.0428 1.2907 33.034 1 31.9995 1C30.9651 1 29.9563 1.2907 29.1131 1.83177C28.27 2.37284 27.6343 3.13743 27.2942 4.01946C26.9542 4.90148 26.9267 5.85719 27.2156 6.75396C27.5044 7.65074 28.0953 8.4441 28.9062 9.02397H27.571C26.6901 9.02397 25.8452 9.33989 25.2224 9.90225C24.5995 10.4646 24.2495 11.2273 24.2495 12.0226ZM31.9995 3.02664C32.547 3.02664 33.0821 3.1732 33.5373 3.44778C33.9924 3.72236 34.3472 4.11263 34.5567 4.56924C34.7662 5.02586 34.821 5.5283 34.7142 6.01303C34.6074 6.49777 34.3438 6.94303 33.9567 7.2925C33.5696 7.64198 33.0764 7.87998 32.5395 7.9764C32.0026 8.07282 31.4461 8.02333 30.9403 7.83419C30.4346 7.64506 30.0023 7.32477 29.6981 6.91383C29.394 6.50289 29.2317 6.01976 29.2317 5.52553C29.2317 4.86278 29.5233 4.22718 30.0424 3.75855C30.5614 3.28991 31.2654 3.02664 31.9995 3.02664ZM36.4281 11.0231C36.7217 11.0231 37.0033 11.1284 37.211 11.3158C37.4186 11.5033 37.5352 11.7575 37.5352 12.0226V21.0186H26.4638V12.0226C26.4638 11.7575 26.5805 11.5033 26.7881 11.3158C26.9957 11.1284 27.2773 11.0231 27.571 11.0231H36.4281ZM41.8974 40.1101C41.8293 39.8796 41.7098 39.6642 41.5463 39.4768C41.3828 39.2895 41.1786 39.1342 40.9464 39.0206L40.5821 38.8377C40.653 38.2891 40.653 37.735 40.5821 37.1864L40.9452 37.0045C41.1777 36.8907 41.3821 36.7353 41.5458 36.5478C41.7095 36.3603 41.8291 36.1446 41.8974 35.914C41.9656 35.6875 41.9819 35.4509 41.9453 35.2185C41.9088 34.9861 41.8201 34.763 41.6848 34.5626L40.2588 32.4315C39.985 32.0333 39.5527 31.7449 39.0507 31.6256C38.5487 31.5062 38.0151 31.565 37.5596 31.7898L37.1433 31.9977C36.6081 31.6512 36.0313 31.3601 35.4239 31.1301V30.7833C35.4181 30.3099 35.2045 29.8579 34.8301 29.5264C34.4557 29.1949 33.951 29.0111 33.4266 29.015H30.5724C30.0488 29.0121 29.5452 29.1965 29.1718 29.5278C28.7983 29.8592 28.5854 30.3106 28.5796 30.7833V31.1301C27.9723 31.3603 27.3955 31.6513 26.8602 31.9977L26.445 31.7918C25.9901 31.5661 25.4568 31.5065 24.9546 31.6251C24.4525 31.7437 24.0199 32.0316 23.7458 32.4295L22.3176 34.5636C22.1826 34.7637 22.0943 34.9866 22.0579 35.2186C22.0215 35.4506 22.0379 35.6869 22.1061 35.913C22.1742 36.1434 22.2937 36.3589 22.4572 36.5463C22.6207 36.7336 22.8249 36.8888 23.0571 37.0025L23.4214 37.1854C23.3505 37.734 23.3505 38.2881 23.4214 38.8367L23.0582 39.0186C22.8258 39.1324 22.6214 39.2878 22.4577 39.4753C22.294 39.6628 22.1744 39.8784 22.1061 40.1091C22.0379 40.3356 22.0216 40.5722 22.0582 40.8046C22.0947 41.0369 22.1833 41.2601 22.3187 41.4605L23.7447 43.5905C24.0186 43.9886 24.4509 44.2768 24.9529 44.3962C25.4548 44.5155 25.9883 44.4568 26.4439 44.2323L26.8602 44.0244C27.3954 44.3709 27.9722 44.6619 28.5796 44.892V45.2388C28.5854 45.7115 28.7983 46.1629 29.1718 46.4942C29.5452 46.8256 30.0488 47.01 30.5724 47.007H33.4266C33.9502 47.01 34.4538 46.8256 34.8273 46.4942C35.2007 46.1629 35.4137 45.7115 35.4195 45.2388V44.892C36.0268 44.6618 36.6035 44.3707 37.1389 44.0244L37.5541 44.2303C38.0089 44.4562 38.5423 44.516 39.0445 44.3973C39.5467 44.2787 39.9794 43.9906 40.2533 43.5925L41.6815 41.4585C41.817 41.2588 41.9061 41.0362 41.9432 40.8044C41.9803 40.5725 41.9647 40.3363 41.8974 40.1101ZM38.421 38.011C38.4212 38.2579 38.4012 38.5045 38.3612 38.7487C38.3112 39.099 38.3796 39.4548 38.5574 39.7694C38.7352 40.084 39.0141 40.3428 39.3576 40.5119L39.6355 40.6519L38.4652 42.4011L38.1032 42.2202C37.7584 42.0543 37.3686 41.9798 36.979 42.0055C36.5893 42.0311 36.2156 42.1558 35.9011 42.3651C35.463 42.6561 34.9857 42.8956 34.4806 43.0778C34.1097 43.2053 33.7899 43.4305 33.5626 43.7243C33.3354 44.0181 33.2112 44.3667 33.2063 44.725V45.0079H30.7894V44.725C30.7846 44.3669 30.6605 44.0183 30.4332 43.7247C30.2059 43.431 29.886 43.206 29.5151 43.0788C29.0095 42.8955 28.5315 42.6553 28.0924 42.3641C27.7775 42.1551 27.4035 42.0308 27.0137 42.0056C26.6238 41.9803 26.234 42.055 25.8892 42.2212L25.5305 42.4011L24.3602 40.6519L24.637 40.5129C24.9812 40.3435 25.2605 40.084 25.4384 39.7686C25.6162 39.4532 25.6842 39.0966 25.6335 38.7457C25.5954 38.5023 25.5769 38.2568 25.5781 38.011C25.5779 37.7642 25.5979 37.5176 25.6379 37.2734C25.6879 36.923 25.6195 36.5673 25.4417 36.2527C25.2639 35.938 24.9849 35.6792 24.6415 35.5102L24.3636 35.3702L25.5338 33.621L25.8958 33.8019C26.2407 33.9676 26.6304 34.0419 27.0201 34.0162C27.4097 33.9906 27.7833 33.866 28.098 33.657C28.536 33.366 29.0134 33.1265 29.5184 32.9443C29.8893 32.8168 30.2092 32.5915 30.4365 32.2978C30.6637 32.004 30.7878 31.6553 30.7927 31.297V31.0142H33.213V31.297C33.2178 31.6552 33.3419 32.0038 33.5692 32.2974C33.7965 32.591 34.1164 32.8161 34.4873 32.9433C34.9929 33.1266 35.4709 33.3667 35.91 33.658C36.2246 33.8676 36.5986 33.9923 36.9886 34.0176C37.3786 34.0429 37.7686 33.9678 38.1132 33.8009L38.4719 33.621L39.6421 35.3702L39.3654 35.5092C39.0212 35.6786 38.7419 35.9381 38.564 36.2534C38.3862 36.5688 38.3182 36.9254 38.3689 37.2764C38.4059 37.5198 38.4233 37.7653 38.421 38.011Z"/>
</mask>
<path d="M24.2495 12.0226V22.0182C24.2495 22.2833 24.3662 22.5375 24.5738 22.725C24.7814 22.9124 25.063 23.0177 25.3567 23.0177H38.6424C38.936 23.0177 39.2176 22.9124 39.4253 22.725C39.6329 22.5375 39.7495 22.2833 39.7495 22.0182V12.0226C39.7495 11.2273 39.3996 10.4646 38.7767 9.90225C38.1538 9.33989 37.309 9.02397 36.4281 9.02397H35.0929C35.9038 8.4441 36.4947 7.65074 36.7835 6.75396C37.0724 5.85719 37.0449 4.90148 36.7048 4.01946C36.3648 3.13743 35.7291 2.37284 34.8859 1.83177C34.0428 1.2907 33.034 1 31.9995 1C30.9651 1 29.9563 1.2907 29.1131 1.83177C28.27 2.37284 27.6343 3.13743 27.2942 4.01946C26.9542 4.90148 26.9267 5.85719 27.2156 6.75396C27.5044 7.65074 28.0953 8.4441 28.9062 9.02397H27.571C26.6901 9.02397 25.8452 9.33989 25.2224 9.90225C24.5995 10.4646 24.2495 11.2273 24.2495 12.0226ZM31.9995 3.02664C32.547 3.02664 33.0821 3.1732 33.5373 3.44778C33.9924 3.72236 34.3472 4.11263 34.5567 4.56924C34.7662 5.02586 34.821 5.5283 34.7142 6.01303C34.6074 6.49777 34.3438 6.94303 33.9567 7.2925C33.5696 7.64198 33.0764 7.87998 32.5395 7.9764C32.0026 8.07282 31.4461 8.02333 30.9403 7.83419C30.4346 7.64506 30.0023 7.32477 29.6981 6.91383C29.394 6.50289 29.2317 6.01976 29.2317 5.52553C29.2317 4.86278 29.5233 4.22718 30.0424 3.75855C30.5614 3.28991 31.2654 3.02664 31.9995 3.02664ZM36.4281 11.0231C36.7217 11.0231 37.0033 11.1284 37.211 11.3158C37.4186 11.5033 37.5352 11.7575 37.5352 12.0226V21.0186H26.4638V12.0226C26.4638 11.7575 26.5805 11.5033 26.7881 11.3158C26.9957 11.1284 27.2773 11.0231 27.571 11.0231H36.4281ZM41.8974 40.1101C41.8293 39.8796 41.7098 39.6642 41.5463 39.4768C41.3828 39.2895 41.1786 39.1342 40.9464 39.0206L40.5821 38.8377C40.653 38.2891 40.653 37.735 40.5821 37.1864L40.9452 37.0045C41.1777 36.8907 41.3821 36.7353 41.5458 36.5478C41.7095 36.3603 41.8291 36.1446 41.8974 35.914C41.9656 35.6875 41.9819 35.4509 41.9453 35.2185C41.9088 34.9861 41.8201 34.763 41.6848 34.5626L40.2588 32.4315C39.985 32.0333 39.5527 31.7449 39.0507 31.6256C38.5487 31.5062 38.0151 31.565 37.5596 31.7898L37.1433 31.9977C36.6081 31.6512 36.0313 31.3601 35.4239 31.1301V30.7833C35.4181 30.3099 35.2045 29.8579 34.8301 29.5264C34.4557 29.1949 33.951 29.0111 33.4266 29.015H30.5724C30.0488 29.0121 29.5452 29.1965 29.1718 29.5278C28.7983 29.8592 28.5854 30.3106 28.5796 30.7833V31.1301C27.9723 31.3603 27.3955 31.6513 26.8602 31.9977L26.445 31.7918C25.9901 31.5661 25.4568 31.5065 24.9546 31.6251C24.4525 31.7437 24.0199 32.0316 23.7458 32.4295L22.3176 34.5636C22.1826 34.7637 22.0943 34.9866 22.0579 35.2186C22.0215 35.4506 22.0379 35.6869 22.1061 35.913C22.1742 36.1434 22.2937 36.3589 22.4572 36.5463C22.6207 36.7336 22.8249 36.8888 23.0571 37.0025L23.4214 37.1854C23.3505 37.734 23.3505 38.2881 23.4214 38.8367L23.0582 39.0186C22.8258 39.1324 22.6214 39.2878 22.4577 39.4753C22.294 39.6628 22.1744 39.8784 22.1061 40.1091C22.0379 40.3356 22.0216 40.5722 22.0582 40.8046C22.0947 41.0369 22.1833 41.2601 22.3187 41.4605L23.7447 43.5905C24.0186 43.9886 24.4509 44.2768 24.9529 44.3962C25.4548 44.5155 25.9883 44.4568 26.4439 44.2323L26.8602 44.0244C27.3954 44.3709 27.9722 44.6619 28.5796 44.892V45.2388C28.5854 45.7115 28.7983 46.1629 29.1718 46.4942C29.5452 46.8256 30.0488 47.01 30.5724 47.007H33.4266C33.9502 47.01 34.4538 46.8256 34.8273 46.4942C35.2007 46.1629 35.4137 45.7115 35.4195 45.2388V44.892C36.0268 44.6618 36.6035 44.3707 37.1389 44.0244L37.5541 44.2303C38.0089 44.4562 38.5423 44.516 39.0445 44.3973C39.5467 44.2787 39.9794 43.9906 40.2533 43.5925L41.6815 41.4585C41.817 41.2588 41.9061 41.0362 41.9432 40.8044C41.9803 40.5725 41.9647 40.3363 41.8974 40.1101ZM38.421 38.011C38.4212 38.2579 38.4012 38.5045 38.3612 38.7487C38.3112 39.099 38.3796 39.4548 38.5574 39.7694C38.7352 40.084 39.0141 40.3428 39.3576 40.5119L39.6355 40.6519L38.4652 42.4011L38.1032 42.2202C37.7584 42.0543 37.3686 41.9798 36.979 42.0055C36.5893 42.0311 36.2156 42.1558 35.9011 42.3651C35.463 42.6561 34.9857 42.8956 34.4806 43.0778C34.1097 43.2053 33.7899 43.4305 33.5626 43.7243C33.3354 44.0181 33.2112 44.3667 33.2063 44.725V45.0079H30.7894V44.725C30.7846 44.3669 30.6605 44.0183 30.4332 43.7247C30.2059 43.431 29.886 43.206 29.5151 43.0788C29.0095 42.8955 28.5315 42.6553 28.0924 42.3641C27.7775 42.1551 27.4035 42.0308 27.0137 42.0056C26.6238 41.9803 26.234 42.055 25.8892 42.2212L25.5305 42.4011L24.3602 40.6519L24.637 40.5129C24.9812 40.3435 25.2605 40.084 25.4384 39.7686C25.6162 39.4532 25.6842 39.0966 25.6335 38.7457C25.5954 38.5023 25.5769 38.2568 25.5781 38.011C25.5779 37.7642 25.5979 37.5176 25.6379 37.2734C25.6879 36.923 25.6195 36.5673 25.4417 36.2527C25.2639 35.938 24.9849 35.6792 24.6415 35.5102L24.3636 35.3702L25.5338 33.621L25.8958 33.8019C26.2407 33.9676 26.6304 34.0419 27.0201 34.0162C27.4097 33.9906 27.7833 33.866 28.098 33.657C28.536 33.366 29.0134 33.1265 29.5184 32.9443C29.8893 32.8168 30.2092 32.5915 30.4365 32.2978C30.6637 32.004 30.7878 31.6553 30.7927 31.297V31.0142H33.213V31.297C33.2178 31.6552 33.3419 32.0038 33.5692 32.2974C33.7965 32.591 34.1164 32.8161 34.4873 32.9433C34.9929 33.1266 35.4709 33.3667 35.91 33.658C36.2246 33.8676 36.5986 33.9923 36.9886 34.0176C37.3786 34.0429 37.7686 33.9678 38.1132 33.8009L38.4719 33.621L39.6421 35.3702L39.3654 35.5092C39.0212 35.6786 38.7419 35.9381 38.564 36.2534C38.3862 36.5688 38.3182 36.9254 38.3689 37.2764C38.4059 37.5198 38.4233 37.7653 38.421 38.011Z" fill="#0B4870"/>
<path d="M24.2495 12.0226V22.0182C24.2495 22.2833 24.3662 22.5375 24.5738 22.725C24.7814 22.9124 25.063 23.0177 25.3567 23.0177H38.6424C38.936 23.0177 39.2176 22.9124 39.4253 22.725C39.6329 22.5375 39.7495 22.2833 39.7495 22.0182V12.0226C39.7495 11.2273 39.3996 10.4646 38.7767 9.90225C38.1538 9.33989 37.309 9.02397 36.4281 9.02397H35.0929C35.9038 8.4441 36.4947 7.65074 36.7835 6.75396C37.0724 5.85719 37.0449 4.90148 36.7048 4.01946C36.3648 3.13743 35.7291 2.37284 34.8859 1.83177C34.0428 1.2907 33.034 1 31.9995 1C30.9651 1 29.9563 1.2907 29.1131 1.83177C28.27 2.37284 27.6343 3.13743 27.2942 4.01946C26.9542 4.90148 26.9267 5.85719 27.2156 6.75396C27.5044 7.65074 28.0953 8.4441 28.9062 9.02397H27.571C26.6901 9.02397 25.8452 9.33989 25.2224 9.90225C24.5995 10.4646 24.2495 11.2273 24.2495 12.0226ZM31.9995 3.02664C32.547 3.02664 33.0821 3.1732 33.5373 3.44778C33.9924 3.72236 34.3472 4.11263 34.5567 4.56924C34.7662 5.02586 34.821 5.5283 34.7142 6.01303C34.6074 6.49777 34.3438 6.94303 33.9567 7.2925C33.5696 7.64198 33.0764 7.87998 32.5395 7.9764C32.0026 8.07282 31.4461 8.02333 30.9403 7.83419C30.4346 7.64506 30.0023 7.32477 29.6981 6.91383C29.394 6.50289 29.2317 6.01976 29.2317 5.52553C29.2317 4.86278 29.5233 4.22718 30.0424 3.75855C30.5614 3.28991 31.2654 3.02664 31.9995 3.02664ZM36.4281 11.0231C36.7217 11.0231 37.0033 11.1284 37.211 11.3158C37.4186 11.5033 37.5352 11.7575 37.5352 12.0226V21.0186H26.4638V12.0226C26.4638 11.7575 26.5805 11.5033 26.7881 11.3158C26.9957 11.1284 27.2773 11.0231 27.571 11.0231H36.4281ZM41.8974 40.1101C41.8293 39.8796 41.7098 39.6642 41.5463 39.4768C41.3828 39.2895 41.1786 39.1342 40.9464 39.0206L40.5821 38.8377C40.653 38.2891 40.653 37.735 40.5821 37.1864L40.9452 37.0045C41.1777 36.8907 41.3821 36.7353 41.5458 36.5478C41.7095 36.3603 41.8291 36.1446 41.8974 35.914C41.9656 35.6875 41.9819 35.4509 41.9453 35.2185C41.9088 34.9861 41.8201 34.763 41.6848 34.5626L40.2588 32.4315C39.985 32.0333 39.5527 31.7449 39.0507 31.6256C38.5487 31.5062 38.0151 31.565 37.5596 31.7898L37.1433 31.9977C36.6081 31.6512 36.0313 31.3601 35.4239 31.1301V30.7833C35.4181 30.3099 35.2045 29.8579 34.8301 29.5264C34.4557 29.1949 33.951 29.0111 33.4266 29.015H30.5724C30.0488 29.0121 29.5452 29.1965 29.1718 29.5278C28.7983 29.8592 28.5854 30.3106 28.5796 30.7833V31.1301C27.9723 31.3603 27.3955 31.6513 26.8602 31.9977L26.445 31.7918C25.9901 31.5661 25.4568 31.5065 24.9546 31.6251C24.4525 31.7437 24.0199 32.0316 23.7458 32.4295L22.3176 34.5636C22.1826 34.7637 22.0943 34.9866 22.0579 35.2186C22.0215 35.4506 22.0379 35.6869 22.1061 35.913C22.1742 36.1434 22.2937 36.3589 22.4572 36.5463C22.6207 36.7336 22.8249 36.8888 23.0571 37.0025L23.4214 37.1854C23.3505 37.734 23.3505 38.2881 23.4214 38.8367L23.0582 39.0186C22.8258 39.1324 22.6214 39.2878 22.4577 39.4753C22.294 39.6628 22.1744 39.8784 22.1061 40.1091C22.0379 40.3356 22.0216 40.5722 22.0582 40.8046C22.0947 41.0369 22.1833 41.2601 22.3187 41.4605L23.7447 43.5905C24.0186 43.9886 24.4509 44.2768 24.9529 44.3962C25.4548 44.5155 25.9883 44.4568 26.4439 44.2323L26.8602 44.0244C27.3954 44.3709 27.9722 44.6619 28.5796 44.892V45.2388C28.5854 45.7115 28.7983 46.1629 29.1718 46.4942C29.5452 46.8256 30.0488 47.01 30.5724 47.007H33.4266C33.9502 47.01 34.4538 46.8256 34.8273 46.4942C35.2007 46.1629 35.4137 45.7115 35.4195 45.2388V44.892C36.0268 44.6618 36.6035 44.3707 37.1389 44.0244L37.5541 44.2303C38.0089 44.4562 38.5423 44.516 39.0445 44.3973C39.5467 44.2787 39.9794 43.9906 40.2533 43.5925L41.6815 41.4585C41.817 41.2588 41.9061 41.0362 41.9432 40.8044C41.9803 40.5725 41.9647 40.3363 41.8974 40.1101ZM38.421 38.011C38.4212 38.2579 38.4012 38.5045 38.3612 38.7487C38.3112 39.099 38.3796 39.4548 38.5574 39.7694C38.7352 40.084 39.0141 40.3428 39.3576 40.5119L39.6355 40.6519L38.4652 42.4011L38.1032 42.2202C37.7584 42.0543 37.3686 41.9798 36.979 42.0055C36.5893 42.0311 36.2156 42.1558 35.9011 42.3651C35.463 42.6561 34.9857 42.8956 34.4806 43.0778C34.1097 43.2053 33.7899 43.4305 33.5626 43.7243C33.3354 44.0181 33.2112 44.3667 33.2063 44.725V45.0079H30.7894V44.725C30.7846 44.3669 30.6605 44.0183 30.4332 43.7247C30.2059 43.431 29.886 43.206 29.5151 43.0788C29.0095 42.8955 28.5315 42.6553 28.0924 42.3641C27.7775 42.1551 27.4035 42.0308 27.0137 42.0056C26.6238 41.9803 26.234 42.055 25.8892 42.2212L25.5305 42.4011L24.3602 40.6519L24.637 40.5129C24.9812 40.3435 25.2605 40.084 25.4384 39.7686C25.6162 39.4532 25.6842 39.0966 25.6335 38.7457C25.5954 38.5023 25.5769 38.2568 25.5781 38.011C25.5779 37.7642 25.5979 37.5176 25.6379 37.2734C25.6879 36.923 25.6195 36.5673 25.4417 36.2527C25.2639 35.938 24.9849 35.6792 24.6415 35.5102L24.3636 35.3702L25.5338 33.621L25.8958 33.8019C26.2407 33.9676 26.6304 34.0419 27.0201 34.0162C27.4097 33.9906 27.7833 33.866 28.098 33.657C28.536 33.366 29.0134 33.1265 29.5184 32.9443C29.8893 32.8168 30.2092 32.5915 30.4365 32.2978C30.6637 32.004 30.7878 31.6553 30.7927 31.297V31.0142H33.213V31.297C33.2178 31.6552 33.3419 32.0038 33.5692 32.2974C33.7965 32.591 34.1164 32.8161 34.4873 32.9433C34.9929 33.1266 35.4709 33.3667 35.91 33.658C36.2246 33.8676 36.5986 33.9923 36.9886 34.0176C37.3786 34.0429 37.7686 33.9678 38.1132 33.8009L38.4719 33.621L39.6421 35.3702L39.3654 35.5092C39.0212 35.6786 38.7419 35.9381 38.564 36.2534C38.3862 36.5688 38.3182 36.9254 38.3689 37.2764C38.4059 37.5198 38.4233 37.7653 38.421 38.011Z" stroke="#0B4870" stroke-width="0.2" mask="url(#path-1-outside-1_234_532)"/>
<mask id="path-2-outside-2_234_532" maskUnits="userSpaceOnUse" x="0" y="14.7261" width="64" height="49" fill="black">
<rect fill="white" y="14.7261" width="64" height="49"/>
<path d="M32 34.5127C31.2336 34.5127 30.4844 34.7179 29.8472 35.1023C29.2099 35.4867 28.7133 36.0331 28.42 36.6723C28.1267 37.3116 28.0499 38.015 28.1995 38.6936C28.349 39.3723 28.718 39.9956 29.26 40.4849C29.8019 40.9742 30.4923 41.3074 31.244 41.4423C31.9957 41.5773 32.7748 41.5081 33.4829 41.2433C34.191 40.9785 34.7962 40.5301 35.2219 39.9548C35.6477 39.3794 35.875 38.7031 35.875 38.0111C35.875 37.0833 35.4667 36.1934 34.74 35.5374C34.0133 34.8813 33.0277 34.5127 32 34.5127ZM32 39.5105C31.6715 39.5105 31.3505 39.4225 31.0774 39.2578C30.8043 39.093 30.5914 38.8589 30.4657 38.5849C30.34 38.3109 30.3071 38.0095 30.3712 37.7186C30.4353 37.4278 30.5934 37.1606 30.8257 36.9509C31.058 36.7413 31.3539 36.5985 31.676 36.5406C31.9982 36.4828 32.3321 36.5125 32.6355 36.6259C32.939 36.7394 33.1983 36.9316 33.3808 37.1782C33.5633 37.4247 33.6607 37.7146 33.6607 38.0111C33.6607 38.4088 33.4857 38.7901 33.1743 39.0713C32.8629 39.3525 32.4404 39.5105 32 39.5105ZM10.2059 28.6813L8.13221 27.9816C7.86539 28.6253 7.62957 29.281 7.43139 29.9467L9.56707 30.4715C9.74643 29.8718 9.96786 29.269 10.2059 28.6813ZM42.9474 17.4893C43.5641 17.7892 44.1653 18.111 44.7388 18.4509L45.9566 16.7796C45.33 16.4078 44.669 16.0529 43.9926 15.7261L42.9474 17.4893ZM57.3635 38.0701C57.4311 37.3914 57.4643 36.6987 57.4643 36.012V35.9191L55.25 36.012C55.25 36.6397 55.219 37.2735 55.1581 37.8942L57.3635 38.0701ZM51.9175 25.1769C52.274 25.7086 52.6084 26.2654 52.9139 26.8291L54.9068 25.9535C54.5746 25.3348 54.2071 24.7271 53.8174 24.1443L51.9175 25.1769ZM41.155 55.3134L42.0285 57.1496C42.7304 56.8777 43.4213 56.5759 44.0834 56.25L43.0327 54.4908C42.4282 54.7886 41.796 55.0645 41.155 55.3134ZM12.0061 25.2898L10.104 24.2693C9.71321 24.861 9.35118 25.4687 9.02568 26.0845L11.0185 26.9501C11.3186 26.3893 11.6507 25.8306 12.0061 25.2898ZM53.741 28.5554C53.9856 29.1401 54.206 29.7418 54.3931 30.3446L56.5243 29.8038C56.3195 29.1441 56.0815 28.4854 55.8102 27.8467L53.741 28.5554ZM33.0684 56.9807L33.1702 58.9798C33.9242 58.9478 34.6904 58.8858 35.441 58.7949L35.1476 56.8137C34.459 56.8957 33.7592 56.9517 33.0684 56.9807ZM14.4507 22.2432L12.78 20.9308C12.2862 21.4435 11.809 21.9863 11.3595 22.544L13.1531 23.7175C13.5627 23.2067 13.999 22.711 14.4507 22.2432ZM54.8625 32.1767C54.9887 32.7935 55.0839 33.4212 55.1481 34.0419L57.3536 33.857C57.2838 33.1763 57.1775 32.4906 57.0402 31.8159L54.8625 32.1767ZM19.8679 15.794C19.2036 16.1199 18.5482 16.4767 17.9127 16.8576L19.1394 18.5198C19.7185 18.172 20.3196 17.8451 20.9252 17.5483L19.8679 15.794ZM19.9576 56.273C20.6219 56.5948 21.3127 56.8967 22.0202 57.1726L22.8882 55.3334C22.2428 55.0855 21.6117 54.8116 21.0061 54.5178L19.9576 56.273ZM14.3555 19.4374L15.8889 20.8778C16.3926 20.442 16.9196 20.0242 17.4555 19.6363L16.0715 18.077C15.4848 18.4998 14.9079 18.9586 14.3555 19.4374ZM6.93096 31.9578C6.79811 32.6325 6.69736 33.3212 6.63204 34.0009L8.83746 34.1748C8.89836 33.5531 8.99025 32.9244 9.11093 32.3077L6.93096 31.9578ZM6.53571 36.06C6.53571 36.7397 6.57225 37.4314 6.64643 38.1171L8.85186 37.9382C8.78321 37.3114 8.75 36.6767 8.75 36.056L6.53571 36.06ZM28.6099 58.8019C29.3561 58.8928 30.1234 58.9528 30.8862 58.9828L30.9814 56.9837C30.2839 56.9567 29.5853 56.9017 28.9044 56.8187L28.6099 58.8019ZM49.4541 22.1442C49.9136 22.616 50.3531 23.1088 50.7594 23.6096L52.5464 22.4281C52.1035 21.8783 51.6186 21.3386 51.1148 20.8228L49.4541 22.1442ZM46.4294 19.5524C46.9741 19.9432 47.5044 20.358 48.0037 20.7878L49.5305 19.3385C48.9769 18.8687 48.4023 18.4139 47.8067 17.9871L46.4294 19.5524ZM37.1969 56.4769L37.6907 58.425C38.4292 58.2731 39.1699 58.0882 39.8906 57.8763L39.2075 55.9771C38.5476 56.168 37.8679 56.337 37.1969 56.4769ZM24.1592 57.8913C24.8766 58.1012 25.6184 58.2851 26.3646 58.437L26.8518 56.4859C26.172 56.348 25.4966 56.186 24.8423 55.9861L24.1592 57.8913ZM13.1786 49.0062H11.8434C12.6543 48.4264 13.2451 47.633 13.534 46.7362C13.8228 45.8395 13.7953 44.8837 13.4553 44.0017C13.1153 43.1197 12.4796 42.3551 11.6364 41.814C10.7932 41.273 9.78445 40.9823 8.75 40.9823C7.71555 40.9823 6.70676 41.273 5.8636 41.814C5.02045 42.3551 4.38474 43.1197 4.04471 44.0017C3.70468 44.8837 3.67718 45.8395 3.96602 46.7362C4.25487 47.633 4.84574 48.4264 5.65664 49.0062H4.32143C3.44053 49.0062 2.59571 49.3222 1.97282 49.8845C1.34994 50.4469 1 51.2096 1 52.0049V62.0004C1 62.2655 1.11665 62.5198 1.32427 62.7072C1.5319 62.8947 1.81351 63 2.10714 63H15.3929C15.6865 63 15.9681 62.8947 16.1757 62.7072C16.3834 62.5198 16.5 62.2655 16.5 62.0004V52.0049C16.5 51.2096 16.1501 50.4469 15.5272 49.8845C14.9043 49.3222 14.0595 49.0062 13.1786 49.0062ZM8.75 43.0089C9.29743 43.0089 9.83257 43.1555 10.2877 43.43C10.7429 43.7046 11.0977 44.0949 11.3072 44.5515C11.5167 45.0081 11.5715 45.5106 11.4647 45.9953C11.3579 46.48 11.0943 46.9253 10.7072 47.2748C10.3201 47.6242 9.82689 47.8622 9.28998 47.9587C8.75307 48.0551 8.19655 48.0056 7.69079 47.8165C7.18503 47.6273 6.75275 47.307 6.44861 46.8961C6.14447 46.4852 5.98214 46.002 5.98214 45.5078C5.98214 44.845 6.27376 44.2094 6.79283 43.7408C7.3119 43.2722 8.01592 43.0089 8.75 43.0089ZM14.2857 61.0009H3.21429V52.0049C3.21429 51.7398 3.33093 51.4855 3.53856 51.2981C3.74619 51.1106 4.0278 51.0053 4.32143 51.0053H13.1786C13.4722 51.0053 13.7538 51.1106 13.9614 51.2981C14.1691 51.4855 14.2857 51.7398 14.2857 52.0049V61.0009ZM59.6786 49.0062H58.3434C59.1543 48.4264 59.7451 47.633 60.034 46.7362C60.3228 45.8395 60.2953 44.8837 59.9553 44.0017C59.6153 43.1197 58.9795 42.3551 58.1364 41.814C57.2932 41.273 56.2844 40.9823 55.25 40.9823C54.2156 40.9823 53.2068 41.273 52.3636 41.814C51.5204 42.3551 50.8847 43.1197 50.5447 44.0017C50.2047 44.8837 50.1772 45.8395 50.466 46.7362C50.7549 47.633 51.3457 48.4264 52.1566 49.0062H50.8214C49.9405 49.0062 49.0957 49.3222 48.4728 49.8845C47.8499 50.4469 47.5 51.2096 47.5 52.0049V62.0004C47.5 62.2655 47.6166 62.5198 47.8243 62.7072C48.0319 62.8947 48.3135 63 48.6071 63H61.8929C62.1865 63 62.4681 62.8947 62.6757 62.7072C62.8834 62.5198 63 62.2655 63 62.0004V52.0049C63 51.2096 62.6501 50.4469 62.0272 49.8845C61.4043 49.3222 60.5595 49.0062 59.6786 49.0062ZM55.25 43.0089C55.7974 43.0089 56.3326 43.1555 56.7877 43.43C57.2429 43.7046 57.5977 44.0949 57.8072 44.5515C58.0167 45.0081 58.0715 45.5106 57.9647 45.9953C57.8579 46.48 57.5943 46.9253 57.2072 47.2748C56.8201 47.6242 56.3269 47.8622 55.79 47.9587C55.2531 48.0551 54.6965 48.0056 54.1908 47.8165C53.685 47.6273 53.2527 47.307 52.9486 46.8961C52.6445 46.4852 52.4821 46.002 52.4821 45.5078C52.4821 44.845 52.7738 44.2094 53.2928 43.7408C53.8119 43.2722 54.5159 43.0089 55.25 43.0089ZM60.7857 61.0009H49.7143V52.0049C49.7143 51.7398 49.8309 51.4855 50.0386 51.2981C50.2462 51.1106 50.5278 51.0053 50.8214 51.0053H59.6786C59.9722 51.0053 60.2538 51.1106 60.4614 51.2981C60.6691 51.4855 60.7857 51.7398 60.7857 52.0049V61.0009Z"/>
</mask>
<path d="M32 34.5127C31.2336 34.5127 30.4844 34.7179 29.8472 35.1023C29.2099 35.4867 28.7133 36.0331 28.42 36.6723C28.1267 37.3116 28.0499 38.015 28.1995 38.6936C28.349 39.3723 28.718 39.9956 29.26 40.4849C29.8019 40.9742 30.4923 41.3074 31.244 41.4423C31.9957 41.5773 32.7748 41.5081 33.4829 41.2433C34.191 40.9785 34.7962 40.5301 35.2219 39.9548C35.6477 39.3794 35.875 38.7031 35.875 38.0111C35.875 37.0833 35.4667 36.1934 34.74 35.5374C34.0133 34.8813 33.0277 34.5127 32 34.5127ZM32 39.5105C31.6715 39.5105 31.3505 39.4225 31.0774 39.2578C30.8043 39.093 30.5914 38.8589 30.4657 38.5849C30.34 38.3109 30.3071 38.0095 30.3712 37.7186C30.4353 37.4278 30.5934 37.1606 30.8257 36.9509C31.058 36.7413 31.3539 36.5985 31.676 36.5406C31.9982 36.4828 32.3321 36.5125 32.6355 36.6259C32.939 36.7394 33.1983 36.9316 33.3808 37.1782C33.5633 37.4247 33.6607 37.7146 33.6607 38.0111C33.6607 38.4088 33.4857 38.7901 33.1743 39.0713C32.8629 39.3525 32.4404 39.5105 32 39.5105ZM10.2059 28.6813L8.13221 27.9816C7.86539 28.6253 7.62957 29.281 7.43139 29.9467L9.56707 30.4715C9.74643 29.8718 9.96786 29.269 10.2059 28.6813ZM42.9474 17.4893C43.5641 17.7892 44.1653 18.111 44.7388 18.4509L45.9566 16.7796C45.33 16.4078 44.669 16.0529 43.9926 15.7261L42.9474 17.4893ZM57.3635 38.0701C57.4311 37.3914 57.4643 36.6987 57.4643 36.012V35.9191L55.25 36.012C55.25 36.6397 55.219 37.2735 55.1581 37.8942L57.3635 38.0701ZM51.9175 25.1769C52.274 25.7086 52.6084 26.2654 52.9139 26.8291L54.9068 25.9535C54.5746 25.3348 54.2071 24.7271 53.8174 24.1443L51.9175 25.1769ZM41.155 55.3134L42.0285 57.1496C42.7304 56.8777 43.4213 56.5759 44.0834 56.25L43.0327 54.4908C42.4282 54.7886 41.796 55.0645 41.155 55.3134ZM12.0061 25.2898L10.104 24.2693C9.71321 24.861 9.35118 25.4687 9.02568 26.0845L11.0185 26.9501C11.3186 26.3893 11.6507 25.8306 12.0061 25.2898ZM53.741 28.5554C53.9856 29.1401 54.206 29.7418 54.3931 30.3446L56.5243 29.8038C56.3195 29.1441 56.0815 28.4854 55.8102 27.8467L53.741 28.5554ZM33.0684 56.9807L33.1702 58.9798C33.9242 58.9478 34.6904 58.8858 35.441 58.7949L35.1476 56.8137C34.459 56.8957 33.7592 56.9517 33.0684 56.9807ZM14.4507 22.2432L12.78 20.9308C12.2862 21.4435 11.809 21.9863 11.3595 22.544L13.1531 23.7175C13.5627 23.2067 13.999 22.711 14.4507 22.2432ZM54.8625 32.1767C54.9887 32.7935 55.0839 33.4212 55.1481 34.0419L57.3536 33.857C57.2838 33.1763 57.1775 32.4906 57.0402 31.8159L54.8625 32.1767ZM19.8679 15.794C19.2036 16.1199 18.5482 16.4767 17.9127 16.8576L19.1394 18.5198C19.7185 18.172 20.3196 17.8451 20.9252 17.5483L19.8679 15.794ZM19.9576 56.273C20.6219 56.5948 21.3127 56.8967 22.0202 57.1726L22.8882 55.3334C22.2428 55.0855 21.6117 54.8116 21.0061 54.5178L19.9576 56.273ZM14.3555 19.4374L15.8889 20.8778C16.3926 20.442 16.9196 20.0242 17.4555 19.6363L16.0715 18.077C15.4848 18.4998 14.9079 18.9586 14.3555 19.4374ZM6.93096 31.9578C6.79811 32.6325 6.69736 33.3212 6.63204 34.0009L8.83746 34.1748C8.89836 33.5531 8.99025 32.9244 9.11093 32.3077L6.93096 31.9578ZM6.53571 36.06C6.53571 36.7397 6.57225 37.4314 6.64643 38.1171L8.85186 37.9382C8.78321 37.3114 8.75 36.6767 8.75 36.056L6.53571 36.06ZM28.6099 58.8019C29.3561 58.8928 30.1234 58.9528 30.8862 58.9828L30.9814 56.9837C30.2839 56.9567 29.5853 56.9017 28.9044 56.8187L28.6099 58.8019ZM49.4541 22.1442C49.9136 22.616 50.3531 23.1088 50.7594 23.6096L52.5464 22.4281C52.1035 21.8783 51.6186 21.3386 51.1148 20.8228L49.4541 22.1442ZM46.4294 19.5524C46.9741 19.9432 47.5044 20.358 48.0037 20.7878L49.5305 19.3385C48.9769 18.8687 48.4023 18.4139 47.8067 17.9871L46.4294 19.5524ZM37.1969 56.4769L37.6907 58.425C38.4292 58.2731 39.1699 58.0882 39.8906 57.8763L39.2075 55.9771C38.5476 56.168 37.8679 56.337 37.1969 56.4769ZM24.1592 57.8913C24.8766 58.1012 25.6184 58.2851 26.3646 58.437L26.8518 56.4859C26.172 56.348 25.4966 56.186 24.8423 55.9861L24.1592 57.8913ZM13.1786 49.0062H11.8434C12.6543 48.4264 13.2451 47.633 13.534 46.7362C13.8228 45.8395 13.7953 44.8837 13.4553 44.0017C13.1153 43.1197 12.4796 42.3551 11.6364 41.814C10.7932 41.273 9.78445 40.9823 8.75 40.9823C7.71555 40.9823 6.70676 41.273 5.8636 41.814C5.02045 42.3551 4.38474 43.1197 4.04471 44.0017C3.70468 44.8837 3.67718 45.8395 3.96602 46.7362C4.25487 47.633 4.84574 48.4264 5.65664 49.0062H4.32143C3.44053 49.0062 2.59571 49.3222 1.97282 49.8845C1.34994 50.4469 1 51.2096 1 52.0049V62.0004C1 62.2655 1.11665 62.5198 1.32427 62.7072C1.5319 62.8947 1.81351 63 2.10714 63H15.3929C15.6865 63 15.9681 62.8947 16.1757 62.7072C16.3834 62.5198 16.5 62.2655 16.5 62.0004V52.0049C16.5 51.2096 16.1501 50.4469 15.5272 49.8845C14.9043 49.3222 14.0595 49.0062 13.1786 49.0062ZM8.75 43.0089C9.29743 43.0089 9.83257 43.1555 10.2877 43.43C10.7429 43.7046 11.0977 44.0949 11.3072 44.5515C11.5167 45.0081 11.5715 45.5106 11.4647 45.9953C11.3579 46.48 11.0943 46.9253 10.7072 47.2748C10.3201 47.6242 9.82689 47.8622 9.28998 47.9587C8.75307 48.0551 8.19655 48.0056 7.69079 47.8165C7.18503 47.6273 6.75275 47.307 6.44861 46.8961C6.14447 46.4852 5.98214 46.002 5.98214 45.5078C5.98214 44.845 6.27376 44.2094 6.79283 43.7408C7.3119 43.2722 8.01592 43.0089 8.75 43.0089ZM14.2857 61.0009H3.21429V52.0049C3.21429 51.7398 3.33093 51.4855 3.53856 51.2981C3.74619 51.1106 4.0278 51.0053 4.32143 51.0053H13.1786C13.4722 51.0053 13.7538 51.1106 13.9614 51.2981C14.1691 51.4855 14.2857 51.7398 14.2857 52.0049V61.0009ZM59.6786 49.0062H58.3434C59.1543 48.4264 59.7451 47.633 60.034 46.7362C60.3228 45.8395 60.2953 44.8837 59.9553 44.0017C59.6153 43.1197 58.9795 42.3551 58.1364 41.814C57.2932 41.273 56.2844 40.9823 55.25 40.9823C54.2156 40.9823 53.2068 41.273 52.3636 41.814C51.5204 42.3551 50.8847 43.1197 50.5447 44.0017C50.2047 44.8837 50.1772 45.8395 50.466 46.7362C50.7549 47.633 51.3457 48.4264 52.1566 49.0062H50.8214C49.9405 49.0062 49.0957 49.3222 48.4728 49.8845C47.8499 50.4469 47.5 51.2096 47.5 52.0049V62.0004C47.5 62.2655 47.6166 62.5198 47.8243 62.7072C48.0319 62.8947 48.3135 63 48.6071 63H61.8929C62.1865 63 62.4681 62.8947 62.6757 62.7072C62.8834 62.5198 63 62.2655 63 62.0004V52.0049C63 51.2096 62.6501 50.4469 62.0272 49.8845C61.4043 49.3222 60.5595 49.0062 59.6786 49.0062ZM55.25 43.0089C55.7974 43.0089 56.3326 43.1555 56.7877 43.43C57.2429 43.7046 57.5977 44.0949 57.8072 44.5515C58.0167 45.0081 58.0715 45.5106 57.9647 45.9953C57.8579 46.48 57.5943 46.9253 57.2072 47.2748C56.8201 47.6242 56.3269 47.8622 55.79 47.9587C55.2531 48.0551 54.6965 48.0056 54.1908 47.8165C53.685 47.6273 53.2527 47.307 52.9486 46.8961C52.6445 46.4852 52.4821 46.002 52.4821 45.5078C52.4821 44.845 52.7738 44.2094 53.2928 43.7408C53.8119 43.2722 54.5159 43.0089 55.25 43.0089ZM60.7857 61.0009H49.7143V52.0049C49.7143 51.7398 49.8309 51.4855 50.0386 51.2981C50.2462 51.1106 50.5278 51.0053 50.8214 51.0053H59.6786C59.9722 51.0053 60.2538 51.1106 60.4614 51.2981C60.6691 51.4855 60.7857 51.7398 60.7857 52.0049V61.0009Z" fill="#0B4870"/>
<path d="M32 34.5127C31.2336 34.5127 30.4844 34.7179 29.8472 35.1023C29.2099 35.4867 28.7133 36.0331 28.42 36.6723C28.1267 37.3116 28.0499 38.015 28.1995 38.6936C28.349 39.3723 28.718 39.9956 29.26 40.4849C29.8019 40.9742 30.4923 41.3074 31.244 41.4423C31.9957 41.5773 32.7748 41.5081 33.4829 41.2433C34.191 40.9785 34.7962 40.5301 35.2219 39.9548C35.6477 39.3794 35.875 38.7031 35.875 38.0111C35.875 37.0833 35.4667 36.1934 34.74 35.5374C34.0133 34.8813 33.0277 34.5127 32 34.5127ZM32 39.5105C31.6715 39.5105 31.3505 39.4225 31.0774 39.2578C30.8043 39.093 30.5914 38.8589 30.4657 38.5849C30.34 38.3109 30.3071 38.0095 30.3712 37.7186C30.4353 37.4278 30.5934 37.1606 30.8257 36.9509C31.058 36.7413 31.3539 36.5985 31.676 36.5406C31.9982 36.4828 32.3321 36.5125 32.6355 36.6259C32.939 36.7394 33.1983 36.9316 33.3808 37.1782C33.5633 37.4247 33.6607 37.7146 33.6607 38.0111C33.6607 38.4088 33.4857 38.7901 33.1743 39.0713C32.8629 39.3525 32.4404 39.5105 32 39.5105ZM10.2059 28.6813L8.13221 27.9816C7.86539 28.6253 7.62957 29.281 7.43139 29.9467L9.56707 30.4715C9.74643 29.8718 9.96786 29.269 10.2059 28.6813ZM42.9474 17.4893C43.5641 17.7892 44.1653 18.111 44.7388 18.4509L45.9566 16.7796C45.33 16.4078 44.669 16.0529 43.9926 15.7261L42.9474 17.4893ZM57.3635 38.0701C57.4311 37.3914 57.4643 36.6987 57.4643 36.012V35.9191L55.25 36.012C55.25 36.6397 55.219 37.2735 55.1581 37.8942L57.3635 38.0701ZM51.9175 25.1769C52.274 25.7086 52.6084 26.2654 52.9139 26.8291L54.9068 25.9535C54.5746 25.3348 54.2071 24.7271 53.8174 24.1443L51.9175 25.1769ZM41.155 55.3134L42.0285 57.1496C42.7304 56.8777 43.4213 56.5759 44.0834 56.25L43.0327 54.4908C42.4282 54.7886 41.796 55.0645 41.155 55.3134ZM12.0061 25.2898L10.104 24.2693C9.71321 24.861 9.35118 25.4687 9.02568 26.0845L11.0185 26.9501C11.3186 26.3893 11.6507 25.8306 12.0061 25.2898ZM53.741 28.5554C53.9856 29.1401 54.206 29.7418 54.3931 30.3446L56.5243 29.8038C56.3195 29.1441 56.0815 28.4854 55.8102 27.8467L53.741 28.5554ZM33.0684 56.9807L33.1702 58.9798C33.9242 58.9478 34.6904 58.8858 35.441 58.7949L35.1476 56.8137C34.459 56.8957 33.7592 56.9517 33.0684 56.9807ZM14.4507 22.2432L12.78 20.9308C12.2862 21.4435 11.809 21.9863 11.3595 22.544L13.1531 23.7175C13.5627 23.2067 13.999 22.711 14.4507 22.2432ZM54.8625 32.1767C54.9887 32.7935 55.0839 33.4212 55.1481 34.0419L57.3536 33.857C57.2838 33.1763 57.1775 32.4906 57.0402 31.8159L54.8625 32.1767ZM19.8679 15.794C19.2036 16.1199 18.5482 16.4767 17.9127 16.8576L19.1394 18.5198C19.7185 18.172 20.3196 17.8451 20.9252 17.5483L19.8679 15.794ZM19.9576 56.273C20.6219 56.5948 21.3127 56.8967 22.0202 57.1726L22.8882 55.3334C22.2428 55.0855 21.6117 54.8116 21.0061 54.5178L19.9576 56.273ZM14.3555 19.4374L15.8889 20.8778C16.3926 20.442 16.9196 20.0242 17.4555 19.6363L16.0715 18.077C15.4848 18.4998 14.9079 18.9586 14.3555 19.4374ZM6.93096 31.9578C6.79811 32.6325 6.69736 33.3212 6.63204 34.0009L8.83746 34.1748C8.89836 33.5531 8.99025 32.9244 9.11093 32.3077L6.93096 31.9578ZM6.53571 36.06C6.53571 36.7397 6.57225 37.4314 6.64643 38.1171L8.85186 37.9382C8.78321 37.3114 8.75 36.6767 8.75 36.056L6.53571 36.06ZM28.6099 58.8019C29.3561 58.8928 30.1234 58.9528 30.8862 58.9828L30.9814 56.9837C30.2839 56.9567 29.5853 56.9017 28.9044 56.8187L28.6099 58.8019ZM49.4541 22.1442C49.9136 22.616 50.3531 23.1088 50.7594 23.6096L52.5464 22.4281C52.1035 21.8783 51.6186 21.3386 51.1148 20.8228L49.4541 22.1442ZM46.4294 19.5524C46.9741 19.9432 47.5044 20.358 48.0037 20.7878L49.5305 19.3385C48.9769 18.8687 48.4023 18.4139 47.8067 17.9871L46.4294 19.5524ZM37.1969 56.4769L37.6907 58.425C38.4292 58.2731 39.1699 58.0882 39.8906 57.8763L39.2075 55.9771C38.5476 56.168 37.8679 56.337 37.1969 56.4769ZM24.1592 57.8913C24.8766 58.1012 25.6184 58.2851 26.3646 58.437L26.8518 56.4859C26.172 56.348 25.4966 56.186 24.8423 55.9861L24.1592 57.8913ZM13.1786 49.0062H11.8434C12.6543 48.4264 13.2451 47.633 13.534 46.7362C13.8228 45.8395 13.7953 44.8837 13.4553 44.0017C13.1153 43.1197 12.4796 42.3551 11.6364 41.814C10.7932 41.273 9.78445 40.9823 8.75 40.9823C7.71555 40.9823 6.70676 41.273 5.8636 41.814C5.02045 42.3551 4.38474 43.1197 4.04471 44.0017C3.70468 44.8837 3.67718 45.8395 3.96602 46.7362C4.25487 47.633 4.84574 48.4264 5.65664 49.0062H4.32143C3.44053 49.0062 2.59571 49.3222 1.97282 49.8845C1.34994 50.4469 1 51.2096 1 52.0049V62.0004C1 62.2655 1.11665 62.5198 1.32427 62.7072C1.5319 62.8947 1.81351 63 2.10714 63H15.3929C15.6865 63 15.9681 62.8947 16.1757 62.7072C16.3834 62.5198 16.5 62.2655 16.5 62.0004V52.0049C16.5 51.2096 16.1501 50.4469 15.5272 49.8845C14.9043 49.3222 14.0595 49.0062 13.1786 49.0062ZM8.75 43.0089C9.29743 43.0089 9.83257 43.1555 10.2877 43.43C10.7429 43.7046 11.0977 44.0949 11.3072 44.5515C11.5167 45.0081 11.5715 45.5106 11.4647 45.9953C11.3579 46.48 11.0943 46.9253 10.7072 47.2748C10.3201 47.6242 9.82689 47.8622 9.28998 47.9587C8.75307 48.0551 8.19655 48.0056 7.69079 47.8165C7.18503 47.6273 6.75275 47.307 6.44861 46.8961C6.14447 46.4852 5.98214 46.002 5.98214 45.5078C5.98214 44.845 6.27376 44.2094 6.79283 43.7408C7.3119 43.2722 8.01592 43.0089 8.75 43.0089ZM14.2857 61.0009H3.21429V52.0049C3.21429 51.7398 3.33093 51.4855 3.53856 51.2981C3.74619 51.1106 4.0278 51.0053 4.32143 51.0053H13.1786C13.4722 51.0053 13.7538 51.1106 13.9614 51.2981C14.1691 51.4855 14.2857 51.7398 14.2857 52.0049V61.0009ZM59.6786 49.0062H58.3434C59.1543 48.4264 59.7451 47.633 60.034 46.7362C60.3228 45.8395 60.2953 44.8837 59.9553 44.0017C59.6153 43.1197 58.9795 42.3551 58.1364 41.814C57.2932 41.273 56.2844 40.9823 55.25 40.9823C54.2156 40.9823 53.2068 41.273 52.3636 41.814C51.5204 42.3551 50.8847 43.1197 50.5447 44.0017C50.2047 44.8837 50.1772 45.8395 50.466 46.7362C50.7549 47.633 51.3457 48.4264 52.1566 49.0062H50.8214C49.9405 49.0062 49.0957 49.3222 48.4728 49.8845C47.8499 50.4469 47.5 51.2096 47.5 52.0049V62.0004C47.5 62.2655 47.6166 62.5198 47.8243 62.7072C48.0319 62.8947 48.3135 63 48.6071 63H61.8929C62.1865 63 62.4681 62.8947 62.6757 62.7072C62.8834 62.5198 63 62.2655 63 62.0004V52.0049C63 51.2096 62.6501 50.4469 62.0272 49.8845C61.4043 49.3222 60.5595 49.0062 59.6786 49.0062ZM55.25 43.0089C55.7974 43.0089 56.3326 43.1555 56.7877 43.43C57.2429 43.7046 57.5977 44.0949 57.8072 44.5515C58.0167 45.0081 58.0715 45.5106 57.9647 45.9953C57.8579 46.48 57.5943 46.9253 57.2072 47.2748C56.8201 47.6242 56.3269 47.8622 55.79 47.9587C55.2531 48.0551 54.6965 48.0056 54.1908 47.8165C53.685 47.6273 53.2527 47.307 52.9486 46.8961C52.6445 46.4852 52.4821 46.002 52.4821 45.5078C52.4821 44.845 52.7738 44.2094 53.2928 43.7408C53.8119 43.2722 54.5159 43.0089 55.25 43.0089ZM60.7857 61.0009H49.7143V52.0049C49.7143 51.7398 49.8309 51.4855 50.0386 51.2981C50.2462 51.1106 50.5278 51.0053 50.8214 51.0053H59.6786C59.9722 51.0053 60.2538 51.1106 60.4614 51.2981C60.6691 51.4855 60.7857 51.7398 60.7857 52.0049V61.0009Z" stroke="#0B4870" stroke-width="0.2" mask="url(#path-2-outside-2_234_532)"/>
</svg>
