<svg width="20" height="14" viewBox="0 0 20 14" fill="none" xmlns="http://www.w3.org/2000/svg">
<path d="M17.0217 2.2048C15.7373 1.17726 14.1961 0.663514 12.5691 0.577881L12.3122 0.834781C13.7679 1.17726 15.0523 1.86226 16.2511 2.80417C14.7954 2.03353 13.1685 1.51979 11.456 1.34852C10.9422 1.26289 10.5141 1.26289 10.0003 1.26289C9.48658 1.26289 9.05842 1.26289 8.54467 1.34852C6.83212 1.51979 5.20521 2.03353 3.74956 2.80417C4.94831 1.86226 6.23275 1.17726 7.6884 0.834781L7.4315 0.577881C5.80458 0.663514 4.2633 1.17726 2.97892 2.2048C1.52326 4.94489 0.75262 8.02746 0.666992 11.1956C1.95138 12.5657 3.74956 13.4219 5.63337 13.4219C5.63337 13.4219 6.23275 12.7369 6.66086 12.1375C5.54774 11.8807 4.5202 11.2812 3.83519 10.3394C4.43457 10.6819 5.03394 11.0244 5.63337 11.2812C6.40402 11.6238 7.17466 11.795 7.9453 11.9663C8.63031 12.0519 9.31532 12.1375 10.0003 12.1375C10.6853 12.1375 11.3703 12.0519 12.0553 11.9663C12.826 11.795 13.5966 11.6238 14.3673 11.2812C14.9667 11.0244 15.5661 10.6819 16.1655 10.3394C15.4804 11.2812 14.4529 11.8807 13.3398 12.1375C13.7679 12.7369 14.3673 13.4219 14.3673 13.4219C16.2511 13.4219 18.0493 12.5657 19.3337 11.1956C19.248 8.02746 18.4774 4.94489 17.0217 2.2048ZM7.17466 9.65431C6.31838 9.65431 5.54774 8.88367 5.54774 7.94182C5.54774 6.99991 6.31838 6.22927 7.17466 6.22927C8.03093 6.22927 8.80157 6.99991 8.80157 7.94182C8.80157 8.88367 8.03093 9.65431 7.17466 9.65431ZM12.826 9.65431C11.9697 9.65431 11.1991 8.88367 11.1991 7.94182C11.1991 6.99991 11.9697 6.22927 12.826 6.22927C13.6823 6.22927 14.4529 6.99991 14.4529 7.94182C14.4529 8.88367 13.6823 9.65431 12.826 9.65431Z" fill="white"/>
</svg>
