<svg width="62" height="62" viewBox="0 0 62 62" fill="none" xmlns="http://www.w3.org/2000/svg">
<path d="M38.0367 61.9976H23.9633C23.6219 62.0163 23.2837 61.9251 22.9997 61.7377C22.7157 61.5504 22.5014 61.2771 22.3891 60.9592L20.8149 56.666C18.0936 55.6458 15.5538 54.2072 13.2901 52.4039L8.96105 53.2408C8.63884 53.3037 8.30472 53.2658 8.0055 53.1324C7.70627 52.999 7.45692 52.7767 7.29238 52.4968L0.208437 40.5008C0.0535508 40.226 -0.0128317 39.9113 0.0180944 39.5985C0.0490205 39.2858 0.175794 38.9896 0.3816 38.7494L3.38834 35.3087C2.9265 32.475 2.9265 29.587 3.38834 26.7533L0.3816 23.2506C0.168995 23.0076 0.0381679 22.7058 0.00715379 22.3865C-0.0238603 22.0673 0.0464657 21.7465 0.208437 21.4682L7.24516 9.47216C7.41693 9.18906 7.67594 8.96727 7.98453 8.83906C8.29312 8.71084 8.6352 8.68287 8.96105 8.75921L13.479 9.59615C15.7427 7.79282 18.2825 6.35424 21.0038 5.33398L22.578 1.04081C22.6903 0.722906 22.9046 0.449631 23.1886 0.262287C23.4726 0.0749437 23.8109 -0.0162857 24.1522 0.00238822H38.2256C38.567 -0.0162857 38.9052 0.0749437 39.1892 0.262287C39.4732 0.449631 39.6875 0.722906 39.7998 1.04081L41.3741 5.33398C44.0953 6.35424 46.6351 7.79282 48.8988 9.59615L53.0389 8.75921C53.3612 8.69631 53.6953 8.73422 53.9945 8.86763C54.2937 9.00103 54.5431 9.22325 54.7076 9.50316L61.7443 21.4992C61.9057 21.7695 61.98 22.0815 61.9575 22.3942C61.9351 22.7068 61.8168 23.0055 61.6184 23.2506L58.6117 26.6913C59.0735 29.525 59.0735 32.413 58.6117 35.2467L61.6184 38.7494C61.831 38.9924 61.9618 39.2942 61.9928 39.6135C62.0239 39.9327 61.9535 40.2535 61.7916 40.5318L54.7548 52.5278C54.5903 52.8077 54.341 53.03 54.0417 53.1634C53.7425 53.2968 53.4084 53.3347 53.0862 53.2718L48.5682 52.4349C46.3045 54.2382 43.7647 55.6768 41.0435 56.697L39.4693 60.9902C39.3596 61.2795 39.1646 61.53 38.9094 61.7095C38.6542 61.889 38.3503 61.9893 38.0367 61.9976ZM25.081 58.8979H36.919L38.3043 54.9612C38.3826 54.743 38.5094 54.5448 38.6756 54.3812C38.8418 54.2177 39.043 54.0928 39.2646 54.0157C42.1454 53.0257 44.8144 51.5174 47.1357 49.5676C47.3145 49.4138 47.5263 49.3019 47.7553 49.2402C47.9843 49.1784 48.2245 49.1685 48.458 49.2111L52.6139 50.0015L58.5329 39.8963L55.7781 36.7966C55.6242 36.6222 55.5118 36.4163 55.4492 36.1937C55.3865 35.9711 55.3752 35.7376 55.416 35.5102C55.9825 32.5605 55.9825 29.5325 55.416 26.5828C55.3752 26.3554 55.3865 26.1219 55.4492 25.8993C55.5118 25.6767 55.6242 25.4708 55.7781 25.2964L58.5329 22.1967L52.6139 12.0915L48.458 12.8819C48.2245 12.9245 47.9843 12.9146 47.7553 12.8528C47.5263 12.7911 47.3145 12.6792 47.1357 12.5254C44.8144 10.5756 42.1454 9.0673 39.2646 8.07727C39.043 8.00024 38.8418 7.87534 38.6756 7.71174C38.5094 7.54815 38.3826 7.35 38.3043 7.13184L36.919 3.10215H25.081L23.6957 7.03885C23.6174 7.25701 23.4906 7.45515 23.3244 7.61875C23.1582 7.78235 22.957 7.90724 22.7354 7.98427C19.8546 8.97431 17.1856 10.4826 14.8643 12.4324C14.6855 12.5862 14.4737 12.6981 14.2447 12.7598C14.0157 12.8216 13.7754 12.8315 13.542 12.7889L9.38609 11.9985L3.49854 22.1037L6.25341 25.2034C6.4073 25.3778 6.51967 25.5837 6.58231 25.8063C6.64496 26.0289 6.65629 26.2624 6.61547 26.4898C6.04857 29.4394 6.04857 32.4676 6.61547 35.4172C6.65629 35.6446 6.64496 35.8781 6.58231 36.1007C6.51967 36.3233 6.4073 36.5292 6.25341 36.7036L3.49854 39.8033L9.41757 49.9085L13.5735 49.1181C13.8069 49.0755 14.0471 49.0854 14.2761 49.1472C14.5051 49.2089 14.717 49.3208 14.8958 49.4746C17.2171 51.4244 19.886 52.9327 22.7669 53.9227C22.9885 53.9998 23.1897 54.1247 23.3559 54.2883C23.5221 54.4519 23.6489 54.65 23.7271 54.8682L25.081 58.8979Z" fill="#0B4870"/>
<path d="M31 51.1487C28.0527 51.1596 25.1393 50.5298 22.4678 49.3043C21.877 49.0526 21.3038 48.7627 20.7519 48.4364C16.8505 46.2187 13.8013 42.7955 12.0773 38.6978C10.3533 34.6001 10.0509 30.0567 11.2169 25.7725C12.3828 21.4883 14.9521 17.7026 18.5261 15.0025C22.1002 12.3024 26.4793 10.8389 30.9843 10.8389C35.4893 10.8389 39.8684 12.3024 43.4424 15.0025C47.0165 17.7026 49.5857 21.4883 50.7517 25.7725C51.9177 30.0567 51.6152 34.6001 49.8912 38.6978C48.1673 42.7955 45.1181 46.2187 41.2167 48.4364C40.6607 48.7605 40.082 49.0454 39.485 49.2888C36.8317 50.5203 33.9334 51.1556 31 51.1487ZM31 13.9515C27.1913 13.9552 23.49 15.1952 20.4693 17.4793C17.4487 19.7635 15.2772 22.9644 14.2912 26.5864C13.3051 30.2085 13.5595 34.0496 15.0149 37.5149C16.4703 40.9802 19.0455 43.8764 22.3419 45.7551C22.794 46.0297 23.2678 46.2681 23.7587 46.468C26.0228 47.5018 28.4885 48.0373 30.9843 48.0373C33.48 48.0373 35.9458 47.5018 38.2099 46.468C38.7044 46.265 39.1832 46.0267 39.6424 45.7551C42.9376 43.8771 45.5122 40.9823 46.9679 37.5185C48.4236 34.0547 48.6792 30.2151 47.6952 26.5939C46.7112 22.9727 44.5423 19.7717 41.5243 17.4864C38.5063 15.201 34.8074 13.9586 31 13.9515Z" fill="#0B4870"/>
<path d="M31 51.1482C28.0527 51.1591 25.1393 50.5293 22.4677 49.3038C22.1945 49.1793 21.9632 48.9803 21.8014 48.7303C21.6396 48.4803 21.554 48.1899 21.5547 47.8934V32.5496C21.5537 32.2594 21.6356 31.9748 21.7908 31.7282L29.6619 19.3291C29.8031 19.1048 30.0001 18.9198 30.2342 18.7914C30.4684 18.6631 30.732 18.5957 31 18.5957C31.268 18.5957 31.5315 18.6631 31.7657 18.7914C31.9999 18.9198 32.1969 19.1048 32.338 19.3291L40.2091 31.7282C40.3644 31.9748 40.4462 32.2594 40.4452 32.5496V47.8934C40.446 48.1899 40.3603 48.4803 40.1985 48.7303C40.0367 48.9803 39.8054 49.1793 39.5322 49.3038C36.8606 50.5293 33.9472 51.1591 31 51.1482ZM24.7031 46.8705C28.7505 48.4359 33.2494 48.4359 37.2968 46.8705V32.9216L31 23.0024L24.7031 32.9216V46.8705Z" fill="#0B4870"/>
<path d="M31 38.7491C25.7106 38.7491 21.5547 36.0214 21.5547 32.5496C21.5547 32.1386 21.7205 31.7443 22.0158 31.4537C22.311 31.163 22.7114 30.9997 23.1289 30.9997C23.5464 30.9997 23.9468 31.163 24.242 31.4537C24.5373 31.7443 24.7031 32.1386 24.7031 32.5496C24.7031 34.0065 27.395 35.6494 31 35.6494C34.6049 35.6494 37.2968 34.0065 37.2968 32.5496C37.2968 32.1386 37.4626 31.7443 37.7579 31.4537C38.0531 31.163 38.4535 30.9997 38.871 30.9997C39.2885 30.9997 39.6889 31.163 39.9841 31.4537C40.2794 31.7443 40.4452 32.1386 40.4452 32.5496C40.4452 36.0214 36.2893 38.7491 31 38.7491ZM31 29.4499C29.1663 29.4498 27.3902 28.8194 25.9782 27.6675C25.6846 27.428 25.4893 27.0918 25.4285 26.7212C25.3677 26.3507 25.4456 25.971 25.6476 25.6526L29.6619 19.3291C29.8031 19.1048 30.0001 18.9198 30.2342 18.7914C30.4684 18.6631 30.7319 18.5957 31 18.5957C31.268 18.5957 31.5315 18.6631 31.7657 18.7914C31.9998 18.9198 32.1969 19.1048 32.338 19.3291L36.3523 25.6526C36.5543 25.971 36.6322 26.3507 36.5714 26.7212C36.5106 27.0918 36.3153 27.428 36.0217 27.6675C34.6097 28.8194 32.8336 29.4498 31 29.4499ZM29.1581 25.9781C30.3375 26.4586 31.6624 26.4586 32.8418 25.9781L31 23.0798L29.1581 25.9781Z" fill="#0B4870"/>
</svg>
