<svg width="28" height="28" viewBox="0 0 28 28" fill="none" xmlns="http://www.w3.org/2000/svg">
<path d="M12.4285 0.0999559C5.97538 0.822021 0.784864 6.1653 0.0834434 12.6639C-0.617978 19.4513 3.1697 25.5167 8.92135 27.8273C9.3422 27.9717 9.76305 27.6828 9.76305 27.1052V24.7946C9.76305 24.7946 9.20192 24.939 8.5005 24.939C6.53652 24.939 5.69481 23.206 5.55453 22.1952C5.41424 21.6175 5.13368 21.1843 4.71282 20.751C4.29197 20.6066 4.15169 20.6066 4.15169 20.4622C4.15169 20.1734 4.57254 20.1734 4.71282 20.1734C5.55453 20.1734 6.25595 21.1843 6.53652 21.6175C7.23794 22.7728 8.07964 23.0616 8.5005 23.0616C9.06163 23.0616 9.48248 22.9172 9.76305 22.7728C9.90334 21.7619 10.3242 20.751 11.1659 20.1734C7.93936 19.4513 5.55453 17.5739 5.55453 14.3968C5.55453 12.8083 6.25595 11.2198 7.23794 10.0645C7.09765 9.77563 6.95737 9.05356 6.95737 8.04267C6.95737 7.46502 6.95737 6.59854 7.37822 5.73206C7.37822 5.73206 9.3422 5.73207 11.3062 7.60943C12.0076 7.32061 12.9896 7.1762 13.9716 7.1762C14.9536 7.1762 15.9356 7.32061 16.7773 7.60943C18.601 5.73207 20.7052 5.73206 20.7052 5.73206C20.9858 6.59854 20.9858 7.46502 20.9858 8.04267C20.9858 9.19798 20.8455 9.77563 20.7052 10.0645C21.6872 11.2198 22.3886 12.6639 22.3886 14.3968C22.3886 17.5739 20.0038 19.4513 16.7773 20.1734C17.619 20.8954 18.1801 22.1952 18.1801 23.4949V27.2496C18.1801 27.6828 18.601 28.1161 19.1621 27.9717C24.3526 25.8055 28 20.6066 28 14.5413C28 5.87648 20.8455 -0.910935 12.4285 0.0999559Z" fill="#7E7E7E"/>
</svg>
