<svg width="393" height="326" viewBox="0 0 393 326" fill="none" xmlns="http://www.w3.org/2000/svg">
<path d="M393 201.05L388.495 221.324L311.904 201.05H393Z" fill="#E22953"/>
<path d="M352.757 94.049L311.646 115.449L338.114 85.2974L352.757 94.049Z" fill="#E22953"/>
<path d="M315.025 313.3L303.761 325.51L272.787 271.728L315.025 313.3Z" fill="#E22953"/>
<path d="M286.301 14.642L241.811 68.1428L263.211 5.63135L286.301 14.642Z" fill="#E22953"/>
<path d="M167.236 264.384V264.52C167.236 265.139 167.743 265.635 168.362 265.635C168.937 265.635 169.421 265.195 169.477 264.632C175.413 265.319 180.908 266.096 185.967 266.941C185.955 267.009 185.944 267.065 185.944 267.133C185.944 267.752 186.45 268.259 187.071 268.259C187.621 268.259 188.083 267.853 188.173 267.324V267.313C206.127 270.422 218.258 274.15 224.599 276.402C228.102 277.653 229.848 278.452 229.848 278.452L222.797 294.818C221.602 294.469 220.409 294.12 219.215 293.793C177.845 282.248 139.368 281.899 126.901 282.147C124.186 282.203 122.7 282.282 122.7 282.282L121.427 262.008C124.107 262.008 126.732 262.03 129.3 262.075C143.448 262.312 156.085 263.179 167.236 264.384Z" fill="#2A94F4"/>
<path d="M202.312 189.258C204.07 184.482 205.724 180.968 207.257 178.806C209.6 175.483 213.869 173.5 218.688 173.5C222.89 173.5 226.37 175.044 226.956 177.195C227.531 179.279 225.279 182.016 220.773 184.685C215.816 187.625 209.61 189.168 202.312 189.258Z" fill="#FFA62B"/>
<path d="M207.257 178.805C205.725 180.968 204.069 184.482 202.311 189.257C209.61 189.167 215.816 187.624 220.773 184.685C225.278 182.015 227.531 179.278 226.955 177.194C226.37 175.043 222.89 173.5 218.688 173.5C213.868 173.5 209.6 175.482 207.257 178.805ZM201.085 189.325C202.785 184.64 204.565 180.664 206.333 178.152C214.601 166.415 240.315 174.39 221.347 185.653C215.738 188.976 208.934 190.361 201.839 190.395C201.839 190.237 201.817 190.08 201.749 189.945C201.727 189.888 201.693 189.821 201.648 189.753C201.614 189.697 201.558 189.629 201.501 189.584C201.456 189.539 201.4 189.494 201.344 189.46C201.299 189.426 201.254 189.393 201.208 189.37C201.163 189.359 201.13 189.336 201.085 189.325ZM201.738 190.846C201.659 191.071 201.58 191.296 201.513 191.521C201.243 191.521 200.983 191.51 200.713 191.51C201.175 191.51 201.569 191.24 201.738 190.846Z" fill="black"/>
<path d="M201.648 189.753C201.693 189.82 201.727 189.888 201.749 189.943C201.727 189.876 201.693 189.809 201.648 189.753Z" fill="black"/>
<path d="M201.648 189.753C201.693 189.81 201.727 189.877 201.749 189.945C201.818 190.08 201.839 190.238 201.839 190.395C201.468 190.395 201.085 190.395 200.713 190.384C200.837 190.024 200.962 189.674 201.085 189.325C201.13 189.336 201.163 189.359 201.208 189.37C201.254 189.393 201.31 189.427 201.344 189.46C201.4 189.494 201.456 189.539 201.501 189.584C201.558 189.629 201.614 189.697 201.648 189.753Z" fill="black"/>
<path d="M199.935 189.235C201.872 183.817 203.663 179.977 205.407 177.499C208.167 173.579 213.134 171.248 218.687 171.248C224.061 171.248 228.249 173.388 229.129 176.598C229.749 178.85 228.994 182.421 221.921 186.622C216.448 189.866 209.6 191.522 201.579 191.522C201.555 191.522 201.534 191.522 201.51 191.522C201.579 191.296 201.657 191.071 201.736 190.846C201.804 190.711 201.837 190.553 201.837 190.395C208.933 190.361 215.736 188.976 221.345 185.653C240.312 174.39 214.598 166.416 206.331 178.152C204.563 180.664 202.783 184.64 201.082 189.325C201.003 189.291 200.914 189.269 200.812 189.269C200.801 189.258 200.789 189.258 200.779 189.258C200.756 189.258 200.746 189.258 200.722 189.258C200.711 189.258 200.711 189.258 200.699 189.258C200.441 189.258 200.194 189.246 199.935 189.235Z" fill="black"/>
<path d="M201.582 191.522C209.601 191.522 216.449 189.866 221.923 186.622C228.997 182.421 229.751 178.851 229.132 176.598C228.253 173.388 224.063 171.248 218.69 171.248C213.137 171.248 208.17 173.579 205.41 177.499C203.664 179.977 201.874 183.818 199.937 189.235C191.613 188.988 182.119 186.881 173.649 183.356C173.333 174.458 172.815 169.074 172.106 166.9C170.934 163.386 167.396 161.1 163.095 161.1C160.054 161.1 157.305 162.316 155.729 164.332C154.704 165.65 153.668 167.959 154.557 171.451C155.627 175.629 162.07 180.754 171.452 184.865C172.003 201.467 171.779 224.411 171.71 229.975L168.5 229.592C168.174 229.558 167.858 229.648 167.622 229.862C167.374 230.076 167.239 230.38 167.239 230.707V253.065C150.32 248.379 135.409 239.841 123.785 228.668C106.867 212.393 96.9331 190.553 97.9468 166.945C99.9967 119.572 145.422 83.0672 199.419 85.3987C253.404 87.7302 295.517 128.03 293.468 175.393C292.048 208.203 269.826 235.798 238.355 248.886C224.39 254.709 208.598 257.66 192.008 256.939C191.445 256.917 190.882 256.883 190.318 256.849L195.015 233.939C195.083 233.635 195.004 233.309 194.824 233.05C194.644 232.802 194.362 232.633 194.047 232.599L191.152 232.261C192.177 227.125 196.434 206.311 201.514 191.522C201.537 191.522 201.559 191.522 201.582 191.522Z" fill="#FFA62B"/>
<path d="M201.5 189.584C201.455 189.539 201.399 189.494 201.343 189.461C201.399 189.494 201.455 189.539 201.5 189.584ZM201.343 189.461C201.309 189.427 201.253 189.393 201.208 189.37C201.253 189.393 201.298 189.427 201.343 189.461ZM201.208 189.37C201.163 189.359 201.129 189.337 201.084 189.325C201.129 189.337 201.163 189.359 201.208 189.37ZM200.813 189.269C200.802 189.258 200.791 189.258 200.781 189.258C200.791 189.258 200.802 189.258 200.813 189.269ZM200.712 190.384C201.084 190.395 201.467 190.395 201.838 190.395C201.838 190.553 201.806 190.711 201.737 190.846C201.568 191.24 201.174 191.51 200.712 191.51C200.701 191.51 200.701 191.51 200.701 191.51C200.577 191.51 200.464 191.488 200.352 191.443C200.464 191.082 200.588 190.733 200.712 190.384Z" fill="black"/>
<path d="M200.702 189.258C200.713 189.258 200.713 189.258 200.725 189.258C200.748 189.258 200.758 189.258 200.782 189.258C200.793 189.258 200.804 189.258 200.815 189.269C200.917 189.269 201.006 189.292 201.085 189.325C200.962 189.675 200.837 190.024 200.713 190.384C200.342 190.384 199.97 190.373 199.587 190.35C199.587 190.238 199.611 190.125 199.656 190.012C199.678 189.956 199.701 189.9 199.723 189.843C199.925 189.483 200.308 189.258 200.702 189.258Z" fill="black"/>
<path d="M200.702 189.258C200.308 189.258 199.925 189.483 199.722 189.844C199.791 189.641 199.858 189.427 199.936 189.235C200.195 189.247 200.443 189.258 200.702 189.258ZM200.702 191.511C200.578 191.511 200.454 191.511 200.331 191.499C200.342 191.477 200.342 191.454 200.354 191.443C200.466 191.488 200.578 191.511 200.702 191.511ZM200.714 190.384C200.591 190.733 200.466 191.083 200.354 191.443C200.129 191.375 199.925 191.229 199.791 191.026C199.643 190.823 199.577 190.587 199.587 190.35C199.97 190.373 200.342 190.384 200.714 190.384ZM199.655 190.013C199.61 190.125 199.586 190.238 199.586 190.35C199.575 190.35 199.564 190.35 199.541 190.35C199.576 190.238 199.621 190.125 199.655 190.013Z" fill="black"/>
<path d="M199.789 191.026C199.923 191.229 200.127 191.376 200.352 191.443C200.34 191.454 200.34 191.477 200.329 191.499C199.946 191.499 199.553 191.488 199.157 191.466C199.281 191.083 199.405 190.711 199.54 190.351C199.564 190.351 199.574 190.351 199.585 190.351C199.575 190.587 199.643 190.824 199.789 191.026Z" fill="black"/>
<path d="M199.159 191.466C194.068 206.502 189.855 227.204 188.909 231.991L173.962 230.234C174.018 225.199 174.254 202.628 173.736 185.834C182.061 189.168 190.959 191.139 199.159 191.466ZM190.317 256.849C190.88 256.883 191.443 256.917 192.007 256.939C208.596 257.66 224.389 254.709 238.354 248.886V248.897L224.601 276.402C218.26 274.15 206.131 270.422 188.176 267.313L190.317 256.849Z" fill="#FFA62B"/>
<path d="M195.012 233.939L190.315 256.849C189.932 256.827 189.56 256.804 189.188 256.782L193.908 233.714L190.946 233.365C190.969 233.207 191.047 232.836 191.148 232.261L194.043 232.599C194.358 232.633 194.64 232.802 194.82 233.05C195 233.309 195.079 233.635 195.012 233.939Z" fill="black"/>
<path d="M192.557 234.694L188.052 256.691C181.666 256.207 175.46 255.171 169.491 253.65V231.979L172.589 232.34L189.821 234.367L192.557 234.694Z" fill="#FFA62B"/>
<path d="M201.512 191.522C196.432 206.31 192.174 227.125 191.149 232.261L190.036 232.126C191.015 227.17 195.227 206.491 200.33 191.499C200.454 191.51 200.578 191.51 200.702 191.51C200.702 191.51 200.702 191.51 200.713 191.51C200.982 191.51 201.241 191.522 201.512 191.522ZM188.052 256.691L192.557 234.694L189.82 234.367V234.356C190.35 234.356 190.824 233.984 190.924 233.444C190.924 233.432 190.935 233.41 190.947 233.365L193.909 233.714L189.191 256.781C188.807 256.759 188.424 256.725 188.052 256.691ZM190.316 256.849L188.176 267.312C187.815 267.245 187.445 267.189 187.073 267.121L189.191 256.781C189.561 256.804 189.933 256.826 190.316 256.849Z" fill="black"/>
<path d="M188.907 231.991C189.853 227.204 194.066 206.502 199.157 191.465C199.552 191.488 199.945 191.499 200.328 191.499C195.226 206.491 191.013 227.17 190.034 232.126L188.907 231.991ZM191.149 232.261C191.047 232.836 190.97 233.207 190.946 233.365L189.82 233.23C189.82 233.23 189.898 232.847 190.034 232.126L191.149 232.261Z" fill="black"/>
<path d="M188.716 233.016C188.716 232.982 188.784 232.633 188.908 231.991L190.034 232.126C189.899 232.847 189.82 233.23 189.82 233.23L188.705 233.095C188.705 233.072 188.716 233.038 188.716 233.016Z" fill="black"/>
<path d="M189.606 234.333C189.019 234.221 188.626 233.68 188.703 233.094L189.818 233.229L190.945 233.365C190.934 233.41 190.922 233.432 190.922 233.443C190.821 233.984 190.347 234.356 189.818 234.356C189.752 234.356 189.684 234.344 189.606 234.333ZM188.051 256.691C188.423 256.725 188.807 256.759 189.19 256.781L187.072 267.121C186.712 267.064 186.34 266.997 185.969 266.941C185.969 266.929 185.969 266.907 185.969 266.896L188.051 256.691ZM173.961 230.233L188.908 231.99C188.784 232.632 188.717 232.982 188.717 233.015C188.717 233.038 188.704 233.072 188.704 233.094L173.939 231.371C173.951 231.337 173.951 231.292 173.951 231.247C173.95 231.213 173.95 230.864 173.961 230.233Z" fill="black"/>
<path d="M169.49 253.65C175.459 255.171 181.666 256.207 188.051 256.691L185.967 266.896C185.967 266.907 185.967 266.93 185.967 266.941C180.91 266.096 175.413 265.319 169.478 264.632C169.489 264.598 169.489 264.553 169.489 264.508V253.65H169.49Z" fill="#FFA62B"/>
<path d="M187.073 267.121C187.445 267.189 187.816 267.245 188.176 267.313V267.324C188.086 267.853 187.624 268.259 187.073 268.259C186.453 268.259 185.947 267.752 185.947 267.133C185.947 267.065 185.958 267.009 185.97 266.941C186.341 266.997 186.713 267.065 187.073 267.121ZM173.647 183.356C182.117 186.881 191.611 188.988 199.936 189.235C199.857 189.427 199.79 189.641 199.722 189.844C199.7 189.9 199.677 189.956 199.655 190.013C199.621 190.125 199.576 190.238 199.541 190.35C190.609 190.046 181.373 187.726 173.704 184.595C173.691 184.437 173.691 184.28 173.68 184.122C173.68 184.111 173.68 184.099 173.68 184.088C173.67 183.84 173.659 183.592 173.647 183.356Z" fill="black"/>
<path d="M173.705 184.595C181.375 187.726 190.611 190.046 199.542 190.35C199.406 190.711 199.284 191.082 199.159 191.465C190.959 191.139 182.061 189.168 173.737 185.834C173.727 185.417 173.716 185 173.705 184.595ZM173.953 231.247C173.953 231.292 173.952 231.338 173.941 231.371L172.826 231.236C172.826 231.236 172.837 230.831 172.837 230.099L173.964 230.234C173.953 230.864 173.953 231.214 173.953 231.247Z" fill="black"/>
<path d="M172.836 230.098C172.905 224.805 173.141 202.154 172.6 185.36C172.983 185.518 173.367 185.676 173.737 185.833C174.255 202.627 174.019 225.199 173.962 230.233L172.836 230.098Z" fill="black"/>
<path d="M173.738 185.834C173.367 185.676 172.983 185.518 172.6 185.361C172.6 185.316 172.589 185.282 172.589 185.248C172.803 185.237 173.017 185.169 173.197 185.045C173.377 184.921 173.512 184.753 173.591 184.55C173.625 184.572 173.66 184.584 173.705 184.595C173.715 185 173.726 185.417 173.738 185.834Z" fill="black"/>
<path d="M173.591 184.55C173.648 184.415 173.681 184.268 173.681 184.122C173.692 184.279 173.692 184.437 173.705 184.595C173.659 184.584 173.625 184.572 173.591 184.55ZM173.647 183.356C173.659 183.592 173.67 183.84 173.68 184.088C173.669 183.626 173.342 183.243 172.949 183.074C172.96 183.074 172.982 183.074 172.994 183.085C173.208 183.176 173.433 183.266 173.647 183.356ZM172.555 184.122C172.893 184.268 173.242 184.415 173.591 184.55C173.513 184.752 173.378 184.921 173.197 185.045C173.016 185.169 172.803 185.237 172.589 185.248C172.577 184.865 172.566 184.493 172.555 184.122ZM172.836 230.099C172.836 230.831 172.825 231.236 172.825 231.236L171.699 231.101C171.699 230.921 171.71 230.538 171.71 229.975L172.836 230.099ZM189.822 234.367L172.589 232.34C172.656 232.351 172.735 232.363 172.814 232.363H172.825C173.4 232.363 173.873 231.935 173.94 231.371L188.705 233.095C188.628 233.68 189.021 234.221 189.608 234.334C189.685 234.345 189.754 234.356 189.82 234.356V234.367H189.822ZM171.71 229.975C171.779 224.411 172.003 201.467 171.452 184.865C171.665 184.966 171.891 185.057 172.117 185.158C172.274 185.226 172.443 185.293 172.601 185.361C173.142 202.154 172.906 224.805 172.838 230.099L171.71 229.975Z" fill="black"/>
<path d="M172.508 182.995C172.655 182.984 172.814 183.017 172.949 183.074C173.343 183.243 173.67 183.626 173.68 184.087C173.68 184.099 173.68 184.11 173.68 184.121C173.68 184.268 173.647 184.414 173.59 184.549C173.241 184.414 172.891 184.268 172.554 184.121C172.542 183.738 172.531 183.367 172.508 182.995ZM172.599 185.36C172.441 185.293 172.272 185.225 172.114 185.157C172.249 185.214 172.407 185.247 172.554 185.247C172.565 185.247 172.577 185.247 172.587 185.247C172.587 185.281 172.599 185.315 172.599 185.36Z" fill="black"/>
<path d="M172.553 184.121C172.204 183.975 171.867 183.817 171.517 183.671C171.63 183.412 171.832 183.209 172.08 183.096C172.148 183.063 172.215 183.04 172.282 183.029C172.361 183.006 172.43 182.995 172.508 182.995C172.53 183.367 172.542 183.738 172.553 184.121Z" fill="black"/>
<path d="M172.286 183.029C172.218 183.041 172.152 183.063 172.083 183.097C172.151 183.074 172.218 183.041 172.286 183.029ZM172.117 185.158C171.7 184.978 171.44 184.595 171.43 184.167C171.43 184.077 171.43 183.987 171.453 183.897C171.465 183.818 171.486 183.75 171.521 183.683C171.521 183.671 171.521 183.671 171.521 183.671C171.871 183.818 172.208 183.975 172.557 184.122C172.568 184.494 172.581 184.865 172.591 185.248C172.58 185.248 172.567 185.248 172.557 185.248C172.41 185.248 172.252 185.214 172.117 185.158ZM171.7 231.101L172.826 231.236L173.941 231.372C173.873 231.935 173.401 232.363 172.826 232.363H172.815C172.736 232.363 172.656 232.351 172.59 232.34C172.072 232.228 171.689 231.766 171.7 231.225C171.7 231.214 171.7 231.169 171.7 231.101Z" fill="black"/>
<path d="M171.43 184.166C171.441 184.594 171.7 184.977 172.117 185.158C171.891 185.056 171.666 184.966 171.452 184.865C171.441 184.628 171.441 184.392 171.43 184.166ZM171.52 183.682C171.486 183.75 171.463 183.817 171.452 183.896C171.463 183.829 171.486 183.75 171.52 183.682Z" fill="black"/>
<path d="M171.358 182.365C163.36 178.693 157.572 174.187 156.738 170.887C156.209 168.792 156.469 167.058 157.505 165.717C158.654 164.242 160.749 163.352 163.092 163.352C165.603 163.352 168.915 164.467 169.963 167.61C170.39 168.905 170.964 172.532 171.358 182.365Z" fill="#FFA62B"/>
<path d="M168.364 230.707L171.698 231.101C171.698 231.168 171.698 231.213 171.698 231.225C171.687 231.765 172.07 232.227 172.588 232.34L169.491 231.979V253.65C169.108 253.56 168.736 253.47 168.364 253.368V230.707Z" fill="black"/>
<path d="M168.366 264.508V253.369C168.737 253.47 169.109 253.56 169.492 253.65V264.508C169.492 264.553 169.492 264.598 169.481 264.632C169.109 264.587 168.737 264.553 168.366 264.508ZM168.501 229.592L171.711 229.975C171.711 230.538 171.7 230.921 171.7 231.101L168.366 230.707V253.369C167.994 253.267 167.611 253.166 167.239 253.065V230.707C167.239 230.38 167.374 230.076 167.622 229.862C167.859 229.648 168.174 229.558 168.501 229.592Z" fill="black"/>
<path d="M168.366 253.369V264.508C167.994 264.463 167.611 264.429 167.239 264.384V253.064C167.611 253.166 167.994 253.267 168.366 253.369Z" fill="black"/>
<path d="M168.366 264.508C168.737 264.553 169.109 264.587 169.481 264.632C169.424 265.195 168.94 265.634 168.366 265.634C167.746 265.634 167.239 265.138 167.239 264.519V264.384C167.611 264.429 167.994 264.463 168.366 264.508Z" fill="black"/>
<path d="M167.237 253.064V264.384C156.086 263.179 143.449 262.312 129.302 262.075L123.783 228.668C135.407 239.841 150.32 248.379 167.237 253.064Z" fill="#FFA62B"/>
<path d="M164.095 0L161.617 51.2481L150.038 0H164.095Z" fill="#E22953"/>
<path d="M133.493 300.28C144.61 300.584 176.305 302.127 208.822 310.046L208.586 311.037L205.77 325.51C161.618 317.063 133.685 315.936 133.685 315.936L133.471 301.102L133.493 300.28Z" fill="#0B4870"/>
<path d="M169.963 167.61C168.916 164.467 165.604 163.352 163.093 163.352C160.75 163.352 158.655 164.242 157.506 165.717C156.47 167.058 156.211 168.792 156.739 170.887C157.573 174.187 163.362 178.693 171.359 182.365C170.966 172.532 170.391 168.905 169.963 167.61ZM155.648 171.169C153.023 160.818 168.409 159.376 171.033 167.261C171.764 169.468 172.227 175.483 172.509 182.995C172.431 182.995 172.362 183.007 172.284 183.029C172.216 183.04 172.15 183.074 172.081 183.097C171.833 183.209 171.631 183.412 171.518 183.671C162.89 179.819 156.628 175.021 155.648 171.169Z" fill="black"/>
<path d="M171.034 167.26C168.409 159.376 153.024 160.818 155.648 171.169C156.628 175.021 162.89 179.819 171.518 183.671C171.518 183.671 171.518 183.671 171.518 183.682C171.484 183.75 171.462 183.829 171.45 183.896C171.427 183.986 171.427 184.076 171.427 184.166C171.438 184.392 171.438 184.628 171.45 184.865C162.068 180.754 155.625 175.629 154.555 171.45C153.666 167.958 154.702 165.649 155.727 164.332C157.303 162.316 160.052 161.099 163.093 161.099C167.394 161.099 170.932 163.386 172.104 166.9C172.813 169.074 173.331 174.457 173.647 183.355C173.433 183.265 173.206 183.175 172.994 183.085C172.981 183.074 172.96 183.074 172.948 183.074C172.813 183.018 172.654 182.984 172.508 182.995C172.228 175.482 171.766 169.468 171.034 167.26Z" fill="black"/>
<path d="M218.724 295.662L212.811 311.037C211.482 310.687 210.153 310.361 208.823 310.045C176.306 302.127 144.611 300.584 133.494 300.28C130.802 300.213 129.316 300.213 129.316 300.213L126.928 283.554L126.905 282.146C139.373 281.898 177.848 282.248 219.22 293.792L218.724 295.662Z" fill="#0E538C"/>
<path d="M91.0075 48.0269L101.021 94.0488L72.1865 53.0954L91.0075 48.0269Z" fill="#E22953"/>
<path d="M85.2543 239.909L44.1431 271.728L36.2588 257.051L85.2543 239.909Z" fill="#E22953"/>
<path d="M64.415 171.169L0 162.226L4.71934 141.918L64.415 171.169Z" fill="#E22953"/>
</svg>
