<svg width="470" height="162" viewBox="0 0 470 162" fill="none" xmlns="http://www.w3.org/2000/svg">
<path opacity="0.1" d="M230.857 124.762C356.672 124.762 458.666 120.486 458.666 115.212C458.666 109.938 356.672 105.663 230.857 105.663C105.041 105.663 3.04785 109.938 3.04785 115.212C3.04785 120.486 105.041 124.762 230.857 124.762Z" fill="#2A94F4"/>
<path opacity="0.1" d="M370.037 161.134C378.192 161.134 384.804 159.545 384.804 157.585C384.804 155.625 378.192 154.037 370.037 154.037C361.881 154.037 355.27 155.625 355.27 157.585C355.27 159.545 361.881 161.134 370.037 161.134Z" fill="#2A94F4"/>
<path opacity="0.1" d="M411.369 160.429C415.67 160.429 419.156 159.588 419.156 158.55C419.156 157.513 415.67 156.672 411.369 156.672C407.068 156.672 403.582 157.513 403.582 158.55C403.582 159.588 407.068 160.429 411.369 160.429Z" fill="#2A94F4"/>
<path d="M411.968 112.89H46.3588C20.7573 112.89 0 92.0947 0 66.4464C0 40.7981 20.7573 20.0029 46.3588 20.0029H411.968C437.569 20.0029 458.327 40.7981 458.327 66.4464C458.327 92.0947 437.569 112.89 411.968 112.89Z" fill="#DDEEFD"/>
<path opacity="0.15" d="M410.874 102.792H47.4525C27.4245 102.792 11.1729 86.5111 11.1729 66.4465C11.1729 46.3819 27.4245 30.1006 47.4525 30.1006H410.9C430.928 30.1006 447.18 46.3819 447.18 66.4465C447.18 86.5111 430.928 102.792 410.874 102.792Z" fill="#0E538C"/>
<path d="M115.194 102.792H47.4525C27.4245 102.792 11.1729 86.5111 11.1729 66.4465C11.1729 46.3819 27.4245 30.1006 47.4525 30.1006H115.194C122.486 30.1006 128.372 36.0234 128.372 43.3031V89.5639C128.372 96.8696 122.486 102.792 115.194 102.792Z" fill="#FFA62B"/>
<path d="M85.4514 102.792H86.6494C87.8996 102.792 88.9153 101.775 88.9153 100.522V97.0258C88.9153 95.7734 87.8996 94.7559 86.6494 94.7559H85.4514C84.2013 94.7559 83.1855 95.7734 83.1855 97.0258V100.522C83.1855 101.775 84.2013 102.792 85.4514 102.792ZM100.531 102.792H101.39C102.641 102.792 103.656 101.775 103.656 100.522V97.0258C103.656 95.7734 102.641 94.7559 101.39 94.7559H100.531C99.2809 94.7559 98.2652 95.7734 98.2652 97.0258V100.522C98.2652 101.775 99.2809 102.792 100.531 102.792Z" fill="#679B46"/>
<path d="M101.781 90.477C101.781 90.477 108.996 90.3204 110.376 85.5717V85.5456C110.376 85.2586 110.376 81.2404 114.673 80.7969C114.673 80.7969 114.673 80.7969 114.699 80.7969C114.934 80.7186 120.09 79.2574 120.689 85.5717C120.689 85.5717 121.601 96.1911 103.787 97.4174" fill="#679B46"/>
<path d="M107.668 98.7744C107.72 98.7744 107.772 98.7222 107.772 98.67C107.824 97.1045 108.371 81.1102 95.0102 79.5447C95.0102 79.5447 78.1595 77.0399 78.42 98.3047C78.42 98.3569 78.4721 98.4091 78.5242 98.4091L107.668 98.7744Z" fill="#B57400"/>
<path d="M78.5494 98.9307H107.511C107.563 98.9307 107.615 98.8786 107.615 98.8264V97.2087C107.615 97.1565 107.563 97.1043 107.511 97.1043H78.5494C78.4973 97.1043 78.4453 97.1565 78.4453 97.2087V98.8264C78.4192 98.8786 78.4713 98.9307 78.5494 98.9307ZM100.375 96.9739C100.453 95.7736 101.026 85.8327 95.1917 82.7016C95.1396 82.6755 95.0615 82.7016 95.0354 82.7538C95.0094 82.806 95.0354 82.8843 95.0875 82.9104C100.791 85.9631 100.244 95.7997 100.166 96.9478C100.166 97 100.218 97.0521 100.27 97.0782C100.322 97.1043 100.375 97.0521 100.375 96.9739ZM85.6335 97.0782C85.6856 97.0782 85.7376 97.026 85.7376 96.9478C85.6595 95.7997 85.0865 85.9631 90.8163 82.9104C90.8684 82.8843 90.8944 82.806 90.8684 82.7538C90.8423 82.7016 90.7642 82.6755 90.7121 82.7016C84.8782 85.8066 85.4251 95.7736 85.5293 96.9739C85.5293 97.0521 85.5814 97.1043 85.6335 97.0782Z" fill="#8A5001"/>
<path d="M84.2276 82.9106H102.12C102.172 82.9106 102.224 82.8584 102.224 82.8062V82.7802C102.224 82.728 102.172 82.6758 102.12 82.6758H84.2276C84.1755 82.6758 84.1234 82.728 84.1234 82.7802V82.8062C84.1234 82.8584 84.1755 82.9106 84.2276 82.9106ZM79.774 90.3207H106.6C106.652 90.3207 106.704 90.2685 106.704 90.2163V90.138C106.704 90.0859 106.652 90.0337 106.6 90.0337H79.774C79.7219 90.0337 79.6699 90.0859 79.6699 90.138V90.2163C79.6438 90.2685 79.6959 90.3207 79.774 90.3207Z" fill="#8A5001"/>
<path d="M450.93 0.0166525C461.53 -0.348633 461.296 5.33939 461.14 12.7756C460.358 52.4352 426.709 35.6581 436.658 22.4556C441.476 16.0631 440.643 22.6644 440.018 8.70523C439.783 3.72169 447.597 0.12102 450.93 0.0166525Z" fill="#0B4870"/>
<path d="M450.305 29.7093C448.091 29.344 436.501 40.694 433.454 43.7728C430.407 46.8777 427.281 51.1307 430.511 51.1307C433.74 51.1307 437.1 48.104 439.652 46.0689C442.205 44.0337 445.643 41.0592 447.544 39.7025C449.419 38.3718 452.492 30.0746 450.305 29.7093Z" fill="#B97A59"/>
<path d="M433.533 54.0005C433.533 54.0005 432.126 44.7379 427.517 37.8757C422.907 30.9875 420.589 25.6387 420.589 25.6387L418.609 26.5519C418.609 26.5519 425.537 44.8683 427.152 47.8689C428.767 50.8173 428.871 50.4259 433.533 54.0005Z" fill="#B97A59"/>
<path d="M420.563 28.1435C420.563 28.1435 417.281 26.9432 414.078 24.3341C410.875 21.7249 410.901 21.6466 410.354 20.4203C409.807 19.194 410.77 16.8979 411.942 17.8633C413.088 18.8287 414.078 20.9682 414.99 21.5944C417.307 23.2121 416.708 21.751 416.552 21.3335C416.396 20.916 416.135 20.3159 416.526 20.0289C416.917 19.7419 417.229 20.6812 417.464 20.9943C417.698 21.3074 419.417 22.7686 419.756 23.1077C420.094 23.4208 420.016 24.5167 420.511 25.4299C421.032 26.3692 422.386 30.3091 421.735 30.857C421.709 30.857 421.553 28.6131 420.563 28.1435ZM373.475 128.545C373.475 128.545 371.365 134.311 369.933 136.973C368.501 139.608 367.276 141.382 366.677 143.756C366.078 146.131 374.647 143.208 375.611 141.669C376.574 140.13 376.783 134.885 380.194 130.945C383.658 127.005 373.475 128.545 373.475 128.545Z" fill="#B97A59"/>
<path d="M410.171 76.6741C410.171 76.6741 384.439 88.2328 381.861 91.6508C379.308 95.0688 374.907 121.474 373.058 128.571C372.667 130.058 378.866 132.119 380.611 131.049C382.356 129.98 389.96 114.429 391.237 110.411C392.617 105.949 392.122 100.626 393.216 100.131C395.508 99.0609 418.427 92.7466 421.682 90.3201C424.964 87.8935 434.444 79.3354 433.454 76.4914C432.465 73.6735 410.171 76.6741 410.171 76.6741ZM377.641 135.12C377.641 135.12 379.334 137.442 379.751 138.46C380.168 139.477 381.21 140.469 380.402 141.538C379.595 142.582 376.496 144.8 374.099 148.453C371.729 152.106 367.536 156.306 364.776 157.689C362.015 159.072 357.952 158.655 357.926 157.115C357.9 155.576 360.14 153.436 361.26 152.627C362.38 151.792 366.911 141.773 367.51 140.208C368.109 138.642 368.969 137.886 370.115 138.616C371.261 139.347 372.693 139.816 374.594 138.303C376.496 136.816 377.641 135.12 377.641 135.12Z" fill="#0B4870"/>
<path d="M451.528 53.6878C451.528 53.6878 447.387 58.3583 446.111 62.8461C444.809 67.3339 447.83 79.3622 440.538 88.0769C436.839 92.5125 415.301 90.1642 415.301 90.1642C432.776 59.0367 433.818 54.027 432.776 50.4003C431.735 46.7735 432.698 45.0254 436.084 42.2074C439.444 39.3895 441.918 36.8586 442.647 33.571C443.376 30.3356 469.916 24.4128 451.528 53.6878Z" fill="#FFA62B"/>
<path d="M458.691 32.6835C458.691 32.6835 457.337 31.5093 457.076 26.4736C456.816 21.4379 456.738 18.8287 457.675 17.0284C458.613 15.2541 448.924 14.8888 448.69 18.5678C448.482 22.2467 447.909 22.7686 448.898 26.6563C449.914 30.5439 446.424 31.6137 445.669 31.9268C444.158 32.5791 439.783 38.2932 458.691 32.6835Z" fill="#AA6B4F"/>
<path d="M451.034 11.8361C452.779 12.2535 454.498 12.4362 456.087 12.0187C454.784 20.6551 447.622 21.8032 447.362 21.8292C447.101 21.8553 446.841 21.8814 446.502 21.5161C446.164 21.1509 441.814 15.5933 444.054 6.90472C444.21 6.27851 445.252 10.4271 451.034 11.8361ZM454.837 35.1883C451.737 35.8406 442.179 54.8093 439.418 59.9755C436.658 65.1417 434.288 71.769 438.585 70.1513C442.882 68.5336 446.086 63.2892 448.664 59.6363C451.216 55.9574 454.55 50.7129 456.529 48.182C458.509 45.6511 457.936 34.536 454.837 35.1883Z" fill="#B97A59"/>
<path d="M406.057 120.405C406.057 120.405 409.339 125.962 409.521 127.997C409.704 130.033 409.938 131.415 411.527 130.998C413.115 130.581 415.563 125.884 415.199 124.397C414.834 122.91 411.11 119.387 410.537 117.013C409.99 114.638 406.031 121.344 406.031 121.344L406.057 120.405Z" fill="#B97A59"/>
<path d="M412.646 120.3C412.646 120.3 414.834 121.422 416.162 121.553C417.49 121.709 419.339 123.04 419.157 125.858C418.975 128.676 418.402 134.312 418.454 137.86C418.506 141.409 415.485 147.279 414.677 148.453C413.375 150.358 410.406 150.358 409.729 148.688C409.052 147.018 409.859 142.322 409.911 139.921C409.963 137.521 409 129.641 408.922 128.676C408.844 127.71 411.37 125.623 412.255 126.771C413.141 127.919 413.974 126.588 414 125.727C414 124.866 412.646 120.3 412.646 120.3Z" fill="#0B4870"/>
<path d="M424.47 75.8658C419.027 75.918 393.972 73.8567 390.43 77.1704C386.888 80.5101 392.722 90.0075 411.005 94.4693C429.288 98.931 432.778 97.6785 438.612 91.286C444.446 84.8935 428.533 75.8136 424.47 75.8658Z" fill="#0E538C"/>
<path d="M398.191 84.9457C398.191 84.9457 407.906 93.7908 408.661 103.575C409.39 113.36 411.318 117.926 411.318 117.926L406.031 121.318C406.031 121.318 389.805 93.9213 388.633 88.4159C387.461 82.9105 387.852 76.9616 391.42 77.8487C394.988 78.7358 398.191 84.9457 398.191 84.9457Z" fill="#0E538C"/>
<path d="M406.005 121.265C406.031 121.291 406.031 121.318 406.031 121.318L410.641 118.369L406.005 121.265Z" fill="#DDEEFD"/>
<path d="M437.31 70.4389C431.528 70.8825 422.335 71.0912 422.335 71.0912C422.335 71.0912 409.573 73.022 421.605 68.195C424.21 67.1513 431.007 63.7333 440.592 62.4809C441.634 62.3504 441.113 62.6374 442.206 63.081C444.108 63.8377 441.998 70.0736 437.31 70.4389Z" fill="#B97A59"/>
<path d="M411.526 73.387L411.5 72.7086L412.985 71.1171C412.985 71.1171 416.501 69.7081 417.985 69.7081C419.47 69.7081 424.809 67.3859 425.512 67.3076C426.215 67.2294 428.038 70.256 428.038 70.256C428.038 70.256 422.178 71.1171 419.86 71.6911C417.568 72.2651 414.547 74.3003 413.636 74.5612C412.099 75.0047 411.37 75.3178 411.37 75.3178C411.37 75.3178 411.266 74.3785 413.636 73.5436C414.261 73.3088 413.688 72.6826 413.688 72.6826L411.526 73.387Z" fill="#B97A59"/>
<path d="M424.99 75.8656C424.99 75.8656 424.99 75.8395 425.016 75.8395L424.99 74.9263H391.133V75.8395V75.8656L391.211 76.0221C391.654 76.8049 392.435 76.9353 393.321 76.9353H422.803C423.688 76.9353 424.469 76.8049 424.912 76.0221L424.99 75.8656Z" fill="#D3D3D3"/>
<path d="M416.838 76.0222C416.838 76.0222 416.812 76.0222 416.838 76.0222L416.916 76.1788C417.046 76.3875 417.229 76.518 417.411 76.6485H422.568C423.427 76.6485 424.182 76.5441 424.599 75.8918L424.677 75.7613C424.677 75.7613 424.677 75.7352 424.703 75.7352V75.2917H416.864V76.0222H416.838ZM416.63 74.9003L412.228 56.5316C412.124 56.0359 411.655 55.6445 411.212 55.6445H387.46C387.017 55.6445 386.757 56.0359 386.887 56.5316L391.289 74.9003H416.63Z" fill="#F7F7F7"/>
<path d="M403.216 65.2726C403.451 66.2119 402.93 66.9686 402.097 66.9686C401.237 66.9686 400.378 66.2119 400.143 65.2726C399.909 64.3333 400.43 63.5767 401.263 63.5767C402.123 63.5767 402.982 64.3333 403.216 65.2726Z" fill="#D3D3D3"/>
<path d="M448.43 1.03461C449.316 0.643237 458.223 -0.974456 462.468 3.38288C466.713 7.74022 467.859 14.2371 465.828 20.2643C463.796 26.2915 466.427 25.7175 468.875 30.8054C473.953 41.2682 460.619 47.9477 453.248 42.0771C449.29 38.92 449.159 29.1094 450.175 22.3777C451.191 15.646 457.389 13.5326 453.717 12.1497C449.42 10.532 440.695 4.53092 448.43 1.03461Z" fill="#0B4870"/>
</svg>
